<svg xmlns="http://www.w3.org/2000/svg" width="22.233" height="32.572" viewBox="0 0 22.233 32.572">
  <g id="_2" data-name=" 2" transform="translate(514.787 -1837.597)" style="isolation: isolate">
    <g id="Gruppe_38" data-name="Gruppe 38" transform="translate(-514.787 1837.597)" style="isolation: isolate">
      <path id="Pfad_310" data-name="Pfad 310" d="M72.446,2004.169h-21.6v-4.851l9.948-10.851q3.677-4.345,3.676-6.9a4.929,4.929,0,0,0-.871-3.154,3.058,3.058,0,0,0-2.529-1.081,3.119,3.119,0,0,0-2.657,1.444,6.1,6.1,0,0,0-1.021,3.607H50.213a10.841,10.841,0,0,1,1.425-5.459,10.13,10.13,0,0,1,3.952-3.914,11.391,11.391,0,0,1,5.655-1.411q5.017,0,7.726,2.4a8.737,8.737,0,0,1,2.711,6.9A10.347,10.347,0,0,1,71,1984.6a16.373,16.373,0,0,1-2.115,3.772,54.789,54.789,0,0,1-4.623,5.283l-4,4.785H72.446Z" transform="translate(-50.213 -1971.597)" fill="#faa401"/>
    </g>
  </g>
</svg>
