<svg id="Ebene_1" data-name="Ebene 1" xmlns="http://www.w3.org/2000/svg" viewBox="0 0 516.402 360.249"><defs><style>.cls-1{fill:#faa401;}</style></defs><path id="Pfad_297" data-name="Pfad 297" class="cls-1" d="M707.714,296.751H335.84A72.257,72.257,0,0,0,263.6,369V584.758A72.257,72.257,0,0,0,335.84,657H707.759A72.256,72.256,0,0,0,780,584.758V369a72.257,72.257,0,0,0-72.264-72.249ZM407.334,432.829a41.551,41.551,0,0,0-27.234-9.95,46.778,46.778,0,0,0-27.724,7.951,45.715,45.715,0,0,0-12.07,13.4,42.866,42.866,0,0,0-6.48,17h67.058l-2.655,13.165H332.264c-.068,1.38-.113,2.7-.113,3.93,0,5.069.045,8.08.113,9.052H395.55l-2.768,13.179H334.331a44.227,44.227,0,0,0,19.856,31.934,46.759,46.759,0,0,0,24.487,6.79,40.411,40.411,0,0,0,28.667-9.641v20.233a62.958,62.958,0,0,1-27.158,5.711q-44.419,0-60.08-36.966a103.493,103.493,0,0,1-5.4-18.106h-15l2.746-13.179h10.343c-.219-2.768-.31-5.755-.31-8.962,0-1.321,0-2.656.091-4.044H299.7l2.746-13.164h11.4a62.353,62.353,0,0,1,31.76-46.018,71.413,71.413,0,0,1,34.884-8.653,56.25,56.25,0,0,1,30.772,7.951Zm215.985,106.6a6.33,6.33,0,0,1-6.33,6.322H471.39a6.329,6.329,0,0,1-6.329-6.322V518.688a6.307,6.307,0,0,1,6.306-6.308H616.989a6.307,6.307,0,0,1,6.33,6.284v20.762Zm127.4,0a6.329,6.329,0,0,1-6.329,6.322H653.812a6.33,6.33,0,0,1-6.33-6.322V518.688a6.308,6.308,0,0,1,6.307-6.308H744.4a6.307,6.307,0,0,1,6.329,6.284v.024Zm0-90.415a6.33,6.33,0,0,1-6.329,6.308H467.105a6.33,6.33,0,0,1-6.329-6.308V428.28a6.322,6.322,0,0,1,6.322-6.322H744.4a6.323,6.323,0,0,1,6.33,6.315v.007Z" transform="translate(-263.598 -296.751)"/></svg>