<svg data-name="Layer 1" xmlns="http://www.w3.org/2000/svg" xmlns:xlink="http://www.w3.org/1999/xlink" width="730.62" height="597.03"><defs><linearGradient id="a" x1="637.48" y1="453.45" x2="466.5" y2="775.18" gradientTransform="translate(0 -170)" gradientUnits="userSpaceOnUse"><stop offset="0" stop-opacity="0"/><stop offset=".91" stop-opacity=".8"/><stop offset="1"/></linearGradient><linearGradient id="f" x1="405.8" y1="100.59" x2="386.76" y2="362.03" xlink:href="#a"/><linearGradient id="e" x1="357.58" y1="579.04" x2="362.09" y2="509.22" gradientTransform="matrix(1 0 0 -1 0 600)" gradientUnits="userSpaceOnUse"><stop offset=".01"/><stop offset=".1" stop-opacity=".77"/><stop offset=".99" stop-opacity="0"/></linearGradient><linearGradient id="g" x1="307.07" y1="511.96" x2="-264.01" y2="513.64" xlink:href="#a"/><linearGradient id="h" x1="710.53" y1="296.1" x2="254.4" y2="367.06" xlink:href="#a"/><linearGradient id="b" x1="432.31" y1="295.53" x2="434.19" y2="324.06" gradientTransform="translate(0 -170)" gradientUnits="userSpaceOnUse"><stop offset="0" stop-color="#183866"/><stop offset="1" stop-color="#1a7fc1"/></linearGradient><linearGradient id="i" x1="432.31" y1="369.4" x2="434.19" y2="397.94" xlink:href="#b"/><linearGradient id="j" x1="446.06" y1="369.4" x2="447.93" y2="397.94" xlink:href="#b"/><linearGradient id="k" x1="459.89" y1="369.4" x2="461.76" y2="397.94" xlink:href="#b"/><linearGradient id="l" x1="432.3" y1="518.17" x2="434.18" y2="546.71" xlink:href="#b"/><linearGradient id="m" x1="446.06" y1="518.17" x2="447.93" y2="546.71" xlink:href="#b"/><linearGradient id="n" x1="459.89" y1="518.17" x2="461.76" y2="546.71" xlink:href="#b"/><linearGradient id="o" x1="703.16" y1="402.81" x2="610.33" y2="366.61" gradientTransform="translate(0 -170)" gradientUnits="userSpaceOnUse"><stop offset="0" stop-color="#ecc4d7"/><stop offset=".16" stop-color="#edcbd5"/><stop offset=".42" stop-color="#efd4d1"/><stop offset=".7" stop-color="#f2eac9"/></linearGradient><linearGradient id="c" x1="584" y1="430.92" x2="600.93" y2="430.92" gradientTransform="translate(0 -170)" gradientUnits="userSpaceOnUse"><stop offset="0" stop-color="#ecc4d7"/><stop offset=".42" stop-color="#efd4d1"/><stop offset="1" stop-color="#f2eac9"/></linearGradient><linearGradient id="p" x1="590.36" y1="488.74" x2="604.49" y2="488.74" xlink:href="#c"/><linearGradient id="q" x1="638.95" y1="418.78" x2="600.42" y2="464.03" xlink:href="#c"/><linearGradient id="d" x1="140.4" y1="49.02" x2="146.6" y2="102.52" gradientTransform="matrix(1 0 0 -1 0 600)" gradientUnits="userSpaceOnUse"><stop offset=".1" stop-opacity=".77"/><stop offset=".99" stop-opacity="0"/></linearGradient><linearGradient id="r" x1="163.84" y1="130.91" x2="132.02" y2="134.01" xlink:href="#d"/><linearGradient id="s" x1="123.02" y1="129.86" x2="121.92" y2="58.46" gradientTransform="matrix(1 0 0 -1 0 600)" gradientUnits="userSpaceOnUse"><stop offset=".36" stop-opacity=".77"/><stop offset=".99" stop-opacity="0"/></linearGradient><linearGradient id="t" x1="120.08" y1="69.76" x2="121.21" y2="31.84" xlink:href="#e"/><linearGradient id="u" x1="158.89" y1="64.27" x2="134.39" y2="18.38" xlink:href="#e"/><linearGradient id="v" x1="160.26" y1="97.54" x2="145.91" y2="47.98" xlink:href="#d"/></defs><path d="M158.65 127.55C115.48 150.61 71 174.76 40.91 213.38 22.84 236.6 10.8 264.24 4.46 293-6.4 342.09 1.64 399 39 432.76c13 11.8 28.9 20.13 45.3 26.53a243 243 0 00106.91 15.85c29.87-2.33 59.69-10.2 89.41-6.45 36.25 4.56 67.9 25.76 101.67 39.72A265.41 265.41 0 00515 526.51c11.36-1.38 22.86-3.59 32.85-9.17 11.86-6.63 20.65-17.46 30-27.36a261.61 261.61 0 0173.46-54.69c14.43-7.22 29.72-13.21 42.25-23.37 33-26.7 38.65-74.48 36.73-116.85s-11.47-89.14-45.38-114.87c-7.57-5.74-16.09-10.19-23.43-16.24C637 143.78 629.68 110 614 82.39 578.84 20.65 500.39-6.38 429.76 1.26c-101.21 10.95-184.1 79.82-271.11 126.29z" fill="#68e1fd" opacity=".18" style="isolation:isolate"/><path d="M688.92 295.5c-.92 8.5-11.41 22.77-25.92 38.81-23.78 26.24-58.33 57.19-79.11 75.22-10.72 9.31-17.77 15.18-17.77 15.18V263.17s25.16-32.22 43.44-34.29 55.17 19.31 55.17 19.31 27.27 17.75 24.19 47.31z" fill="#68e1fd"/><path d="M663 334.31c-23.78 26.24-58.33 57.19-79.11 75.22-1.55-2.47-1.86-5.83-2-8.87-.55-15.19-.42-30.4-.28-45.6.13-14.76.26-29.51 1.19-44.24.88-13.72 2.56-27.75 8.84-40a15.36 15.36 0 013.45 4.48C603 288.89 608 303.88 613 318.76q3.71 11 7.42 22.09A53.18 53.18 0 00635.05 329c3.8-4.21 7.19-8.76 10.68-13.22 2.44-3.12 7.2-12 11-8.66 6.16 5.37 6.66 17.66 6.27 27.19z" fill="url(#a)"/><path fill="#68e1fd" d="M175 50.48h409.59v474.37H175z"/><path fill="url(#f)" d="M175 50.48h409.59v474.37H175z"/><path d="M528.3 73.41L175 105.08c1.59 0 0-44 0-54.6h372.5v3.72a19.21 19.21 0 01-19.2 19.21z" fill="url(#e)"/><path fill="#68e1fd" d="M175 105.08h409.59v474.37H175z"/><path fill="url(#g)" d="M175 105.08h58.23v474.37H175z"/><path fill="#fff" d="M197.86 193.74h70.75v70.75h-70.75zM272.54 193.74h70.75v70.75h-70.75zM347.23 193.74h70.75v70.75h-70.75zM421.91 193.74h70.75v70.75h-70.75zM197.86 267.6h70.75v70.75h-70.75zM272.54 267.6h70.75v70.75h-70.75zM347.23 267.6h70.75v70.75h-70.75zM421.91 267.6h70.75v70.75h-70.75zM197.86 341.46h70.75v70.75h-70.75zM272.54 341.46h70.75v70.75h-70.75zM347.23 341.46h70.75v70.75h-70.75zM421.91 341.46h70.75v70.75h-70.75zM197.86 415.32h70.75v70.75h-70.75zM272.54 415.32h70.75v70.75h-70.75zM347.23 415.32h70.75v70.75h-70.75zM421.91 415.32h70.75v70.75h-70.75zM197.86 489.18h70.75v70.75h-70.75zM272.54 489.18h70.75v70.75h-70.75zM347.23 489.18h70.75v70.75h-70.75zM495.34 193.74h70.75v70.75h-70.75zM495.34 119.88h70.75v70.75h-70.75zM421.91 119.88h70.75v70.75h-70.75zM495.34 267.6h70.75v70.75h-70.75zM495.34 341.46h70.75v70.75h-70.75zM495.34 415.32h70.75v70.75h-70.75z"/><path d="M206.73 31.3v38.36c0 2.07 2.63 3.75 5.86 3.75 3.24 0 5.86-1.68 5.86-3.75V31.3c0-2.07-2.62-3.75-5.86-3.75-3.23 0-5.86 1.68-5.86 3.75zM262.75 31.3v38.36c0 2.07 2.62 3.75 5.86 3.75s5.86-1.68 5.86-3.75V31.3c0-2.07-2.62-3.75-5.86-3.75s-5.86 1.68-5.86 3.75zM318.77 31.3v38.36c0 2.07 2.62 3.75 5.86 3.75s5.86-1.68 5.86-3.75V31.3c0-2.07-2.62-3.75-5.86-3.75s-5.86 1.68-5.86 3.75zM374.79 31.3v38.36c0 2.07 2.62 3.75 5.86 3.75 3.23 0 5.86-1.68 5.86-3.75V31.3c0-2.07-2.63-3.75-5.86-3.75-3.24 0-5.86 1.68-5.86 3.75zM430.8 31.3v38.36c0 2.07 2.63 3.75 5.87 3.75 3.23 0 5.86-1.68 5.86-3.75V31.3c0-2.07-2.63-3.75-5.86-3.75-3.24 0-5.87 1.68-5.87 3.75zM486.82 31.3v38.36c0 2.07 2.63 3.75 5.86 3.75 3.24 0 5.87-1.68 5.87-3.75V31.3c0-2.07-2.63-3.75-5.87-3.75-3.23 0-5.86 1.68-5.86 3.75zM541.64 31.3v38.36c0 2.07 2.63 3.75 5.86 3.75 3.24 0 5.86-1.68 5.86-3.75V31.3c0-2.07-2.62-3.75-5.86-3.75-3.23 0-5.86 1.68-5.86 3.75zM584.6 50.48h9.32v528.97h-9.32z" fill="#68e1fd"/><path fill="url(#h)" d="M584.6 50.48h9.32v528.97h-9.32z"/><path d="M438.25 130.25a5.63 5.63 0 11-5.64-5.62 5.64 5.64 0 015.64 5.62z" fill="url(#b)"/><path d="M438.25 204.12a5.63 5.63 0 11-5.64-5.62 5.64 5.64 0 015.64 5.62z" fill="url(#i)"/><path d="M452 204.12a5.63 5.63 0 11-5.64-5.62 5.64 5.64 0 015.64 5.62z" fill="url(#j)"/><path d="M465.83 204.12a5.63 5.63 0 11-5.64-5.62 5.64 5.64 0 015.64 5.62z" fill="url(#k)"/><path d="M438.25 352.9a5.63 5.63 0 11-5.63-5.63 5.62 5.62 0 015.62 5.62z" fill="url(#l)"/><circle cx="209.74" cy="352.9" r="5.62" fill="#ff2235"/><path d="M452 352.9a5.63 5.63 0 11-5.63-5.63 5.62 5.62 0 015.62 5.62z" fill="url(#m)"/><path d="M465.83 352.9a5.63 5.63 0 11-5.63-5.63 5.62 5.62 0 015.62 5.62z" fill="url(#n)"/><path d="M688.25 201.7c-1.57 6.42.53 15.32-2.45 21.21-5 9.9-19.62 16.47-21.78 27.34-.13.63-16.4 8.47-24.79 5.79-4.39-1.39-6.62-5.67-3.24-15.35 1.06-3 7-4.12 8.6-6.91l-.33-.25c-8.12-6.13-9-19.12-7.32-27.79s5.53-17 9.66-24.92c3.18-6.1 10.36-9.41 17.24-9.3 8.65.15 17.78 3.61 22.28 11 3.44 5.63 3.69 12.76 2.13 19.18z" fill="url(#o)"/><path d="M648.29 155c-4.43 2.34-9.14 5.1-14.1 4.35a6.69 6.69 0 002.82 6.2l-3.08.69a.86.86 0 00-.64.36.81.81 0 00.07.68 10.14 10.14 0 003.59 4.37c-.55 1.18-2.54.92-3.22 2a2.41 2.41 0 000 2 11.13 11.13 0 003.4 4.77c-1.84 2-.69 5.7 1.85 6.61a5.32 5.32 0 006.46-3.39 5.34 5.34 0 01-.76 3.31c8.39 1.32 17.36 2.56 25.08-1a6.54 6.54 0 00-.58 2.54 12.09 12.09 0 005.76.36 33.37 33.37 0 01-1.09 12.26c-.69 2.48-1.68 4.88-2.12 7.41A10 10 0 00673 216c1.33-.12 2.27-1.37 2.78-2.6a13.47 13.47 0 011.65-3.62c2-2.34 6.16-1.48 7.77 1.11s1 6.07-.54 8.68a13.2 13.2 0 01-8.64 6c.29 2.79.59 5.58.88 8.36 5.27-5 11.17-9.29 15.91-14.76s8.33-12.47 7.72-19.69c-.37-4.45-2.31-8.68-2.46-13.15-.07-2 .23-4.05.15-6.07a16.45 16.45 0 00-10.85-14.53c-2.55-.87-5.36-1.12-7.62-2.59-2.81-1.82-4.27-5.21-7.06-7.07-3-2-7.66-2.82-11.15-3.81-4.54-1.26-9.26.65-13.25 2.74z" fill="#3f3d56"/><path d="M585.38 249.62a3 3 0 00-1.38 2 2 2 0 001.61 1.78 5.88 5.88 0 002.57-.12l5.08-1a17.43 17.43 0 00-6.59 6.5 1.88 1.88 0 00.09 2.05c.68.86 1.83.52 2.75.16l4.41-1.76-3 2.91a13.8 13.8 0 00-2.42 2.86 5.76 5.76 0 00-.64 1.59 1.39 1.39 0 001 1.66 1.19 1.19 0 00.7 0 13.61 13.61 0 005-2.64 33.42 33.42 0 01-3.61 4.27 7.16 7.16 0 00-2.08 5 1 1 0 00.19.56.89.89 0 00.55.26c1.63.27 3.11-.92 4.34-2l4.53-4.11a10.15 10.15 0 001.91-2.07 2.91 2.91 0 00.49-1.51 2 2 0 00-2.16-1.82 2.06 2.06 0 00-.9.31c.13-.87.47-1.68.68-2.53a3.59 3.59 0 00-.16-2.54 1.73 1.73 0 00-2.2-.83 9.73 9.73 0 001-3.33 3.22 3.22 0 00-1.47-3 2.51 2.51 0 01-.74-.47c-.4-.49-.08-1.19.09-1.8a2.91 2.91 0 00-1.74-3.73 3 3 0 00-1.26-.16c-2.58.27-4.73 1.89-6.64 3.51z" fill="url(#c)"/><path d="M667.43 287.19c11.5-10.16 25.74-2.46 20.74 12.05-10.81 31.39-33.44 103.31-54.93 103.31-28 0-39.32-49.65-39.32-49.65l12.93-26.17s18.29 40.13 27.5 29.27 14.65-52 32.55-68.34z" fill="#68e1fd"/><path d="M602.61 325a62.9 62.9 0 01-.12-7 52.75 52.75 0 00-8.66-28.65 4.14 4.14 0 00-.71 2.9l.15 26.56a30.87 30.87 0 01-.44 6.58c-.34 1.58-.92 3.09-1.37 4.65a27.24 27.24 0 00-1 10 12.17 12.17 0 001.43 5.17 5.76 5.76 0 004.32 2.92c.59 0 3-5 3.35-5.68q1.61-3 3-6.05c.69-1.54 2.16-3.81 1.9-5.54-.29-1.94-1.61-3.73-1.85-5.86z" fill="url(#p)"/><path d="M656.05 240.56c-2.42 2.72-4.82 5.45-7.24 8.18a28.61 28.61 0 01-6.52 6 13.17 13.17 0 01-3.06 1.32c-4.39-1.39-6.62-5.67-3.24-15.35 1.06-3 7-4.12 8.6-6.91l-.33-.25a15.26 15.26 0 003.61 1.18c2.6.39 9-1.63 9.79 2.22.28 1.33-.66 2.58-1.61 3.61z" fill="url(#q)"/><path d="M365.28 450l10.08 15.66a3.14 3.14 0 004.33.94 3.42 3.42 0 00.67-.59l27.76-32a3.12 3.12 0 00-2.35-5.17h-.23a3.12 3.12 0 00-2.4 1.12l-21.72 26a3.12 3.12 0 01-4.38.41 3.18 3.18 0 01-.62-.7l-5.91-9a3.13 3.13 0 00-3.08-1.37 3.11 3.11 0 00-2.15 4.66zM243.91 529.19l12.69 12.49a3.16 3.16 0 01-2.22 5.41h-.54a3.19 3.19 0 01-2.24-.92l-12.35-12.36a3.17 3.17 0 00-4.47 0l-12.35 12.36a3.15 3.15 0 01-2.23.92h-.55a3.16 3.16 0 01-2.22-5.41l12.7-12.49a3.14 3.14 0 000-4.44l-12.82-12.82a3.16 3.16 0 012.23-5.39 3.14 3.14 0 012.21.9l13 12.82a3.16 3.16 0 004.43 0l13-12.82a3.14 3.14 0 012.21-.9 3.16 3.16 0 012.24 5.39l-12.82 12.82a3.14 3.14 0 00.06 4.44zM130.74 489.92h3.1l1.55 70.06-1.55-11.54h-3.1v-58.52z" fill="#68e1fd"/><path d="M133.84 515.46v.08c0 2.19-.78 4.38-1.61 7-5.46 1.58-9.1 2.85-14.46-2.69s-10.89-16.25-9.14-21.66c5.46-1.58 16.1 4.17 21.47 9.71 2.78 2.83 3.72 5.2 3.74 7.56zM149.83 519.89c-4.92 4.77-8.38 4.13-12.89 2.69v25.86h-3.1v-58.52h3.1v18.61c.29-.32.6-.64.94-1 5.54-5.36 16.25-10.9 21.66-9.14 1.59 5.49-4.17 16.13-9.71 21.5z" fill="#68e1fd"/><path d="M149.83 519.89c-4.92 4.77-8.38 4.13-12.89 2.69v25.86h-3.1v-58.52h3.1v18.61c.29-.32.6-.64.94-1 5.54-5.36 16.25-10.9 21.66-9.14 1.59 5.49-4.17 16.13-9.71 21.5z" fill="url(#d)"/><path d="M133.84 475.79H120c0 9.83 6.19 17.8 13.83 17.8l3.26-8.73z" fill="#68e1fd"/><path d="M134.08 479.2l-.24.17v-1zM107.64 455.74c-1.75 5.41 3.78 16.13 9.15 21.66s9 4.28 14.45 2.69c1.75-5.41 3.24-9.1-2.13-14.64s-16.01-11.29-21.47-9.71z" fill="#68e1fd"/><path d="M148.84 477.47c-.46.45-.91.85-1.35 1.21-1.07 8.46-6.78 14.91-13.65 14.91v-14.22l.24-.17-.24-.84v1a6.2 6.2 0 01-1 .58c-4.92-2.85-8.9-11.92-8.58-19.63s4.2-19.11 9.32-21.59c4.92 2.85 8.13 14.5 7.84 22.22v.57c5.67-3.89 13-6.87 17.17-5.52 1.55 5.48-4.22 16.11-9.75 21.48z" fill="#68e1fd"/><path d="M148.84 477.47c-.46.45-.91.85-1.35 1.21-1.07 8.46-6.78 14.91-13.65 14.91v-14.22l.24-.17-.24-.84v1a6.2 6.2 0 01-1 .58c-4.92-2.85-8.9-11.92-8.58-19.63s4.2-19.11 9.32-21.59c4.92 2.85 8.13 14.5 7.84 22.22v.57c5.67-3.89 13-6.87 17.17-5.52 1.55 5.48-4.22 16.11-9.75 21.48z" fill="url(#r)"/><path d="M134.08 479.2l-.24.17v-1zM106.49 539.51l4.88 39.44h22.57l9.22-22.44-9.22-18.1-27.45 1.1z" fill="#68e1fd"/><path fill="#68e1fd" d="M161.4 539.51l-4.88 39.44h-22.58v-40.54l27.46 1.1z"/><path d="M144 538.68l-.25.12-7.66 3.8-2.09 1.06h-30.49a3.47 3.47 0 01-3.47-3.47v-8.82a3.11 3.11 0 013.08-3.14h.29l30.59.06z" fill="#68e1fd"/><path d="M144 538.68l-.25.12-7.66 3.8-2.09 1.06h-30.49a3.47 3.47 0 01-3.47-3.47v-8.82a3.11 3.11 0 013.08-3.14h.29l30.59.06z" fill="url(#s)"/><path d="M164.38 543.66h-30.44V527.9h30.44a3.47 3.47 0 013.47 3.47v8.82a3.47 3.47 0 01-3.47 3.47z" fill="#68e1fd"/><path fill="url(#t)" d="M133.95 543.66v35.29h-22.58L107 543.66h26.95z"/><path fill="url(#u)" d="M160.89 543.66l-4.37 35.29h-22.57v-35.29h26.94z"/><path d="M167.85 531.77v8.82a3.47 3.47 0 01-3.47 3.47H134V528.3h30.43a3.47 3.47 0 013.42 3.47z" fill="url(#v)"/><path d="M114 579l-57.36 11a3.52 3.52 0 10.56 7h648.03a3.51 3.51 0 00.49-7l-83.61-10.52h-.48l-506.9-.5a3.57 3.57 0 00-.73.02z" fill="#1d2741" opacity=".18" style="isolation:isolate"/></svg>