<svg xmlns="http://www.w3.org/2000/svg" width="29.91" height="20.865" viewBox="0 0 29.91 20.865">
  <path id="Pfad_345" data-name="Pfad 345" d="M618.945,1600H597.4a4.185,4.185,0,0,0-4.184,4.185v12.5a4.185,4.185,0,0,0,4.184,4.184h21.541a4.185,4.185,0,0,0,4.184-4.184v-12.5A4.185,4.185,0,0,0,618.945,1600Zm-17.4,7.882a2.407,2.407,0,0,0-1.578-.576,2.71,2.71,0,0,0-1.606.461,2.651,2.651,0,0,0-.7.776,2.484,2.484,0,0,0-.375.985h3.884l-.154.762H597.2c0,.08-.006.156-.006.228,0,.294,0,.468.006.525h3.665l-.16.763h-3.387a2.562,2.562,0,0,0,1.15,1.85,2.711,2.711,0,0,0,1.419.393,2.341,2.341,0,0,0,1.662-.559v1.172a3.647,3.647,0,0,1-1.571.331,3.428,3.428,0,0,1-3.48-2.14,5.99,5.99,0,0,1-.313-1.047h-.87l.159-.763h.6c-.013-.16-.018-.333-.018-.519,0-.076,0-.154.005-.234h-.746l.159-.762h.66a3.612,3.612,0,0,1,1.84-2.664,4.137,4.137,0,0,1,2.02-.5,3.258,3.258,0,0,1,1.782.461Zm12.51,6.174a.367.367,0,0,1-.366.366h-8.435a.367.367,0,0,1-.366-.366v-1.2a.365.365,0,0,1,.366-.365h8.435a.365.365,0,0,1,.366.365Zm7.379,0a.367.367,0,0,1-.366.366h-5.247a.366.366,0,0,1-.366-.366v-1.2a.365.365,0,0,1,.366-.365h5.247a.365.365,0,0,1,.366.365Zm0-5.237a.366.366,0,0,1-.366.365H605.009a.366.366,0,0,1-.367-.365v-1.2a.367.367,0,0,1,.367-.366H621.07a.367.367,0,0,1,.366.366Z" transform="translate(-593.22 -1600)" fill="#faa401"/>
</svg>
