<svg data-name="Layer 1" xmlns="http://www.w3.org/2000/svg" xmlns:xlink="http://www.w3.org/1999/xlink" viewBox="0 0 429.22 380.4"><defs><linearGradient id="d" x1="157.73" y1="281.46" x2="96.13" y2="410.34" gradientUnits="userSpaceOnUse"><stop offset=".01"/><stop offset=".23" stop-opacity=".11"/><stop offset=".32" stop-opacity=".08"/><stop offset="1" stop-opacity="0"/></linearGradient><linearGradient id="b" x1="143.55" y1="332.1" x2="140.14" y2="343.93" gradientUnits="userSpaceOnUse"><stop offset=".01"/><stop offset=".54" stop-opacity=".11"/><stop offset=".6" stop-opacity=".08"/><stop offset="1" stop-opacity="0"/></linearGradient><linearGradient id="a" x1="149.36" y1="265.47" x2="91.9" y2="275.63" gradientUnits="userSpaceOnUse"><stop offset=".01"/><stop offset=".13" stop-opacity=".69"/><stop offset="1" stop-opacity="0"/></linearGradient><linearGradient id="e" x1="119.76" y1="313.75" x2="115.91" y2="329.52" xlink:href="#a"/><linearGradient id="f" x1="152.32" y1="270.87" x2="117.99" y2="269.82" xlink:href="#b"/><linearGradient id="g" x1="118.63" y1="118.09" x2="144.56" y2="121.42" xlink:href="#b"/><linearGradient id="h" x1="111.77" y1="185.59" x2="94.43" y2="185.06" xlink:href="#a"/><linearGradient id="i" x1="94.16" y1="115.8" x2="120.72" y2="185.15" xlink:href="#a"/><linearGradient id="j" x1="193.88" y1="223.84" x2="99.03" y2="166.54" xlink:href="#a"/><linearGradient id="c" x1="77.16" y1="-104.06" x2="415.6" y2="297.44" gradientUnits="userSpaceOnUse"><stop offset=".02" stop-color="#fff" stop-opacity="0"/><stop offset=".02" stop-color="#fff" stop-opacity=".05"/><stop offset=".03" stop-color="#fff" stop-opacity=".16"/><stop offset=".04" stop-color="#fff" stop-opacity=".24"/><stop offset=".06" stop-color="#fff" stop-opacity=".31"/><stop offset=".07" stop-color="#fff" stop-opacity=".36"/><stop offset=".1" stop-color="#fff" stop-opacity=".38"/><stop offset=".16" stop-color="#fff" stop-opacity=".39"/><stop offset=".84" stop-color="#fff" stop-opacity=".68"/><stop offset="1" stop-color="#fff"/></linearGradient><linearGradient id="k" x1="217.49" y1="115.95" x2="411.23" y2="115.95" xlink:href="#c"/><linearGradient id="l" x1="204.13" y1="85.68" x2="279.8" y2="85.68" xlink:href="#a"/><linearGradient id="m" x1="196.5" y1="217.37" x2="387.37" y2="217.37" xlink:href="#c"/><linearGradient id="n" x1="237.85" y1="112.84" x2="237.85" y2="70.09" xlink:href="#a"/><linearGradient id="o" x1="244.76" y1="151.21" x2="235.65" y2="39.8" xlink:href="#a"/><linearGradient id="p" x1="282.57" y1="86.07" x2="188.83" y2="170.2" xlink:href="#a"/></defs><path d="M400.42 205.47c-19.55 30.92-44.49 58-69.55 84.67-24.74 26.33-50.37 52.84-82.45 69.43-38.63 20-84 23.91-127.18 18.82-50.83-6-111.91-24.05-116.81-85-1.18-14.76 1.81-29.51 2.65-44.29 2.58-44.76-26.91-97.43 18.36-130 25.08-18 60.93-17.12 83.85-37.81 17.18-15.51 23.5-40.17 39.93-56.47 11.49-11.35 27.18-17.78 43.1-20.77 21-3.94 42.4-2 63.59-3.1 22.46-1.13 45.18-2 67.41 2.13a142.67 142.67 0 0147.77 18.23 127.87 127.87 0 0124.57 19.4c19.35 19.67 31.94 46.23 33.41 73.76 1.73 32.29-11.39 63.68-28.65 91z" fill="#68e1fd" opacity=".18" style="isolation:isolate"/><path d="M100.08 320.91c-9.62-.47-21-.17-26.54 7.69 3.48 4.33 9 6.4 14.39 7.87 14.88 4.08 30.4 5.08 45.8 6.06 18.08 1.16 36.8 2.22 53.75-4.18 3.12-1.18 6.44-2.91 7.56-6.05-5.3-4.71-12.92-5.5-20-6.06-24.83-1.97-50.04-5.33-74.96-5.33z" transform="translate(-8.4 -7.53)" fill="url(#d)"/><path d="M124.89 324.31c0 2 .13 4.31 1.66 5.64a6.46 6.46 0 003.28 1.25 27 27 0 0015-2.06 1.76 1.76 0 00.92-.7 1.74 1.74 0 00.12-.75 5.36 5.36 0 00-1.43-3.46 10.72 10.72 0 00-4.62-2.46l-7.33-2.43c-2-.68-4.49-1.3-6.59-.6-1.14.38-1-.12-1.06 1.48-.03 1.35.05 2.73.05 4.09z" fill="#2e2e3f"/><path d="M133.29 331.84c0 2 .13 4.31 1.66 5.64a6.46 6.46 0 003.28 1.25 27 27 0 0015-2.06 1.76 1.76 0 00.92-.7 1.74 1.74 0 00.12-.75 5.36 5.36 0 00-1.43-3.46 10.72 10.72 0 00-4.62-2.46l-7.33-2.43c-2-.68-4.49-1.3-6.59-.6-1.14.38-1-.12-1.06 1.48-.03 1.35.05 2.73.05 4.09z" transform="translate(-8.4 -7.53)" fill="url(#b)"/><path d="M101.46 227.9c1.66 27.06 3.36 54.5-2.21 81a16.52 16.52 0 00-.56 5.18 5.21 5.21 0 002.67 4.23 5.13 5.13 0 005.53-1.29 14 14 0 003-5.19c3.91-10.12 6.35-20.75 8.64-31.36q4.4-20.41 8.13-41c1.92-10.62 3.71-21.46 2.33-32.17l-16.39 1.67c-4 .4-9.5 1.26-11.24 5.6-1.47 3.62-.13 9.59.1 13.33z" fill="#2e2e3f"/><path d="M109.86 235.43c1.66 27.06 3.36 54.5-2.21 81a16.52 16.52 0 00-.56 5.18 5.21 5.21 0 002.67 4.23 5.13 5.13 0 005.53-1.29 14 14 0 003-5.19c3.91-10.12 6.35-20.75 8.64-31.36q4.4-20.41 8.13-41c1.92-10.62 3.71-21.46 2.33-32.17L121 216.5c-4 .4-9.5 1.26-11.24 5.6-1.47 3.62-.13 9.59.1 13.33z" transform="translate(-8.4 -7.53)" fill="url(#a)"/><path d="M97.99 320.78a5.94 5.94 0 00.92 3.62 5.57 5.57 0 002 1.44 19.15 19.15 0 0012.36 1.39 8 8 0 003.19-1.35 3.68 3.68 0 001.5-3 4 4 0 00-1.67-2.77 15.81 15.81 0 00-2.92-1.58c-3.76-1.79-7-5.73-11.2-6.31-4.57-.61-4.25 5.51-4.18 8.56z" fill="#2e2e3f"/><path d="M106.39 328.31a5.94 5.94 0 00.92 3.62 5.57 5.57 0 002 1.44 19.15 19.15 0 0012.36 1.39 8 8 0 003.19-1.35 3.68 3.68 0 001.5-3 4 4 0 00-1.67-2.77 15.81 15.81 0 00-2.92-1.58c-3.76-1.79-7-5.73-11.2-6.31-4.57-.61-4.25 5.51-4.18 8.56z" transform="translate(-8.4 -7.53)" fill="url(#e)"/><path d="M146.34 249.94a176.79 176.79 0 01-1.83 22.41c-1 6.49-2.6 12.88-4.18 19.25l-6.73 27.39a3.35 3.35 0 01-.92 1.88 3.41 3.41 0 01-1.45.58l-3.71.82a2.8 2.8 0 01-1.49.06c-1.06-.37-1.27-1.74-1.29-2.86-.39-19 .92-38.06-.24-57-.8-13.06-2.76-26-3.94-39.06-.32-3.58-.54-7.4 1.18-10.56 2-3.65 6-5.43 9.71-6.71 3-1 8.77-3.82 11.76-1.69s2.44 7.66 2.62 10.67q.51 8.23.66 16.47.11 9.16-.15 18.35z" fill="#2e2e3f"/><path d="M154.74 257.47a176.79 176.79 0 01-1.83 22.41c-1 6.49-2.6 12.88-4.18 19.25L142 326.52a3.35 3.35 0 01-.92 1.88 3.41 3.41 0 01-1.45.58l-3.71.82a2.8 2.8 0 01-1.49.06c-1.06-.37-1.27-1.74-1.29-2.86-.39-19 .92-38.06-.24-57-.8-13.06-2.76-26-3.94-39.06-.32-3.58-.54-7.4 1.18-10.56 2-3.65 6-5.43 9.71-6.71 3-1 8.77-3.82 11.76-1.69s2.44 7.66 2.62 10.67q.51 8.23.66 16.47.11 9.16-.15 18.35z" transform="translate(-8.4 -7.53)" fill="url(#f)"/><path d="M135.22 107.11c.13 1.56.26 3.28 1.35 4.41.71.74 1.82 1.24 2 2.25s-.75 2-1.29 2.9c-1.23 2.15-.34 5-1.36 7.23a6.38 6.38 0 01-3 2.88 27.67 27.67 0 01-4 1.5 5.51 5.51 0 00-3.18 2.08c-1.24 2.11.47 5-.54 7.22-.78 1.74-2.89 2.41-4.78 2.7a7.25 7.25 0 01-3 0 5.55 5.55 0 01-3.33-2.92 14.62 14.62 0 01-1.25-4.37c-.84-4.89-1.3-9.85-1.69-14.8-.22-2.8-.4-5.75.83-8.27a13.29 13.29 0 013.73-4.28 15.08 15.08 0 015.86-3.25 18.42 18.42 0 015.93-.1l3.31.31a9.52 9.52 0 012.52.19c1.55.61 1.78 3.02 1.89 4.32z" fill="#98646a"/><path d="M134.14 104.16a3.09 3.09 0 01-.69.88c-3.61 3.53-9.15 4.36-13 7.61a2.62 2.62 0 00-.64.69 3.22 3.22 0 00-.23 1.72 22.52 22.52 0 01-.31 4.56 3 3 0 01-.74-1.67c-.16-.61-.52-1.27-1.14-1.33a1.18 1.18 0 00-1.08.68 3.22 3.22 0 00-.31 1.3 8.3 8.3 0 000 2.77 2.81 2.81 0 001.7 2.1.52.52 0 01.33.19c.13.21-.11.45-.32.59l-5.58 3.57a1.37 1.37 0 01-.69.27c-.43 0-.73-.42-1-.78a28.92 28.92 0 01-3.43-6.68c-.46-1.5-.68-3.06-1.12-4.56-.32-1.1-.76-2.16-1-3.29a12.36 12.36 0 01-.14-3 24.81 24.81 0 01.4-3.33 16.25 16.25 0 013-7.08 13.46 13.46 0 019.62-4.82 17.61 17.61 0 0110.5 2.89c1.97 1.15 7.42 3.51 5.87 6.72z" fill="#3d3d54"/><path d="M142.54 111.69a3.09 3.09 0 01-.69.88c-3.61 3.53-9.15 4.36-13 7.61a2.62 2.62 0 00-.64.69 3.22 3.22 0 00-.23 1.72 22.52 22.52 0 01-.31 4.56 3 3 0 01-.74-1.67c-.16-.61-.52-1.27-1.14-1.33a1.18 1.18 0 00-1.08.68 3.22 3.22 0 00-.31 1.3 8.3 8.3 0 000 2.77 2.81 2.81 0 001.7 2.1.52.52 0 01.33.19c.13.21-.11.45-.32.59l-5.58 3.57a1.37 1.37 0 01-.69.27c-.43 0-.73-.42-1-.78a28.92 28.92 0 01-3.43-6.68c-.46-1.5-.68-3.06-1.12-4.56-.32-1.1-.76-2.16-1-3.29a12.36 12.36 0 01-.14-3 24.81 24.81 0 01.4-3.33 16.25 16.25 0 013-7.08 13.46 13.46 0 019.62-4.82 17.61 17.61 0 0110.5 2.89c1.97 1.15 7.42 3.51 5.87 6.72z" transform="translate(-8.4 -7.53)" fill="url(#g)"/><path d="M180.18 115.8a15.23 15.23 0 013.64-3.48 6.94 6.94 0 014.81-1.14c-.36 2-2.77 2.88-3.73 4.66a1.14 1.14 0 00-.17.54 1.42 1.42 0 00.58.91 11.74 11.74 0 012.72 3.32 5.48 5.48 0 01.46 4.17 7.26 7.26 0 01-3.56 3.65 21.14 21.14 0 00-4.4 2.75c-.8.77-1.6 1.8-2.7 1.74a2.06 2.06 0 01-1.57-1.08 4.67 4.67 0 01-.52-1.88 18.92 18.92 0 014.44-14.16z" fill="#98646a"/><path d="M182.84 135.17a59 59 0 01-6.14 16.65 22.79 22.79 0 01-3.46 5c-3.17 3.25-7.8 4.74-12.34 5s-14.42.11-18.87-.75v.9c-.07 15.71 9.54 44.22 3 49.9-.6.53-5.25 1.38-11.2 2.33-8.53 1.37-19.71 2.93-25.49 4-2 .38-4.46.63-5.85-.89-.11-.12-.2-.25-.3-.38a9.62 9.62 0 01-1-3.92c-.49-3.32-2.14-6.31-3.35-9.43-3.84-9.89-3.31-20.88-5.31-31.3-.75-3.95-1.87-7.82-2.42-11.8a53 53 0 01-.25-11.47c.31-4 1.49-8.59 5.2-10l.15-.06c1.11-.37 2.38-.51 3.15-1.4 1-1.11.66-2.8 1-4.23 0-.13.07-.25.11-.38.83-2.4 3.7-3.74 6.28-3.59 2.31.14 4.06 1.25 6.13 2.12 1.66.7 3.23.46 5 .54 4.55.23 6.63-.37 10.72 1.79.6.32-.14 3.4.44 3.77 1.62 1 7.07.69 8.72 1.68a46.16 46.16 0 0012.12 4.71c3.33.88 7 1.64 10.14.26 2.75-1.21 4.58-3.79 6.28-6.26 2.26-3.31 4.53-6.6 6.79-9.9.61-.89 1.39-1.88 2.47-1.91a3.61 3.61 0 011.81.67l3.81 2.32a6.2 6.2 0 012.46 2.18 5.85 5.85 0 01.2 3.85z" fill="#68e1fd"/><path d="M102.17 216.9a7 7 0 01-1.88-1.49c-1.69-1.88-2.62-4.34-4.25-6.29-1.1-1.33-2.5-2.4-3.49-3.81a15.2 15.2 0 01-1.95-4.43c-4.33-14.33-5.13-29.48-5.31-44.46a26.77 26.77 0 01.86-8.66 13.9 13.9 0 018.28-8.6 4.75 4.75 0 01.73-.23l-.15.06c-3.71 1.4-4.89 6-5.2 10a53 53 0 00.29 11.48c.55 4 1.67 7.85 2.42 11.8 2 10.42 1.47 21.41 5.31 31.3 1.21 3.12 2.86 6.11 3.35 9.43a9.62 9.62 0 00.99 3.9z" fill="#68e1fd"/><path d="M110.57 224.43a7 7 0 01-1.88-1.49c-1.69-1.88-2.62-4.34-4.25-6.29-1.1-1.33-2.5-2.4-3.49-3.81a15.2 15.2 0 01-1.95-4.43c-4.33-14.33-5.13-29.48-5.31-44.46a26.77 26.77 0 01.86-8.66 13.9 13.9 0 018.28-8.6 4.75 4.75 0 01.73-.23l-.15.06c-3.71 1.4-4.89 6-5.2 10A53 53 0 0098.5 168c.55 4 1.67 7.85 2.42 11.8 2 10.42 1.47 21.41 5.31 31.3 1.21 3.12 2.86 6.11 3.35 9.43a9.62 9.62 0 00.99 3.9z" transform="translate(-8.4 -7.53)" fill="url(#h)"/><path d="M131.68 158.15c-.58 4.53-2.41 8.8-3.74 13.18-5 16.64-2.79 35.33-10.72 50.79a6.52 6.52 0 01-1.78 2.39 4.52 4.52 0 01-4.87-.08 9.62 9.62 0 01-1-3.92c-.49-3.32-2.14-6.31-3.35-9.43-3.84-9.89-3.31-20.88-5.31-31.3-.75-3.95-1.87-7.82-2.42-11.8a53 53 0 01-.25-11.47c.31-4 1.49-8.59 5.2-10l.15-.06c1.11-.37 2.38-.51 3.15-1.4 1-1.11.66-2.8 1-4.23 0-.13.07-.25.11-.38-.31 3.89-1.9 10.15-2 11.53-.12 3 2.61 5.5 5.53 6.13s5.94-.17 8.79-1.09a29 29 0 0012.22-7.13c.52 2.35-.39 5.81-.71 8.27z" transform="translate(-8.4 -7.53)" fill="url(#i)"/><path d="M153.41 219.34c-.6.53-5.25 1.38-11.2 2.33.45-3.25 2.13-6.24 3.1-9.39 1.5-4.89 1.28-10.14.73-15.23-1.08-9.84-3.34-19.51-4.79-29.3-.09-.57 6.73 1 9.18.79-.07 15.71 9.57 45.12 2.98 50.8z" transform="translate(-8.4 -7.53)" fill="url(#j)"/><path d="M400.42 205.47c-19.55 30.92-44.49 58-69.55 84.67H223.21a31.86 31.86 0 01-31.87-31.86V53.17a31.86 31.86 0 0131.87-31.86h147.88a127.87 127.87 0 0124.57 19.4c19.35 19.67 31.94 46.23 33.41 73.76 1.73 32.29-11.39 63.68-28.65 91z" fill="#68e1fd"/><path d="M436.77 141.56q-.74 6-2 11.83c-4.61 21.05-14.33 41.25-25.93 59.59-15.59 24.65-34.6 46.87-54.36 68.37q-7.53 8.2-15.19 16.3H231.61a31.86 31.86 0 01-31.87-31.86V60.7a31.86 31.86 0 0131.87-31.86h147.88a127.87 127.87 0 0124.57 19.4 119.11 119.11 0 0126.77 42.09 108 108 0 016.64 31.67 111.46 111.46 0 01-.7 19.56z" transform="translate(-8.4 -7.53)" fill="url(#c)"/><path d="M436.77 141.56H243.89V90.33h186.94a108 108 0 016.64 31.67 111.46 111.46 0 01-.7 19.56z" transform="translate(-8.4 -7.53)" fill="url(#k)"/><rect x="204.13" y="66.59" width="75.68" height="38.19" rx="10.12" fill="url(#l)"/><path d="M434.75 153.39c-4.61 21.05-14.33 41.25-25.93 59.59-15.59 24.65-34.6 46.87-54.36 68.37H243.89v-128z" transform="translate(-8.4 -7.53)" fill="url(#m)"/><path fill="#68e1fd" d="M175.57 39.17l17.87 18.92 3.15-2.36-10.24-23.91-10.78 7.35zM205 24.72l4.47 26.8 4.21-.26 3.15-28.9L205 24.72zM164.28 62.3l25.48 4.99v6.04l-26.54.27 1.06-11.3z"/><rect x="201.59" y="66.59" width="75.68" height="38.19" rx="10.12" fill="#68e1fd"/><rect x="200.01" y="66.59" width="75.68" height="38.19" rx="10.12" fill="url(#n)"/><path fill="url(#o)" d="M201.59 75.66h75.68V96.2h-75.68z"/><path fill="url(#p)" d="M237.85 88.92l-3.94.27 8.93 34.68 3.94-.26 8.41-8.41 10.25 21.29 3.94-.27 8.93-5.78-17.34-18.92 12.09-6.83-35.21-15.77z"/><path fill="#fff" d="M233.91 89.19l8.93 34.68 8.41-8.41 14.19 21.03 8.93-5.79-17.34-18.92 12.09-6.83-35.21-15.76z"/></svg>