<svg xmlns="http://www.w3.org/2000/svg" viewBox="0 0 138.107 184.035"><defs><style>.cls-1{fill:#fff;}</style></defs><g id="Layer_1" data-name="Layer 1"><g id="Gruppe_7" data-name="Gruppe 7"><path id="Pfad_39" data-name="Pfad 39" class="cls-1" d="M226.889,304.666a5.814,5.814,0,0,1-1.725,4.207q-11.419,11.447-22.87,22.857a5.6,5.6,0,0,1-8.319,0q-5.706-5.606-11.306-11.306a5.732,5.732,0,1,1,7.987-8.224q.054.051.1.105c2.152,2.074,4.289,4.171,6.354,6.354.836.908,1.276.79,2.075-.027q8.845-8.942,17.768-17.8a5.759,5.759,0,0,1,9.949,3.821Z" transform="translate(-157.781 -184)"/><path id="Pfad_40" data-name="Pfad 40" class="cls-1" d="M182.66,274.407a5.759,5.759,0,0,1,3.631-9.9,6.021,6.021,0,0,1,4.593,1.893c2.065,2.083,4.2,4.085,6.2,6.245.826.908,1.275.8,2.074,0q8.846-8.942,17.769-17.8a5.632,5.632,0,0,1,6.74-1.212,5.741,5.741,0,0,1,1.479,9.241q-11.433,11.433-22.875,22.861a5.586,5.586,0,0,1-7.89.42,5.739,5.739,0,0,1-.42-.42Q188.283,280.078,182.66,274.407Z" transform="translate(-157.781 -184)"/><path id="Pfad_41" data-name="Pfad 41" class="cls-1" d="M272.9,270.327a5.781,5.781,0,0,1-5.881,5.681c-.076,0-.152,0-.228-.008-3.713.027-7.421,0-11.134,0H244.54a5.76,5.76,0,1,1-.027-11.5q11.115-.027,22.239,0a5.778,5.778,0,0,1,6.138,5.393C272.9,270.04,272.9,270.183,272.9,270.327Z" transform="translate(-157.781 -184)"/><path id="Pfad_42" data-name="Pfad 42" class="cls-1" d="M272.9,316.194a5.783,5.783,0,0,1-5.713,5.851c-.138,0-.276,0-.415-.01H244.522a5.759,5.759,0,1,1,0-11.5q11.115-.027,22.239,0a5.777,5.777,0,0,1,6.13,5.4C272.9,316.025,272.9,316.11,272.9,316.194Z" transform="translate(-157.781 -184)"/><path id="Pfad_43" data-name="Pfad 43" class="cls-1" d="M284.03,206.976c-5.814-.027-11.628,0-17.442,0-1.67,0-3.857.563-4.856-.267s-.218-3.141-.331-4.793v-.359a5.778,5.778,0,0,0-5.456-6.082,5.693,5.693,0,0,0-.64,0c-3.59,0-7.193-.037-10.783,0a1.7,1.7,0,0,1-1.857-1.158,17.224,17.224,0,0,0-31.566.027,1.679,1.679,0,0,1-1.874,1.122c-3.659-.037-7.312-.046-10.966,0a5.709,5.709,0,0,0-5.9,5.512c0,.129,0,.259,0,.388,0,1.361-.082,2.764,0,4.135.082,1.148-.245,1.5-1.452,1.488-6.954-.063-13.9-.036-20.846-.027a11.515,11.515,0,0,0-12.255,12.254q-.027,14.838,0,29.665V355.849a11.468,11.468,0,0,0,6.917,11.2c.79.377,1.625.663,2.433.99H286.173c.072-.082.145-.214.24-.241a11.347,11.347,0,0,0,9.459-11.8V218.822a11.469,11.469,0,0,0-11.08-11.845Q284.411,206.963,284.03,206.976Zm-80.193,9.9c.136-2.755.109-5.519,0-8.265-.045-1.284.2-1.752,1.616-1.7,3.177.127,6.354.054,9.531.036a5.773,5.773,0,0,0,6.134-5.388c.01-.154.014-.308.011-.462a5.751,5.751,0,0,1,11.5-.082h0a5.786,5.786,0,0,0,5.621,5.948,5.647,5.647,0,0,0,.624-.016c3,0,6,.136,8.992-.045,1.815-.109,2.169.5,2.065,2.169a65.581,65.581,0,0,0,0,7.366c.081,1.553-.25,2.1-1.975,2.075-7.062-.118-14.133-.055-21.2-.055s-14.143-.027-21.214.027C204.246,218.518,203.765,218.328,203.837,216.875Zm78.791,139.7q-55.707-.069-111.428,0c-1.434,0-1.884-.241-1.875-1.793q.069-67.326,0-134.639c0-1.461.454-1.725,1.784-1.706,6.531.063,13.062.081,19.589,0,1.47,0,1.815.453,1.7,1.783a31.614,31.614,0,0,0,0,3.59,5.782,5.782,0,0,0,6.182,6.173H255.01a5.829,5.829,0,0,0,6.412-5.179,5.913,5.913,0,0,0,.011-1.121c0-1.67-.59-3.912.249-4.861.971-1.094,3.259-.313,4.993-.331,5.392-.045,10.784.036,16.171-.054,1.361,0,1.643.358,1.634,1.67q-.054,33.795-.027,67.585,0,33.531.036,67.044c-.036,1.475-.363,1.857-1.866,1.857Z" transform="translate(-157.781 -184)"/><path id="Pfad_44" data-name="Pfad 44" class="cls-1" d="M226.889,304.666a5.814,5.814,0,0,1-1.725,4.207q-11.419,11.447-22.87,22.857a5.6,5.6,0,0,1-8.319,0q-5.706-5.606-11.306-11.306a5.732,5.732,0,1,1,7.987-8.224q.054.051.1.105c2.152,2.074,4.289,4.171,6.354,6.354.836.908,1.276.79,2.075-.027q8.845-8.942,17.768-17.8a5.759,5.759,0,0,1,9.949,3.821Z" transform="translate(-157.781 -184)"/><path id="Pfad_45" data-name="Pfad 45" class="cls-1" d="M182.66,274.407a5.759,5.759,0,0,1,3.631-9.9,6.021,6.021,0,0,1,4.593,1.893c2.065,2.083,4.2,4.085,6.2,6.245.826.908,1.275.8,2.074,0q8.846-8.942,17.769-17.8a5.632,5.632,0,0,1,6.74-1.212,5.741,5.741,0,0,1,1.479,9.241q-11.433,11.433-22.875,22.861a5.586,5.586,0,0,1-7.89.42,5.739,5.739,0,0,1-.42-.42Q188.283,280.078,182.66,274.407Z" transform="translate(-157.781 -184)"/><path id="Pfad_46" data-name="Pfad 46" class="cls-1" d="M238.4,270.182a5.77,5.77,0,0,1,5.853-5.684c.088,0,.177,0,.265.01q11.115-.027,22.239,0a5.76,5.76,0,0,1,.757,11.5,5.965,5.965,0,0,1-.72,0c-3.713.027-7.421,0-11.134,0H244.54a5.8,5.8,0,0,1-6.131-5.441C238.4,270.437,238.4,270.309,238.4,270.182Z" transform="translate(-157.781 -184)"/><path id="Pfad_47" data-name="Pfad 47" class="cls-1" d="M272.9,316.194a5.783,5.783,0,0,1-5.713,5.851c-.138,0-.276,0-.415-.01H244.522a5.759,5.759,0,1,1,0-11.5q11.115-.027,22.239,0a5.777,5.777,0,0,1,6.13,5.4C272.9,316.025,272.9,316.11,272.9,316.194Z" transform="translate(-157.781 -184)"/><path id="Pfad_48" data-name="Pfad 48" class="cls-1" d="M226.866,259.2a5.65,5.65,0,0,1-1.7,3.654q-11.433,11.432-22.875,22.861a5.587,5.587,0,0,1-7.89.42,5.739,5.739,0,0,1-.42-.42c-3.8-3.736-7.557-7.512-11.315-11.3a5.759,5.759,0,0,1,3.631-9.9,6.021,6.021,0,0,1,4.593,1.893c2.065,2.083,4.2,4.084,6.2,6.245.826.907,1.275.8,2.074,0q8.845-8.941,17.769-17.8a5.633,5.633,0,0,1,6.74-1.212A5.7,5.7,0,0,1,226.866,259.2Z" transform="translate(-157.781 -184)"/><path id="Pfad_49" data-name="Pfad 49" class="cls-1" d="M226.889,304.666a5.814,5.814,0,0,1-1.725,4.207q-11.419,11.447-22.87,22.857a5.6,5.6,0,0,1-8.319,0q-5.706-5.606-11.306-11.306a5.732,5.732,0,1,1,7.987-8.224q.054.051.1.105c2.152,2.074,4.289,4.171,6.354,6.354.836.908,1.276.79,2.075-.027q8.845-8.942,17.768-17.8a5.759,5.759,0,0,1,9.949,3.821Z" transform="translate(-157.781 -184)"/><path id="Pfad_50" data-name="Pfad 50" class="cls-1" d="M272.9,270.327a5.781,5.781,0,0,1-5.881,5.681c-.076,0-.152,0-.228-.008-3.713.027-7.421,0-11.134,0H244.54a5.76,5.76,0,1,1-.027-11.5q11.115-.027,22.239,0a5.778,5.778,0,0,1,6.138,5.393C272.9,270.04,272.9,270.183,272.9,270.327Z" transform="translate(-157.781 -184)"/><path id="Pfad_51" data-name="Pfad 51" class="cls-1" d="M272.9,316.194a5.783,5.783,0,0,1-5.713,5.851c-.138,0-.276,0-.415-.01H244.522a5.759,5.759,0,1,1,0-11.5q11.115-.027,22.239,0a5.777,5.777,0,0,1,6.13,5.4C272.9,316.025,272.9,316.11,272.9,316.194Z" transform="translate(-157.781 -184)"/></g></g></svg>