<svg xmlns="http://www.w3.org/2000/svg" viewBox="0 0 264.15 37.17"><defs><style>.cls-1{fill:#fff;}.cls-2{isolation:isolate;font-size:21px;fill:#faa401;font-family:Arial-Bold, Arial;font-weight:700;}.cls-3{letter-spacing:0.03em;}</style></defs><g id="Ebene_2" data-name="Ebene 2"><g id="Ebene_1-2" data-name="Ebene 1"><g id="Gruppe_26" data-name="Gruppe 26"><path class="cls-1" d="M183.39,10.66c1.23-.52,4.28-.3,6.39-.52.07.15-.15.15-.29.15-.15.37,1.52-.45,1.23.22,1.17.08,3-.3,3.7,0-1.23.08-2.47.08-3.7.15-1.09-.22-1.38.08-2.47-.07-.14,0,.8-.3.95-.15-.58-.37-2.11.07-4,0-.07.3,1.09.07,1.53.07C187.09,11,184.41,10.59,183.39,10.66Z"/><path class="cls-1" d="M192.18,7.46c.58-.3-2.47,0-3.35,0,0-.07-.07-.15-.28-.15C188.67,7.91,191.09,7.39,192.18,7.46Z"/><path class="cls-1" d="M189.85,9.32c-1.52.15-2.32-.3-3,.23C187.67,9.47,189.42,9.62,189.85,9.32Z"/><path class="cls-1" d="M200.89,9.92a17.57,17.57,0,0,0-5.22.08,13.74,13.74,0,0,0,5.23-.08Z"/><path class="cls-1" d="M129.5,8.88c0,.23-.15.3-.29.45.94,0,2.4-.9,3.63-.3-.29-.15-.94.07-.94.07.94.08,2.17.15,3.12.23s1.6.22,1.38.52a10.87,10.87,0,0,1,3-.37c-.51-.08.14-.15.29-.3a30.45,30.45,0,0,1-5.4-.18c0-.23.51-.08.58-.3-2.47-.15-11.4.29-5.37.15Z"/><path class="cls-1" d="M145.26,9.48c1.52.08,6.75,0,2.76-.07-.87-.23-2.18,0-3-.45-1.16.37-4-.15-4.29.6,1-.3,6,.6,4.58-.07Z"/><path class="cls-1" d="M179.47,10.52c-1.38-.07-2.26-.22-3.05.23.87-.16,2.61.06,3.05-.24Z"/><path class="cls-1" d="M159.57,8.29a6.85,6.85,0,0,0-2.76.45,5.25,5.25,0,0,0,2.76-.46Z"/><path class="cls-1" d="M212.58,6.8c-.14-.3-1.52-.3-2.76-.15a16.07,16.07,0,0,0-2.4.3c1.75,0,3.86-.31,5.16-.16Z"/><path class="cls-1" d="M170.82,8.81c-1.52-.15-3.7,0-5.15-.22.8.43,3.92.43,5.15.21Z"/><path class="cls-1" d="M223.67,7.92a17.72,17.72,0,0,0,4.21-.75c-3.13.6-6.76.45-8.94,1.12,1.89-.23,3.35-.31,4.73-.38Z"/><path class="cls-1" d="M237.42,4.79,237,5c.21-.08.5-.15.43-.23Z"/><path class="cls-1" d="M236.91,5h.15a.12.12,0,0,0-.14,0h0Z"/><path class="cls-1" d="M215.05,7.4c.44-.45,4.21-.23,3.27-.67C218.18,7,214.25,6.87,215.05,7.4Z"/><path class="cls-1" d="M230.74,5.46a6.69,6.69,0,0,0-2.32.6A26.86,26.86,0,0,0,233.67,5c-.87.13-2,.28-2.9.43Z"/><path class="cls-1" d="M240.67,4.12c-.88.22-2.55.22-2.91.6.87-.24,2.54-.24,2.91-.61Z"/><path class="cls-1" d="M245.19,3.82c2.62-.6,5.23-1.19,8.28-1.71a9.26,9.26,0,0,0-2.83.07c-1.09.15-2.32.37-3.56.6,3.49-1,7.41-1,11-1.93.58-.23-.07-.67.36-.82,1.46-.15,1.82.74,3.42.52-.29.45-1.46.74-2.11,1.19.65-.52-.29-.45-.73-.52a1.42,1.42,0,0,0-.94.6c.22-.45-1.09-.23-2.47,0-.73.89,1,.6,1.45,1.26a6.84,6.84,0,0,1-2.32.82c-.87.23-1.6.52-1.45,1-.73.08-1.53.22-2.4.3a13,13,0,0,1-2.33.22c.44-.52,1.53-.22,2.33-.44a16.43,16.43,0,0,0-4.43-.15L243.81,5c-.44.08-.94.15-1.45.22s-1,.15-1.46.23c-4,.6-8.35,1.41-12.27,1.86,3.63-.89,5.81-1.19,8.13-2.16a77.4,77.4,0,0,0,8.43-1.34Z"/><path class="cls-1" d="M250.42,4.34c.73-.07,1.82.37,2.62-.3C252.24,4.19,250.78,4,250.42,4.34Z"/><path class="cls-1" d="M234.73,4.57a31.77,31.77,0,0,1,4.65-.67c-.72-.46-5.15.51-4.65.66Z"/><path class="cls-1" d="M221.59,6.58l-2.4.22c-.29.67,2.25-.22,2.4.22-.51.08-2.69.15-1.82.3,2.33-.15,7.85-.67,7.7-.89-.5,0-1.74.37-1.81.07A18.77,18.77,0,0,1,228,5.68c-.94-.44-1.74.75-2.69.3-.21-.37,1.38,0,1.17-.37l-4,.45c-1.31.15-2.54.3-3.7.52A12.18,12.18,0,0,1,221.59,6.58Z"/><path class="cls-1" d="M248.32,1.14a4.56,4.56,0,0,1,1.45-.37l1.38-.22A4.22,4.22,0,0,0,253,0c-1.75.23-3,.08-4.65.15-.22.37-.51.59-.07,1Z"/><path class="cls-1" d="M201.18,10.6a6.51,6.51,0,0,0-2.51.4,5.1,5.1,0,0,0,2.47-.38Z"/><path class="cls-1" d="M89.26,28.6a24.77,24.77,0,0,0-5.37-.37A43.77,43.77,0,0,0,89.26,28.6Z"/><path class="cls-1" d="M77.93,13.94a11.26,11.26,0,0,0,2.83-.3c-.87.07-3.7-.37-3.41-.08.44.08,1.16.08,1.24.3C78.08,13.79,77.35,13.71,77.93,13.94Z"/><path class="cls-1" d="M70.09,22.05c-2-.44-3.41-.37-.66,0,1.38.15,3.49.75,4.36.52-.8.08-.87-.74-1.23-.3.22,0,.36.08.29.23C72.27,21.91,71.32,22.2,70.09,22.05Z"/><path class="cls-1" d="M262.4,22.65c.08.23,1.09-.15,1.31-.07-3.56,1.41-4.36,3.65-3.2,5.06a5.59,5.59,0,0,0-3.34,1.64,5,5,0,0,1-3.5,1.56c-.8.23.44.3.73.3-1.6.23-3.41.52-5.45.9l-6.32.89c-4.35.6-8.78,1-12.34,1.34-.58-.22,0-.22-.07-.6-11.84,1-23.39,1.79-34.79,2.46s-22.73,1.19-34.06,1c-3.05-.07-6-.14-9.16-.3-13.72-.44-28-1.19-41.54-2.68-1.38-.14-3.34-.37-5.3-.52s-4-.3-5.45-.37c-.36-.07-.21-.3-.29-.45-.87.23-2.76-.22-4.14-.3-.14-.22,3,.15,3.85-.07-.8-.37-2.54-.15-4.72-.45a9.84,9.84,0,0,1,2.54-.15,18.9,18.9,0,0,0-4.79-.67,43.81,43.81,0,0,1-5.59-.6c-.66,0-.58-.3-.58-.52-2.25-.3-4.14-.22-6.61-.67a24.2,24.2,0,0,1,6.53.08c2.62.3,5.45.74,8.07,1-1-.23-2-.38-3.13-.6s-2.32-.38-3.48-.52c-2.4-.3-4.94-.6-7.12-1a51.44,51.44,0,0,1,6.9.52c2.18.3,4.29.67,6,.89.36-.37-.66-.3-1.24-.37,2,.07,7.34.74,8.79,1a7.27,7.27,0,0,1,1.53-.3,15.46,15.46,0,0,1,1.67-.15c1.09.67,5.52.67,8.42,1.12-1-.6-3.34-.67-5.3-.89-.07-.08.8-.15,1-.08-1-.52-3.78-.74-6.76-1a43.41,43.41,0,0,1-7.7-1l-2-.22-2-.22c-2.4-.3-.29-.3,1,0,2.76.3,4.79.6,6.9.74-1.24-.15-3-.52-4.72-.89-.88-.15-1.75-.37-2.62-.6s-1.6-.37-2.32-.52c-.29-.08-4.87-.52-2.76-.52a25.63,25.63,0,0,1,4,.44,19.82,19.82,0,0,0,4.14.38c-1.09-.23-2.47-1-3.7-.75a27.93,27.93,0,0,0-4.5-1.12c-1.74-.3-3.7-.52-5.66-.81s-4-.53-6-.82l-2.81-.39c-.87-.22-1.74-.37-2.54-.6-.58-.15-3-.45-2.18-.52,4.94,1,10.17,1.79,15.54,2.53a14.06,14.06,0,0,0-4-.89c0-.38,3.34.07,1-.45a15.62,15.62,0,0,1,2.46.22c1,.15,2,.15,3.13.3,2.25.23,4.65.52,6.82.82a47.55,47.55,0,0,0-4.72-1.11c-.94-.15-2-.38-3-.53l-1.51-.22a10,10,0,0,1-1.52-.3c-4.14-.74-8.07-1.34-9.52-1.86-1.31-.15-2.76-.37-3.78-.37-1.08-.6,1.24-.08,1.89,0a8.64,8.64,0,0,0-3-1c.73-.45,2.91.75,4.94.82-3-.15.44.52,1.24.07a30.34,30.34,0,0,0-3-.81c.07-.3,1.3.14,1.88.14-2.1-1-7.4-1.56-9.15-2.15-.65,0-2.4-.6-.87-.3,2.69.44,7.19,1.71,8.35,1.34-1.3-.38-2.76-.82-4.21-1.2a22.87,22.87,0,0,0-2.32-.52c-.8-.15-1.6-.37-2.4-.52-3.2-.74-6.54-1.41-9.59-2-1.67-.3-2.32-.74-.29-.22.51.07-.22-.3.36-.22,3.56.81,6.69,1.48,10.1,2.3,1.67.38,3.42.75,5.3,1.12s3.85.74,6,1.12c-.65-.45-3.27-.45-3.92-1,.51,0,2.11.22,4,.52a38.9,38.9,0,0,1,5.23,1c-.72-.37.58-.08,2.18.3.8.15,1.75.37,2.62.45a10.27,10.27,0,0,0,2,.07c-.72-.15-1.6-.3-2.47-.52s-1.89-.37-2.9-.6a43.7,43.7,0,0,0-6.25-.75c-2.76-.89-6.39-1.93-10.46-2.9-2-.52-4.14-1-6.39-1.49s-4.5-.81-6.75-1.34c.07-.07.36-.07.36-.22-1.52-.3-6.9-1.71-3.56-1.12,4.8,1,18,4.1,24.26,5-.07.15-.58,0-.65.15,1.67.45,2,.08,3.41.3.8.3-1.24,0-1.6,0,1.74.89,4.14.52,5.52.52a58.59,58.59,0,0,1,6.46,1c2.13.46,4.36.52,5.23-.07,1.09,1.11,2.18,0,4.29.52.07.44-1.38-.08-1.6.22s1.6,0,.58.22a34.88,34.88,0,0,1,7.77.45c1.38.15,2.76.37,4.21.52a29.78,29.78,0,0,0,4.43.15,49.52,49.52,0,0,0-5.81-.82c-2.18-.3-4.43-.6-6.39-1,.14-.3,1.52.08,2.18.08a19.87,19.87,0,0,0-4.58-.9c-1.81-.22-3.77-.44-5.52-.67l-1.81-.22c-.73-.07-.51-.22,0-.15,1,.15,2,.22,3.05.37.94-.07,3.12.38,4.65.3.65,0,.43.3.87.38,1.3,0,2.9.14,4.57.3-.72-.53-2.68-.53-4.28-.75-.08-.6.65.15,1.52,0,.37-.45-.94-.3-1.52-.45,1.38-.22,2.9.38,4.28.3-2.47-.81-6.32-.74-9.15-1a16,16,0,0,0,2.47.52l1.74.15a6.87,6.87,0,0,1-1.81.07c-.73-.07-1.53-.15-2.4-.3-1.67-.22-3.49-.6-4.94-.67.36-.3,1.45-.15,2.47,0-.08-.37-1.53-.22-2.11-.37a17,17,0,0,1,4.72.15c.87.15,1.82.22,2.76.37a19.61,19.61,0,0,0,3,.22c-3-.82-6-.52-8.21-1.26a10.4,10.4,0,0,1,3,.22c.15-.22-.21-.3-.58-.37a14.57,14.57,0,0,1,2.47.15c1,.07,2,.22,3,.3,2.11.22,4.43.52,6.46.67-2-.9-6.1-1-9.44-1.42-4-.44-1.89-.44,1-.07a59.11,59.11,0,0,0-6-1c-2.07-.25-3.92-.52-5.88-.9.94-.44,3.2.08,5.81.3a8.09,8.09,0,0,0-3-.68c2.11.08,4.87.45,7.84.82s6,.75,8.57.82c-3.2-.37-6.1-1.19-8.5-1-.29-.67-1.67,0-.87-.67-1.81-.15-3.77-.23-5.81-.37l-3.12-.23c-1-.07-2.11-.22-3.12-.3-2.11-.22-4.14-.52-6-.82A40.27,40.27,0,0,1,68.48,8c-1.52-.37,2.33.07,2.47.15,1.74.3,3.78.52,5.88.82s4.36.52,6.61.82,4.58.52,6.9.81l3.42.45c1.09.15,2.18.23,3.26.37-.87-.44-3.12-.37-4.5-.6-.21-.15.44-.07,1.31,0s1.89.23,2.4.23c-1-.3-2-.52-3.12-.75s-2.25-.44-3.41-.6-2.4-.37-3.64-.6-2.54-.37-3.84-.67c0-.22,1.81.08.36-.22a33.94,33.94,0,0,1,5.52.3c1.89.22,3.85.45,6.24.6-.8-.37-2.9-.37-4.21-.67-2.76-.37.73-.15,1.82.07,2.18.3,4.21.45,6.68.67s5.37.45,9.37.75c-.07-.3-1.53-.15-2.11-.3,3.93.22,8.36-.23,12.79.22-.08.6-1.82.3-3.05.22a81.66,81.66,0,0,0,10,.67,32.24,32.24,0,0,0,8.86-1c2.83.15,4.21.07,7.33.22.8,0,.37.15.29.3,3.64-.15,7.92-.07,12.13.15s8.36.3,11.7.15c-3-.3-5.16-.15-8.28-.45.29-.22,1.38-.07,1.52-.45a37.67,37.67,0,0,0,8.35.6c3.2,0,6.32-.07,8.5.45a94.21,94.21,0,0,0-9.8-.15c-.07.23.22.3.66.3-2.62.45-5.38-.22-8.28.15a16,16,0,0,0,4.72.52c1.67,0,3.41-.07,5,0,4.36.08,8.28.22,13.15.15a9.46,9.46,0,0,0-2.76-.22c3.12-.37,9.22.3,12.56-.52,1.16.37,3.7.3,6.1.22a41.74,41.74,0,0,1,5.59-.22c.37-.23,1.24-.23,1.16-.67a36,36,0,0,0,9.08-.67,70.91,70.91,0,0,0-8.5.22c2.86-.82,7.22-.82,11.51-1.41-.08.23-.73.15-1.16.23,5.44-.15,11.69-.3,16.41-1.34.07-.37-1.09.52-.94-.15,1.52-.07,2.1-.45,3.48-.6,0,.3-1,.22-1.16.45,2-.23,4-.45,5.81-.52l2.76-.23L244.11,6c.87-.08,1.74-.15,2.61-.3s1.74-.23,2.62-.37a37.23,37.23,0,0,0,5.44-1.12c1.17.3,3.42-.3,4.8-.15-.95.37.14.37-1.17.3-.43.75.44,1.19,1.31,1.79s1.53,1.26.73,2.45c1.09.08.65.53,1.45.9-2,.52-.51,1.71-2,2.31.15.14.58,0,.94,0s.73-.08.66.22c-.58.3.07.89-.22,1.71.29.23.87.15,1.6,0,0,.52-1.31.89-2,1.27,1.89-.08.65,1.11,2.61,1.26-.5,1.34.15,2.16.51,3a2.06,2.06,0,0,1,.07,1.34,6.55,6.55,0,0,1-1.74,2Z"/><path class="cls-1" d="M102.05,16.85c-.08-.3.5-.3.07-.45-.44.37-3.12-.37-3.12,0a14.49,14.49,0,0,0,3,.44Z"/><path class="cls-1" d="M102.92,16.92c-.66.08-3.42-.3-2.47.22C100.88,16.77,102.77,17.36,102.92,16.92Z"/><path class="cls-1" d="M93.33,20.12c-2-.15-4.72-.74-5.88-.74-.08.15-.51.22.29.3a14.23,14.23,0,0,0,3.12.37,10.06,10.06,0,0,1,1.45.07c.51,0,1.16.08,1.89.15C95.73,20.49,94,20.12,93.33,20.12Z"/><path class="cls-1" d="M142.13,11.56a5,5,0,0,0-3,.52A10.92,10.92,0,0,0,142.13,11.56Z"/><path class="cls-1" d="M146.13,12.08c-.95.08-2.62-.22-3,.08C144.07,12.08,145.74,12.45,146.13,12.08Z"/><path class="cls-1" d="M147.07,11.41c2.54-.07,5.38-.07,6.39-.52C151.14,11.18,149.18,10.89,147.07,11.41Z"/><path class="cls-1" d="M154.67,11.93c-1.45.08-4.07-.3-4.58.23C150.82,12,156.56,12.16,154.67,11.93Z"/><path class="cls-1" d="M133.42,9.77c-2.4.08-6.39-.3-6.46,1.05C128.48,10.29,133.49,10.14,133.42,9.77Z"/><path class="cls-1" d="M78.51,27.79a11.81,11.81,0,0,0,2.91,0c-.8,0-2.25-.52-2.54-.22C79.46,27.71,78.73,27.71,78.51,27.79Z"/><path class="cls-1" d="M74.15,14.09c1.31.37,4.58.89,4.65.22-1.23.23-3.48-.67-4.64-.22Z"/><path class="cls-1" d="M87.81,16.55c.29-.3,1.74.15,1.89-.23l-1.82-.22C88,16.4,87.37,16.47,87.81,16.55Z"/><path class="cls-1" d="M173.67,11.34c-.5-.08-.94-.45-1.23,0,.43.3.73-.23.94.14l2.47-.07c-.21-.3-1.52,0-2.17-.08Z"/><path class="cls-1" d="M81.93,16.55c.29.07.58.07.94.15C86.87,17.07,83.53,16.1,81.93,16.55Z"/><path class="cls-1" d="M76.67,16c1.67.07,4.28.6,4.64.22C79.86,16.22,77.76,15.77,76.67,16Z"/><path class="cls-1" d="M257.76,30.54a3.75,3.75,0,0,1,1.52-.23,5.67,5.67,0,0,0,2.4-.52C261.53,28.68,257.47,30.17,257.76,30.54Z"/><path class="cls-1" d="M78.15,7.61a8.81,8.81,0,0,0-2.76-.08C76.55,7.61,77.79,7.91,78.15,7.61Z"/><path class="cls-1" d="M36.46,5a23.8,23.8,0,0,0-4.79-1.11C33.67,4.34,35.08,5.3,36.46,5Z"/><path class="cls-1" d="M51.28,3.07l35.39,5c-1.46-.07-3.56-.6-4.5-.44,1.45.08,3.55.6,4.5.45Z"/><path class="cls-1" d="M88.9,5.08c-1.67,0-3.78-.3-4.29.3,36.39,4.69,39.51,5.51,39.66,4.69Z"/><path class="cls-1" d="M0,5.6c2.11.3,5.45,1.64,5.52,1,33.41,5,31,3.79,29.85,4Z"/><path class="cls-1" d="M21.79,11.18c1.24,0,2.18.82,2.76.52,35.12,4.77,31.89,4.1,32.61,4.47Z"/><path class="cls-1" d="M10.1,6.19c-1.16-.3-2.18-.6-3.12-.82-.51-.07-1-.22-1.46-.3L4,4.85c-4-.89.07.08,2.1.67,1.46.37,3.27,1.42,3.93,1,33.55,4.62,34.57,4.55,35.44,4.62Z"/><g id="Die_Gründer" data-name="Die Gründer"><text class="cls-2" transform="translate(123.09 29.25)">Die Gründer</text></g></g></g></g></svg>