<svg xmlns="http://www.w3.org/2000/svg" width="232.558" height="37.144" viewBox="0 0 232.558 37.144">
  <g id="Gruppe_26" data-name="Gruppe 26" transform="translate(-617.577 117.255)">
    <path id="Pfad_286" data-name="Pfad 286" d="M517.485,1798.94c1.235-.521,4.285-.3,6.391-.521.073.149-.145.149-.29.149-.145.372,1.525-.447,1.235.223,1.162.074,3.05-.3,3.7,0-1.235.074-2.469.074-3.7.149-1.089-.223-1.38.075-2.469-.074-.145,0,.8-.3.944-.149-.581-.372-2.106.074-3.994,0-.073.3,1.089.074,1.525.074.363.447-2.324.074-3.341.149Zm8.788-3.2c.581-.3-2.469,0-3.341,0,0-.075-.073-.149-.29-.149.145.6,2.542.074,3.631.149Zm-2.324,1.861c-1.525.149-2.324-.3-3.05.223C521.77,1797.749,523.513,1797.9,523.948,1797.6Zm11.039.6a17.7,17.7,0,0,0-5.229.074A13.777,13.777,0,0,0,534.988,1798.2Zm-71.392-1.042c0,.224-.145.3-.291.447.944,0,2.4-.894,3.631-.3-.29-.149-.944.075-.944.075.944.075,2.179.149,3.123.224s1.6.223,1.38.521a11.018,11.018,0,0,1,3.05-.372c-.508-.074.145-.149.291-.3a30.4,30.4,0,0,1-5.447-.149c0-.223.508-.074.581-.3C466.5,1796.856,457.567,1797.3,463.6,1797.153Zm15.76.6c1.525.074,6.754,0,2.76-.074-.871-.223-2.179,0-3.05-.447-1.162.372-3.994-.149-4.285.6,1.017-.3,6.028.6,4.575-.074Zm34.207,1.042c-1.38-.074-2.252-.223-3.05.223C511.384,1798.866,513.127,1799.089,513.563,1798.791Zm-19.9-2.233a6.912,6.912,0,0,0-2.76.447A5.161,5.161,0,0,0,493.663,1796.558Zm53.018-1.489c-.145-.3-1.525-.3-2.76-.149a16.506,16.506,0,0,0-2.4.3C543.267,1795.218,545.373,1794.92,546.681,1795.069Zm-41.761,2.01c-1.525-.149-3.7,0-5.156-.224C500.563,1797.3,503.685,1797.3,504.92,1797.079Zm52.872-.894a17.9,17.9,0,0,0,4.212-.744c-3.123.6-6.754.447-8.933,1.117C554.96,1796.334,556.413,1796.26,557.793,1796.186Zm13.726-3.127-.436.223C571.3,1793.208,571.592,1793.133,571.519,1793.059Zm-.508.223h.145A.1.1,0,0,0,571.011,1793.282Zm-21.861,2.382c.436-.447,4.212-.223,3.268-.67-.145.223-4.067.149-3.268.67Zm15.687-1.935a6.529,6.529,0,0,0-2.324.6,27.2,27.2,0,0,0,5.229-1.042C566.871,1793.431,565.781,1793.58,564.837,1793.729Zm9.877-1.34c-.872.223-2.542.223-2.905.6C572.681,1792.761,574.351,1792.761,574.715,1792.389Zm4.576-.3c2.614-.6,5.229-1.191,8.279-1.713a9.259,9.259,0,0,0-2.832.075c-1.089.149-2.324.372-3.559.6,3.486-.968,7.408-1.042,11.039-1.936.581-.224-.073-.67.363-.819,1.453-.149,1.816.745,3.413.521-.29.447-1.453.744-2.106,1.191.654-.521-.291-.447-.726-.521a1.4,1.4,0,0,0-.944.6c.218-.447-1.089-.224-2.469,0-.726.893,1.017.6,1.453,1.266a7.069,7.069,0,0,1-2.324.819c-.871.223-1.6.521-1.453.968-.726.074-1.525.223-2.4.3a13.532,13.532,0,0,1-2.324.223c.436-.521,1.525-.223,2.324-.447a16.91,16.91,0,0,0-4.43-.149c-.872.074-1.743.149-2.687.223-.436.075-.944.149-1.453.223s-1.017.149-1.453.224c-3.994.6-8.352,1.414-12.274,1.861,3.631-.893,5.81-1.191,8.134-2.159a77.725,77.725,0,0,0,8.425-1.34Zm5.229.521c.726-.075,1.816.372,2.615-.3C586.335,1792.463,584.882,1792.314,584.519,1792.612Zm-15.687.224a33.229,33.229,0,0,1,4.648-.67C572.754,1791.719,568.323,1792.687,568.832,1792.836Zm-13.145,2.01-2.4.223c-.291.67,2.251-.223,2.4.223-.508.075-2.687.149-1.816.3,2.324-.149,7.844-.67,7.7-.893-.508,0-1.743.372-1.816.075a17.065,17.065,0,0,1,2.324-.819c-.944-.447-1.743.744-2.687.3-.218-.372,1.38,0,1.162-.372-1.38.149-2.687.3-3.994.447s-2.542.3-3.7.521a11.937,11.937,0,0,1,2.833,0Zm26.727-5.434a4.641,4.641,0,0,1,1.453-.372c.508-.075.944-.149,1.38-.224a4.182,4.182,0,0,0,1.888-.521c-1.743.223-3.05.075-4.648.149C582.268,1788.815,581.977,1789.039,582.413,1789.411Zm-47.135,9.454a6.639,6.639,0,0,0-2.469.372A5.031,5.031,0,0,0,535.278,1798.866ZM423.36,1816.882a24.039,24.039,0,0,0-5.374-.372A46.463,46.463,0,0,0,423.36,1816.882Zm-11.33-14.666a11.05,11.05,0,0,0,2.832-.3c-.872.074-3.7-.372-3.414-.074.436.074,1.162.074,1.235.3C412.176,1802.067,411.449,1801.992,412.03,1802.216Zm-7.844,8.115c-1.961-.447-3.413-.372-.654,0,1.38.149,3.486.744,4.358.521-.8.074-.872-.745-1.235-.3.218,0,.363.075.291.224C406.365,1810.182,405.421,1810.479,404.187,1810.331Zm192.316.6c.073.223,1.089-.149,1.307-.074-3.559,1.414-4.358,3.648-3.2,5.062a5.578,5.578,0,0,0-3.341,1.638,4.951,4.951,0,0,1-3.486,1.563c-.8.224.436.3.726.3q-2.4.335-5.447.894-3.05.447-6.319.893c-4.358.6-8.788,1.042-12.346,1.34-.581-.224,0-.224-.073-.6-11.838.968-23.386,1.787-34.788,2.457-11.33.67-22.732,1.191-34.062.968-3.05-.074-6.028-.149-9.151-.3-13.727-.447-28.034-1.191-41.543-2.68-1.38-.149-3.341-.372-5.3-.521s-3.994-.3-5.447-.372c-.363-.075-.218-.3-.291-.447-.871.223-2.76-.223-4.14-.3-.145-.224,3.05.149,3.849-.074-.8-.372-2.542-.149-4.721-.447a9.18,9.18,0,0,1,2.542-.149,18.538,18.538,0,0,0-4.793-.67,46.056,46.056,0,0,1-5.592-.6c-.654,0-.581-.3-.581-.521-2.251-.3-4.14-.224-6.609-.67a24.173,24.173,0,0,1,6.536.075c2.615.3,5.447.745,8.062.968-.944-.223-2.034-.372-3.123-.6-1.162-.224-2.324-.372-3.486-.521-2.4-.3-4.939-.6-7.117-.968a52.772,52.772,0,0,1,6.9.521c2.179.3,4.285.67,6.028.893.363-.372-.654-.3-1.235-.372,1.961.075,7.335.745,8.788,1.042a6.987,6.987,0,0,1,1.525-.3,15.294,15.294,0,0,1,1.67-.149c1.089.67,5.52.67,8.425,1.117-1.017-.6-3.341-.67-5.3-.894-.073-.075.8-.149.944-.075-1.017-.521-3.777-.745-6.754-.968a44.119,44.119,0,0,1-7.7-.968l-2.034-.223-2.034-.224c-2.4-.3-.29-.3.944,0,2.76.3,4.793.6,6.9.745-1.235-.149-2.978-.521-4.721-.894-.872-.149-1.743-.372-2.615-.6s-1.6-.372-2.324-.521c-.29-.074-4.866-.521-2.76-.521a26.188,26.188,0,0,1,3.994.447,19.467,19.467,0,0,0,4.14.372c-1.089-.223-2.469-.968-3.7-.744a26.791,26.791,0,0,0-4.5-1.117c-1.743-.3-3.7-.521-5.665-.819s-3.994-.521-5.955-.819c-.944-.149-1.888-.3-2.76-.447-.872-.223-1.743-.372-2.542-.6-.581-.149-3.05-.447-2.179-.521,4.939,1.042,10.168,1.787,15.542,2.531a14.058,14.058,0,0,0-3.994-.893c0-.372,3.341.074,1.017-.447a15.842,15.842,0,0,1,2.469.224c.944.149,2.034.149,3.123.3,2.251.224,4.648.521,6.827.819a46.4,46.4,0,0,0-4.721-1.117c-.944-.149-1.961-.372-2.978-.521l-1.525-.223a11.083,11.083,0,0,1-1.525-.3c-4.14-.745-8.062-1.34-9.514-1.861-1.307-.149-2.76-.372-3.777-.372-1.089-.6,1.235-.075,1.888,0a8.707,8.707,0,0,0-3.05-.968c.726-.447,2.905.745,4.939.819-3.05-.149.436.521,1.235.075a31.261,31.261,0,0,0-3.05-.819c.073-.3,1.307.149,1.888.149-2.106-.968-7.408-1.563-9.151-2.159-.654,0-2.4-.6-.872-.3,2.687.447,7.19,1.712,8.352,1.34-1.307-.372-2.76-.819-4.212-1.191a21.336,21.336,0,0,0-2.324-.521c-.8-.149-1.6-.372-2.4-.521-3.2-.745-6.536-1.415-9.587-2.01-1.67-.3-2.324-.744-.29-.223.508.074-.218-.3.363-.224,3.559.819,6.682,1.489,10.1,2.308,1.67.372,3.413.744,5.3,1.117s3.849.744,6.028,1.117c-.654-.447-3.268-.447-3.922-.968.508,0,2.106.223,3.995.521a39.357,39.357,0,0,1,5.229.968c-.726-.372.581-.074,2.179.3.8.149,1.743.372,2.615.447a10.021,10.021,0,0,0,2.034.074c-.726-.149-1.6-.3-2.469-.521s-1.888-.372-2.905-.6a44.666,44.666,0,0,0-6.246-.745c-2.76-.893-6.391-1.936-10.458-2.9-2.033-.521-4.14-1.042-6.391-1.489-2.179-.447-4.5-.819-6.754-1.34.073-.074.363-.074.363-.223-1.525-.3-6.9-1.712-3.559-1.117,4.793.968,18.011,4.094,24.257,4.988-.073.149-.581,0-.654.149,1.67.447,2.034.074,3.413.3.8.3-1.235,0-1.6,0,1.743.893,4.14.521,5.52.521a64.789,64.789,0,0,1,6.464.968c2.251.3,4.358.521,5.229-.075,1.089,1.117,2.179,0,4.285.521.073.447-1.38-.075-1.6.223-.073.372,1.6,0,.581.223a35.027,35.027,0,0,1,7.771.447c1.38.149,2.76.372,4.212.521a29.043,29.043,0,0,0,4.43.149,50.062,50.062,0,0,0-5.81-.819c-2.179-.3-4.43-.6-6.391-.968.145-.3,1.525.074,2.179.074a20.06,20.06,0,0,0-4.575-.893c-1.816-.224-3.777-.447-5.52-.67-.581-.075-1.235-.149-1.816-.223-.726-.075-.508-.224,0-.149,1.017.149,2.034.223,3.05.372.944-.075,3.123.372,4.648.3.654,0,.436.3.871.372,1.307,0,2.905.149,4.576.3-.726-.521-2.687-.521-4.285-.744-.073-.6.654.149,1.525,0,.363-.447-.944-.3-1.525-.447,1.38-.224,2.905.372,4.285.3-2.469-.819-6.319-.744-9.151-.968a15.9,15.9,0,0,0,2.469.521c.872.074,1.67.149,1.743.149a6.966,6.966,0,0,1-1.816.074c-.726-.074-1.525-.149-2.4-.3-1.67-.223-3.486-.6-4.939-.67.363-.3,1.453-.149,2.469,0-.073-.372-1.525-.223-2.106-.372a17.236,17.236,0,0,1,4.721.149c.871.149,1.816.223,2.76.372.944.074,1.961.223,2.978.223-3.05-.819-5.955-.521-8.207-1.266a10.48,10.48,0,0,1,3.05.223c.145-.223-.218-.3-.581-.372a14.98,14.98,0,0,1,2.469.149c.944.075,1.961.223,2.978.3,2.106.223,4.43.521,6.464.67-1.961-.893-6.1-.968-9.442-1.414-3.994-.447-1.888-.447.944-.075-1.961-.447-3.922-.745-5.955-1.042-1.961-.3-3.922-.521-5.883-.893.944-.447,3.2.075,5.81.3a8.1,8.1,0,0,0-2.978-.67c2.106.074,4.866.447,7.844.819,2.905.372,6.028.744,8.57.819-3.2-.372-6.1-1.191-8.5-1.042-.29-.67-1.67,0-.871-.67-1.816-.149-3.777-.224-5.81-.372-1.017-.074-2.034-.149-3.123-.223-1.017-.074-2.106-.223-3.123-.3-2.106-.223-4.14-.521-6.028-.819a40.6,40.6,0,0,1-5.156-1.266c-1.525-.372,2.324.075,2.469.149,1.743.3,3.777.521,5.883.819s4.358.521,6.609.819c2.251.223,4.575.521,6.9.819,1.162.149,2.251.3,3.413.447,1.089.149,2.179.224,3.268.372-.872-.447-3.123-.372-4.5-.6-.218-.149.436-.075,1.307,0s1.888.223,2.4.223c-1.017-.3-2.034-.521-3.123-.744s-2.251-.447-3.413-.6c-1.162-.224-2.4-.372-3.631-.6s-2.542-.372-3.849-.67c0-.223,1.816.074.363-.223a33.468,33.468,0,0,1,5.52.3c1.888.224,3.849.447,6.246.6-.8-.372-2.905-.372-4.212-.67-2.76-.372.726-.149,1.816.074,2.179.3,4.212.447,6.682.67s5.374.447,9.369.744c-.073-.3-1.525-.149-2.106-.3,3.922.223,8.352-.223,12.782.223-.073.6-1.816.3-3.05.223a82.907,82.907,0,0,0,10.023.67,32.226,32.226,0,0,0,8.861-.968c2.832.149,4.212.074,7.335.223.8,0,.363.149.29.3,3.631-.149,7.916-.074,12.129.149s8.352.3,11.693.149c-2.978-.3-5.156-.149-8.279-.447.291-.223,1.38-.075,1.525-.447a38.517,38.517,0,0,0,8.352.6c3.2,0,6.319-.074,8.5.447a96.266,96.266,0,0,0-9.8-.149c-.073.224.218.3.654.3-2.615.447-5.374-.224-8.279.149a16.139,16.139,0,0,0,4.721.521c1.67,0,3.413-.074,5.011,0,4.358.074,8.279.223,13.145.149a9.588,9.588,0,0,0-2.76-.223c3.123-.372,9.224.3,12.564-.521,1.162.372,3.7.3,6.1.223a42.263,42.263,0,0,1,5.592-.223c.363-.224,1.235-.224,1.162-.67a35.509,35.509,0,0,0,9.078-.67,71.561,71.561,0,0,0-8.5.223c2.832-.819,7.19-.819,11.475-1.415-.073.224-.726.149-1.162.224,5.447-.149,11.693-.3,16.414-1.34.073-.372-1.09.521-.944-.149,1.525-.074,2.106-.447,3.486-.6,0,.3-1.017.223-1.162.447,2.034-.223,3.994-.447,5.81-.521.944-.075,1.816-.149,2.76-.224.872-.074,1.816-.149,2.687-.223s1.743-.149,2.615-.3c.872-.074,1.743-.223,2.615-.372a37.174,37.174,0,0,0,5.447-1.117c1.162.3,3.413-.3,4.793-.149-.944.372.145.372-1.162.3-.436.745.436,1.191,1.307,1.787.8.6,1.525,1.266.726,2.457,1.089.074.654.521,1.453.893-2.034.521-.508,1.713-1.961,2.308.145.149.581,0,.944,0,.363-.074.726-.074.654.224-.581.3.073.893-.218,1.712.291.224.872.149,1.6,0,0,.521-1.307.893-1.961,1.266,1.888-.075.654,1.117,2.615,1.265-.508,1.34.145,2.159.508,2.978a2.1,2.1,0,0,1,.073,1.34,6.666,6.666,0,0,1-1.743,2.01Zm-160.36-5.807c-.073-.3.508-.3.073-.447-.436.372-3.123-.372-3.123,0A14.926,14.926,0,0,0,436.142,1805.119Zm.871.075c-.654.074-3.413-.3-2.469.223C434.98,1805.045,436.869,1805.64,437.014,1805.194Zm-9.587,3.2c-2.034-.149-4.721-.745-5.883-.745-.073.149-.508.223.291.3a13.808,13.808,0,0,0,3.123.372,9.964,9.964,0,0,1,1.453.075c.508,0,1.162.074,1.888.149C429.824,1808.767,428.081,1808.4,427.427,1808.4Zm48.805-8.561a5.036,5.036,0,0,0-3.05.521A10.835,10.835,0,0,0,476.232,1799.834Zm3.995.521c-.944.074-2.615-.224-3.05.074C478.121,1800.355,479.791,1800.727,480.227,1800.355Zm.944-.67c2.542-.074,5.374-.074,6.391-.521C485.238,1799.461,483.277,1799.163,481.171,1799.685Zm7.626.521c-1.453.075-4.067-.3-4.575.223C484.948,1800.28,490.685,1800.429,488.8,1800.206Zm-21.28-2.159c-2.4.074-6.391-.3-6.464,1.042C462.579,1798.568,467.59,1798.419,467.517,1798.047Zm-54.906,18.016a11.5,11.5,0,0,0,2.905,0c-.8,0-2.251-.521-2.542-.224C413.555,1815.989,412.829,1815.989,412.611,1816.063Zm-4.358-13.7c1.307.372,4.576.893,4.648.223C411.667,1802.812,409.416,1801.918,408.254,1802.365Zm13.654,2.457c.29-.3,1.743.149,1.888-.224l-1.816-.223C422.053,1804.673,421.472,1804.747,421.908,1804.822Zm85.845-5.211c-.508-.074-.944-.447-1.235,0,.436.3.726-.224.944.149l2.469-.075C509.714,1799.387,508.406,1799.685,507.753,1799.61Zm-91.728,5.211c.291.074.581.074.944.149C420.963,1805.342,417.623,1804.375,416.025,1804.822Zm-5.229-.6c1.67.075,4.285.6,4.648.224C413.991,1804.449,411.885,1804,410.8,1804.226Zm181.059,14.592a3.651,3.651,0,0,1,1.525-.224,5.81,5.81,0,0,0,2.4-.521C595.631,1816.956,591.564,1818.445,591.855,1818.818Zm-179.606-22.93a8.8,8.8,0,0,0-2.76-.074C410.65,1795.888,411.885,1796.186,412.248,1795.888Zm-41.688-2.606a23.826,23.826,0,0,0-4.793-1.117C367.728,1792.612,369.18,1793.58,370.56,1793.282Zm14.816-1.936,35.369,4.988c-1.453-.075-3.559-.6-4.5-.447C417.7,1795.962,419.8,1796.483,420.746,1796.334Zm37.621,2.01c-1.67,0-3.777-.3-4.285.3C455.1,1798.344,458.221,1799.163,458.366,1798.344Zm-65.51,7.743a14.508,14.508,0,0,0,2.179.6,8.528,8.528,0,0,0,2.179.224,12.5,12.5,0,0,0-2.106-.521A10.8,10.8,0,0,0,392.857,1806.087Zm-23.386-7.222c2.106.3,5.447,1.638,5.52.968C373.03,1799.834,370.633,1798.642,369.471,1798.866Zm21.788,5.584c1.235,0,2.179.819,2.76.521C393.8,1804.747,390.533,1804.077,391.259,1804.449Zm-11.693-4.988c-1.162-.3-2.179-.6-3.123-.819-.508-.074-.944-.223-1.453-.3s-.944-.149-1.525-.223c-3.995-.893.073.075,2.106.67,1.453.372,3.268,1.415,3.922,1.042C377.678,1799.461,378.695,1799.387,379.566,1799.461Z" transform="translate(251.81 -1905.532)" fill="#fff"/>
    <text id="Die_Gründer" data-name="Die Gründer" transform="translate(709 -88.004)" fill="#faa401" font-size="21" font-family="SegoeUI, Segoe UI"><tspan x="0" y="0">Die Gründer</tspan></text>
  </g>
</svg>
