<svg id="Ebene_1" data-name="Ebene 1" xmlns="http://www.w3.org/2000/svg" viewBox="0 0 264.23 37.87"><defs><style>.cls-1{fill:#fff;}.cls-2,.cls-3{isolation:isolate;}.cls-3{font-size:21px;fill:#faa401;font-family:SegoeUI, Segoe UI;}</style></defs><g id="Gruppe_26" data-name="Gruppe 26"><path class="cls-1" d="M151.72,10.66c1.23-.52,4.28-.3,6.39-.52.07.15-.15.15-.29.15-.15.37,1.52-.45,1.23.22,1.17.08,3-.3,3.7,0-1.23.08-2.47.08-3.7.15-1.09-.22-1.38.08-2.47-.07-.14,0,.8-.3.95-.15-.58-.37-2.11.07-4,0-.07.3,1.09.07,1.53.07.36.45-2.32.08-3.34.15Z" transform="translate(31.67 -0.01)"/><path class="cls-1" d="M160.51,7.46c.58-.3-2.47,0-3.35,0,0-.07-.07-.15-.28-.15C157,7.91,159.42,7.39,160.51,7.46Z" transform="translate(31.67 -0.01)"/><path class="cls-1" d="M158.18,9.32c-1.52.15-2.32-.3-3.05.23.87-.08,2.62.07,3.05-.23Z" transform="translate(31.67 -0.01)"/><path class="cls-1" d="M169.22,9.92A17.63,17.63,0,0,0,164,10a13.74,13.74,0,0,0,5.23-.08Z" transform="translate(31.67 -0.01)"/><path class="cls-1" d="M97.83,8.88c0,.23-.15.3-.29.45.94,0,2.4-.9,3.63-.3-.29-.15-.94.07-.94.07.94.08,2.17.15,3.12.23s1.6.22,1.38.52a10.8,10.8,0,0,1,3-.37c-.51-.08.14-.15.29-.3A31,31,0,0,1,102.62,9c0-.23.51-.08.58-.3-2.47-.15-11.4.29-5.37.15Z" transform="translate(31.67 -0.01)"/><path class="cls-1" d="M113.59,9.48c1.52.08,6.75,0,2.76-.07-.87-.23-2.18,0-3-.45-1.16.37-4-.15-4.29.6,1-.3,6,.6,4.58-.07Z" transform="translate(31.67 -0.01)"/><path class="cls-1" d="M147.8,10.52c-1.38-.07-2.26-.22-3.05.23.87-.16,2.61.06,3.05-.24Z" transform="translate(31.67 -0.01)"/><path class="cls-1" d="M127.9,8.29a6.85,6.85,0,0,0-2.76.45,5.25,5.25,0,0,0,2.76-.46Z" transform="translate(31.67 -0.01)"/><path class="cls-1" d="M180.91,6.8c-.14-.3-1.52-.3-2.76-.15a16.4,16.4,0,0,0-2.4.3c1.75,0,3.86-.31,5.16-.16Z" transform="translate(31.67 -0.01)"/><path class="cls-1" d="M139.15,8.81c-1.52-.15-3.7,0-5.15-.22.8.43,3.92.43,5.15.21Z" transform="translate(31.67 -0.01)"/><path class="cls-1" d="M192,7.92a17.81,17.81,0,0,0,4.21-.75c-3.13.6-6.76.45-8.94,1.12,1.89-.23,3.35-.31,4.73-.38Z" transform="translate(31.67 -0.01)"/><path class="cls-1" d="M205.75,4.79l-.43.22c.21-.08.5-.15.43-.23Z" transform="translate(31.67 -0.01)"/><path class="cls-1" d="M205.24,5h.15a.11.11,0,0,0-.14,0h0Z" transform="translate(31.67 -0.01)"/><path class="cls-1" d="M183.38,7.4c.44-.45,4.21-.23,3.27-.67C186.51,7,182.58,6.87,183.38,7.4Z" transform="translate(31.67 -0.01)"/><path class="cls-1" d="M199.07,5.46a6.63,6.63,0,0,0-2.32.6A26.52,26.52,0,0,0,202,5c-.87.13-2,.28-2.9.43Z" transform="translate(31.67 -0.01)"/><path class="cls-1" d="M209,4.12c-.88.22-2.55.22-2.91.6.87-.24,2.54-.24,2.91-.61Z" transform="translate(31.67 -0.01)"/><path class="cls-1" d="M213.52,3.82c2.62-.6,5.23-1.19,8.28-1.71a9.26,9.26,0,0,0-2.83.07c-1.09.15-2.32.37-3.56.6,3.49-1,7.41-1,11-1.93.58-.23-.07-.67.36-.82,1.46-.15,1.82.74,3.42.52-.29.45-1.46.74-2.11,1.19.65-.52-.29-.45-.73-.52a1.42,1.42,0,0,0-.94.6c.22-.45-1.09-.23-2.47,0-.73.89,1,.6,1.45,1.26a6.84,6.84,0,0,1-2.32.82c-.87.23-1.6.52-1.45,1-.73.08-1.53.22-2.4.3a13,13,0,0,1-2.33.22c.44-.52,1.53-.22,2.33-.44a16.46,16.46,0,0,0-4.43-.15L212.14,5c-.44.08-.94.15-1.45.22s-1,.15-1.46.23c-4,.6-8.35,1.41-12.27,1.86,3.63-.89,5.81-1.19,8.13-2.16a77.4,77.4,0,0,0,8.43-1.34Z" transform="translate(31.67 -0.01)"/><path class="cls-1" d="M218.75,4.34c.73-.07,1.82.37,2.62-.3-.8.15-2.26,0-2.62.3Z" transform="translate(31.67 -0.01)"/><path class="cls-1" d="M203.06,4.57a32,32,0,0,1,4.65-.67c-.72-.46-5.15.51-4.65.66Z" transform="translate(31.67 -0.01)"/><path class="cls-1" d="M189.92,6.58l-2.4.22c-.29.67,2.25-.22,2.4.22-.51.08-2.69.15-1.82.3,2.33-.15,7.85-.67,7.7-.89-.5,0-1.74.37-1.81.07a18.77,18.77,0,0,1,2.32-.82c-.94-.44-1.74.75-2.69.3-.21-.37,1.38,0,1.17-.37l-4,.45c-1.31.15-2.54.3-3.7.52a12.18,12.18,0,0,1,2.83,0Z" transform="translate(31.67 -0.01)"/><path class="cls-1" d="M216.65,1.14A4.56,4.56,0,0,1,218.1.77l1.38-.22A4.2,4.2,0,0,0,221.37,0c-1.75.23-3.05.08-4.65.15-.22.37-.51.59-.07,1Z" transform="translate(31.67 -0.01)"/><path class="cls-1" d="M169.51,10.6A6.48,6.48,0,0,0,167,11a5.1,5.1,0,0,0,2.47-.38Z" transform="translate(31.67 -0.01)"/><path class="cls-1" d="M57.59,28.6a24.77,24.77,0,0,0-5.37-.37A43.91,43.91,0,0,0,57.59,28.6Z" transform="translate(31.67 -0.01)"/><path class="cls-1" d="M46.26,13.94a11.16,11.16,0,0,0,2.83-.3c-.87.07-3.7-.37-3.41-.08.44.08,1.16.08,1.24.3C46.41,13.79,45.68,13.71,46.26,13.94Z" transform="translate(31.67 -0.01)"/><path class="cls-1" d="M38.42,22.05c-2-.44-3.41-.37-.66,0,1.38.15,3.49.75,4.36.52-.8.08-.87-.74-1.23-.3.22,0,.36.08.29.23-.58-.59-1.53-.3-2.76-.45Z" transform="translate(31.67 -0.01)"/><path class="cls-1" d="M230.73,22.65c.08.23,1.09-.15,1.31-.07-3.56,1.41-4.36,3.65-3.2,5.06a5.59,5.59,0,0,0-3.34,1.64A4.92,4.92,0,0,1,222,30.84c-.8.23.44.3.73.3-1.6.23-3.41.52-5.45.9l-6.32.89c-4.35.6-8.78,1-12.34,1.34-.58-.22,0-.22-.07-.6-11.84,1-23.39,1.79-34.79,2.46s-22.73,1.19-34.06,1c-3.05-.07-6-.14-9.16-.3-13.72-.44-28-1.19-41.54-2.68-1.38-.14-3.34-.37-5.3-.52s-4-.3-5.45-.37c-.36-.07-.21-.3-.29-.45-.87.23-2.76-.22-4.14-.3-.14-.22,3,.15,3.85-.07-.8-.37-2.54-.15-4.72-.45a9.84,9.84,0,0,1,2.54-.15,18.9,18.9,0,0,0-4.79-.67,43.81,43.81,0,0,1-5.59-.6c-.66,0-.58-.3-.58-.52-2.25-.3-4.14-.22-6.61-.67a24.2,24.2,0,0,1,6.53.08c2.62.3,5.45.74,8.07,1-1-.23-2-.38-3.13-.6s-2.32-.38-3.48-.52c-2.4-.3-4.94-.6-7.12-1a51.44,51.44,0,0,1,6.9.52c2.18.3,4.29.67,6,.89.36-.37-.66-.3-1.24-.37,2,.07,7.34.74,8.79,1a7.27,7.27,0,0,1,1.53-.3,15.46,15.46,0,0,1,1.67-.15c1.09.67,5.52.67,8.42,1.12-1-.6-3.34-.67-5.3-.89-.07-.08.8-.15,1-.08-1-.52-3.78-.74-6.76-1a43.48,43.48,0,0,1-7.7-1l-2-.22-2-.22c-2.4-.3-.29-.3.95,0,2.76.3,4.79.6,6.9.74-1.24-.15-3-.52-4.72-.89-.88-.15-1.75-.37-2.62-.6s-1.6-.37-2.32-.52c-.29-.08-4.87-.52-2.76-.52a25.5,25.5,0,0,1,4,.44,19.82,19.82,0,0,0,4.14.38c-1.09-.23-2.47-1-3.7-.75a27.67,27.67,0,0,0-4.5-1.12c-1.74-.3-3.7-.52-5.66-.81s-4-.53-6-.82L39,22.78c-.87-.22-1.74-.37-2.54-.6-.58-.15-3.05-.45-2.18-.52,4.94,1,10.17,1.79,15.54,2.53a14,14,0,0,0-4-.89c0-.38,3.34.07,1-.45a15.62,15.62,0,0,1,2.46.22c.95.15,2,.15,3.13.3,2.25.23,4.65.52,6.82.82a46.9,46.9,0,0,0-4.72-1.11c-.94-.15-2-.38-3-.53L50,22.33a10,10,0,0,1-1.52-.3c-4.14-.74-8.07-1.34-9.52-1.86-1.31-.15-2.76-.37-3.78-.37-1.08-.6,1.24-.08,1.89,0a8.64,8.64,0,0,0-3-1c.73-.45,2.91.75,4.94.82-3-.15.44.52,1.24.07-1-.32-2-.59-3.05-.81.07-.3,1.3.14,1.88.14-2.1-1-7.4-1.56-9.15-2.15-.65,0-2.4-.6-.87-.3,2.69.44,7.19,1.71,8.35,1.34-1.3-.38-2.76-.82-4.21-1.2a22.87,22.87,0,0,0-2.32-.52c-.8-.15-1.6-.37-2.4-.52-3.2-.74-6.54-1.41-9.59-2-1.67-.3-2.32-.74-.29-.22.51.07-.22-.3.36-.22,3.56.81,6.69,1.48,10.1,2.3,1.67.38,3.42.75,5.3,1.12s3.85.74,6,1.12c-.65-.45-3.27-.45-3.92-1,.51,0,2.11.22,4,.52a38.53,38.53,0,0,1,5.23,1c-.72-.37.58-.08,2.18.3.8.15,1.75.37,2.62.45a10.58,10.58,0,0,0,2,.07c-.72-.15-1.6-.3-2.47-.52s-1.89-.37-2.9-.6a43.7,43.7,0,0,0-6.25-.75c-2.76-.89-6.39-1.93-10.46-2.9-2-.52-4.14-1-6.39-1.49s-4.5-.81-6.75-1.34c.07-.07.36-.07.36-.22-1.52-.3-6.9-1.71-3.56-1.12,4.8,1,18,4.1,24.26,5-.07.15-.58,0-.65.15,1.67.45,2,.08,3.41.3.8.3-1.24,0-1.6,0,1.74.89,4.14.52,5.52.52,2.17.22,4.33.54,6.46,1s4.36.52,5.23-.07c1.09,1.11,2.18,0,4.29.52.07.44-1.38-.08-1.6.22s1.6,0,.58.22a34.88,34.88,0,0,1,7.77.45c1.38.15,2.76.37,4.21.52a29.78,29.78,0,0,0,4.43.15,49.52,49.52,0,0,0-5.81-.82c-2.18-.3-4.43-.6-6.39-1,.14-.3,1.52.08,2.18.08a19.87,19.87,0,0,0-4.58-.9c-1.81-.22-3.77-.44-5.52-.67l-1.81-.22c-.73-.07-.51-.22,0-.15,1,.15,2,.22,3.05.37.94-.07,3.12.38,4.65.3.65,0,.43.3.87.38,1.3,0,2.9.14,4.57.3-.72-.53-2.68-.53-4.28-.75-.08-.6.65.15,1.52,0,.37-.45-.94-.3-1.52-.45,1.38-.22,2.9.38,4.28.3-2.47-.81-6.32-.74-9.15-1a16.2,16.2,0,0,0,2.47.52l1.74.15a6.87,6.87,0,0,1-1.81.07c-.73-.07-1.53-.15-2.4-.3-1.67-.22-3.49-.6-4.94-.67.36-.3,1.45-.15,2.47,0-.08-.37-1.53-.22-2.11-.37a17,17,0,0,1,4.72.15c.87.15,1.82.22,2.76.37s2,.22,3,.22c-3.05-.82-6-.52-8.21-1.26a10.4,10.4,0,0,1,3,.22c.15-.22-.21-.3-.58-.37a14.57,14.57,0,0,1,2.47.15c1,.07,2,.22,3,.3,2.11.22,4.43.52,6.46.67-2-.9-6.1-1-9.44-1.42-4-.44-1.89-.44,1-.07-2-.45-3.93-.75-6-1s-3.92-.52-5.88-.9c.94-.44,3.2.08,5.81.3A8.24,8.24,0,0,0,53,11c2.11.08,4.87.45,7.84.82s6,.75,8.57.82c-3.2-.37-6.1-1.19-8.5-1-.29-.67-1.67,0-.87-.67-1.81-.15-3.77-.23-5.81-.37l-3.12-.23c-1-.07-2.11-.22-3.12-.3-2.11-.22-4.14-.52-6-.82A39.61,39.61,0,0,1,36.81,8c-1.52-.37,2.33.07,2.47.15,1.74.3,3.78.52,5.88.82s4.36.52,6.61.82,4.58.52,6.9.81l3.42.45c1.09.15,2.18.23,3.26.37-.87-.44-3.12-.37-4.5-.6-.21-.15.44-.07,1.31,0s1.89.23,2.4.23c-1-.3-2-.52-3.12-.75s-2.25-.44-3.41-.6-2.4-.37-3.64-.6-2.54-.37-3.84-.67c0-.22,1.81.08.36-.22a34,34,0,0,1,5.52.3c1.89.22,3.85.45,6.24.6-.8-.37-2.9-.37-4.21-.67-2.76-.37.73-.15,1.82.07,2.18.3,4.21.45,6.68.67s5.37.45,9.37.75c-.07-.3-1.53-.15-2.11-.3,3.93.22,8.36-.23,12.79.22-.08.6-1.82.3-3.05.22a81.85,81.85,0,0,0,10,.67,32.25,32.25,0,0,0,8.86-1c2.83.15,4.21.07,7.33.22.8,0,.37.15.29.3,3.64-.15,7.92-.07,12.13.15s8.36.3,11.7.15c-3-.3-5.16-.15-8.28-.45.29-.22,1.38-.07,1.52-.45a37.76,37.76,0,0,0,8.35.6c3.2,0,6.32-.07,8.5.45a94.21,94.21,0,0,0-9.8-.15c-.07.23.22.3.66.3-2.62.45-5.38-.22-8.28.15a16,16,0,0,0,4.72.52c1.67,0,3.41-.07,5,0,4.36.08,8.28.22,13.15.15a9.52,9.52,0,0,0-2.76-.22c3.12-.37,9.22.3,12.56-.52,1.16.37,3.7.3,6.1.22a41.81,41.81,0,0,1,5.59-.22c.37-.23,1.24-.23,1.16-.67a35.89,35.89,0,0,0,9.08-.67,71,71,0,0,0-8.5.22C175.9,9,180.26,9,184.55,8.41c-.08.23-.73.15-1.16.23,5.44-.15,11.69-.3,16.41-1.34.07-.37-1.09.52-.94-.15,1.52-.07,2.1-.45,3.48-.6,0,.3-1,.22-1.16.45,2-.23,4-.45,5.81-.52l2.76-.23L212.44,6c.87-.08,1.74-.15,2.61-.3s1.74-.23,2.62-.37a37.23,37.23,0,0,0,5.44-1.12c1.17.3,3.42-.3,4.8-.15-.95.37.14.37-1.17.3-.43.75.44,1.19,1.31,1.79s1.53,1.26.73,2.45c1.09.08.65.53,1.45.9-2,.52-.51,1.71-2,2.31.15.14.58,0,.94,0s.73-.08.66.22c-.58.3.07.89-.22,1.71.29.23.87.15,1.6,0,0,.52-1.31.89-2,1.27,1.89-.08.65,1.11,2.61,1.26-.5,1.34.15,2.16.51,3a2.06,2.06,0,0,1,.07,1.34,6.71,6.71,0,0,1-1.74,2Z" transform="translate(31.67 -0.01)"/><path class="cls-1" d="M70.38,16.85c-.08-.3.5-.3.07-.45-.44.37-3.12-.37-3.12,0a14.87,14.87,0,0,0,3,.44Z" transform="translate(31.67 -0.01)"/><path class="cls-1" d="M71.25,16.92c-.66.08-3.42-.3-2.47.22.43-.37,2.32.22,2.47-.22Z" transform="translate(31.67 -0.01)"/><path class="cls-1" d="M61.66,20.12c-2-.15-4.72-.74-5.88-.74-.08.15-.51.22.29.3a14.23,14.23,0,0,0,3.12.37,10,10,0,0,1,1.45.07c.51,0,1.16.08,1.89.15,1.53.22-.22-.15-.87-.15Z" transform="translate(31.67 -0.01)"/><path class="cls-1" d="M110.46,11.56a5,5,0,0,0-3,.52,10.84,10.84,0,0,0,3-.52Z" transform="translate(31.67 -0.01)"/><path class="cls-1" d="M114.46,12.08c-.95.08-2.62-.22-3,.08.94-.08,2.61.29,3-.08Z" transform="translate(31.67 -0.01)"/><path class="cls-1" d="M115.4,11.41c2.54-.07,5.38-.07,6.39-.52-2.32.29-4.28,0-6.39.52Z" transform="translate(31.67 -0.01)"/><path class="cls-1" d="M123,11.93c-1.45.08-4.07-.3-4.58.23.73-.16,6.47,0,4.58-.23Z" transform="translate(31.67 -0.01)"/><path class="cls-1" d="M101.75,9.77c-2.4.08-6.39-.3-6.46,1.05,1.52-.53,6.53-.68,6.46-1.05Z" transform="translate(31.67 -0.01)"/><path class="cls-1" d="M46.84,27.79a11.81,11.81,0,0,0,2.91,0c-.8,0-2.25-.52-2.54-.22.58.14-.15.14-.37.22Z" transform="translate(31.67 -0.01)"/><path class="cls-1" d="M42.48,14.09c1.31.37,4.58.89,4.65.22-1.23.23-3.48-.67-4.64-.22Z" transform="translate(31.67 -0.01)"/><path class="cls-1" d="M56.14,16.55c.29-.3,1.74.15,1.89-.23l-1.82-.22c.08.3-.51.37-.07.45Z" transform="translate(31.67 -0.01)"/><path class="cls-1" d="M142,11.34c-.5-.08-.94-.45-1.23,0,.43.3.73-.23.94.14l2.47-.07c-.21-.3-1.52,0-2.17-.08Z" transform="translate(31.67 -0.01)"/><path class="cls-1" d="M50.26,16.55c.29.07.58.07.94.15,4,.37.66-.6-.94-.15Z" transform="translate(31.67 -0.01)"/><path class="cls-1" d="M45,16c1.67.07,4.28.6,4.64.22-1.45,0-3.55-.45-4.64-.22Z" transform="translate(31.67 -0.01)"/><path class="cls-1" d="M226.09,30.54a3.73,3.73,0,0,1,1.52-.23,5.67,5.67,0,0,0,2.4-.52c-.15-1.11-4.21.38-3.92.75Z" transform="translate(31.67 -0.01)"/><path class="cls-1" d="M46.48,7.61a8.81,8.81,0,0,0-2.76-.08c1.16.08,2.4.38,2.76.08Z" transform="translate(31.67 -0.01)"/><path class="cls-1" d="M4.79,5A23.8,23.8,0,0,0,0,3.89C2,4.34,3.41,5.3,4.79,5Z" transform="translate(31.67 -0.01)"/><path class="cls-1" d="M19.61,3.07,55,8.05c-1.46-.07-3.56-.6-4.5-.44,1.45.08,3.55.6,4.5.45Z" transform="translate(31.67 -0.01)"/><path class="cls-1" d="M57.23,5.08c-1.67,0-3.78-.3-4.29.3,36.39,4.69,39.51,5.51,39.66,4.69Z" transform="translate(31.67 -0.01)"/><path class="cls-1" d="M-31.67,5.6c2.11.3,5.45,1.64,5.52,1,33.41,5,31,3.79,29.85,4Z" transform="translate(31.67 -0.01)"/><path class="cls-1" d="M-9.88,11.18c1.24,0,2.18.82,2.76.52C28,16.47,24.77,15.8,25.49,16.17Z" transform="translate(31.67 -0.01)"/><path class="cls-1" d="M-21.57,6.19c-1.16-.3-2.18-.6-3.12-.82-.51-.07-.95-.22-1.46-.3l-1.52-.22c-4-.89.07.08,2.1.67,1.46.37,3.27,1.42,3.93,1,33.55,4.62,34.57,4.55,35.44,4.62Z" transform="translate(31.67 -0.01)"/><g id="Die_Gründer" data-name="Die Gründer" class="cls-2"><text class="cls-3" transform="translate(123.09 29.24)">Die Gründer</text></g></g></svg>