<svg data-name="Layer 1" xmlns="http://www.w3.org/2000/svg" xmlns:xlink="http://www.w3.org/1999/xlink" viewBox="0 0 514 431.25"><defs><linearGradient id="a" x1="249.97" y1="396.23" x2="256.31" y2="178.08" gradientUnits="userSpaceOnUse"><stop offset="0" stop-color="#010101" stop-opacity="0"/><stop offset=".95" stop-color="#010101"/></linearGradient><linearGradient id="b" x1="186.69" y1="183.91" x2="308.98" y2="183.91" xlink:href="#a"/><linearGradient id="c" x1="241.09" y1="143.35" x2="241.67" y2="154.41" xlink:href="#a"/></defs><path d="M219.05 1.01c-25.4 1.56-51.15 5-74.29 15.64-20.69 9.5-38.5 24.38-54.34 40.74-14.53 15-27.83 31.72-35.42 51.18-6.1 15.81-8.26 32.92-14 48.92-10.45 29-32.44 53.4-38.88 83.53a113.59 113.59 0 00-1.64 32.72c4.94 62.4 47.81 120.25 106.06 143.13 26.75 10.51 55.78 14 84.51 14.38 35.62.48 71.13-3.66 106.51-7.79 59.82-7 121.43-14.54 173.93-44.05 7.62-4.29 15.09-9.08 21-15.49 8.38-9 13.32-20.69 16.55-32.56a143.18 143.18 0 00-4-87c-7.39-19.76-19.3-38.4-20.81-59.44-1.6-22.31 8.74-43.49 14.63-65.07 5.12-18.76 6.07-43.56-6.13-60.16-8.71-11.85-25.63-15.93-38.66-21.06a554.65 554.65 0 00-149.37-36 543.51 543.51 0 00-85.65-1.62z" fill="#68e1fd" opacity=".24" style="isolation:isolate"/><ellipse cx="250.76" cy="369.03" rx="102.14" ry="15.3" fill="url(#a)"/><path d="M254.92 154.25h-9.49a107 107 0 00-107 107v9.49a107 107 0 00107 107h9.49a107 107 0 00107-107v-9.49a107 107 0 00-107-107zm100.83 115.44a100.64 100.64 0 01-100.64 100.65h-8.9a100.64 100.64 0 01-100.65-100.65v-8.93a100.63 100.63 0 01100.65-100.62h8.9a100.63 100.63 0 01100.64 100.62z" fill="#68e1fd"/><path d="M355.75 260.76v8.93c0 3.07-.12 6.11-.4 9.08a100.65 100.65 0 01-100.24 91.57h-8.9A100.65 100.65 0 01146 278.77c-.28-3-.4-6-.4-9.08v-8.93a100.63 100.63 0 01100.61-100.62h8.9a100.63 100.63 0 01100.64 100.62z" fill="#68e1fd" opacity=".24" style="isolation:isolate"/><path d="M355.35 278.77a100.65 100.65 0 01-100.24 91.57h-8.9A100.65 100.65 0 01146 278.77a100.63 100.63 0 01100.25-91.56h8.9a100.63 100.63 0 01100.2 91.56z" fill="#68e1fd" opacity=".24" style="isolation:isolate"/><circle cx="250.54" cy="282.1" r="25.21" fill="#e8a825"/><circle cx="248.08" cy="280.75" r="25.21" fill="#f8c244"/><circle cx="248.08" cy="280.75" r="21.48" fill="#e8a825"/><path d="M239.83 291.66l1.66-3a9.91 9.91 0 01-3.84-3.83l1.81-1.6a9.14 9.14 0 003.6 3.64c2.12 1.17 4.22.73 5.16-1s.3-3.3-1.42-5.41c-2.39-2.87-3.52-5.28-2.09-7.87s4.16-3.4 7.16-2.33l1.66-3 1.85 1-1.6 2.89a9.12 9.12 0 013.31 3.19l-1.83 1.56a8.18 8.18 0 00-3.2-3.09c-2.3-1.26-3.93-.37-4.58.83-.86 1.55-.18 2.94 1.83 5.44 2.39 2.95 3.09 5.35 1.62 8-1.29 2.36-4.15 3.67-7.51 2.48l-1.7 3.11z" fill="#f8c244"/><circle cx="206.91" cy="292.1" r="25.21" fill="#e8a825"/><circle cx="204.85" cy="290.2" r="25.21" fill="#f8c244"/><circle cx="204.85" cy="290.2" r="21.48" fill="#e8a825"/><path d="M194.25 298.84l2.33-2.53a9.91 9.91 0 01-2.83-4.63l2.14-1.13a9 9 0 002.63 4.39c1.78 1.64 3.93 1.72 5.25.28s1.07-3.13-.1-5.59c-1.64-3.35-2.16-6-.16-8.15s4.85-2.3 7.51-.56l2.32-2.54 1.56 1.43-2.24 2.44a9 9 0 012.46 3.87L213 287.2a8.33 8.33 0 00-2.39-3.75c-1.93-1.78-3.72-1.29-4.64-.29-1.2 1.31-.87 2.82.49 5.72 1.62 3.43 1.72 5.94-.33 8.17-1.82 2-4.9 2.58-7.88.63l-2.4 2.61z" fill="#f8c244"/><circle cx="294.91" cy="290.48" r="25.21" fill="#e8a825"/><circle cx="292.26" cy="291.4" r="25.21" fill="#f8c244"/><circle cx="292.26" cy="291.4" r="21.48" fill="#e8a825"/><path d="M294.85 304.83l-1.13-3.25a9.93 9.93 0 01-5.42.29v-2.42a9.07 9.07 0 005.12-.23c2.28-.8 3.37-2.65 2.73-4.49s-2.25-2.43-5-2.56c-3.73-.15-6.27-.92-7.25-3.73s.27-5.36 3.06-6.87l-1.13-3.25 2-.69 1.09 3.12a9.1 9.1 0 014.58-.33l-.07 2.4a8.24 8.24 0 00-4.44.32c-2.47.86-2.89 2.67-2.44 4 .58 1.68 2.06 2.1 5.26 2.29 3.79.19 6 1.29 7 4.15.89 2.54-.05 5.54-3.18 7.24l1.17 3.35z" fill="#f8c244"/><path d="M302.67 166.49c0 9.14-27.19 16.58-60.71 16.58s-60.74-7.44-60.74-16.58c0-2-1.52-13.83.58-16.72a4.82 4.82 0 00-.58 2.3c0 9.18 27.19 16.59 60.74 16.59 33.11 0 60-7.23 60.68-16.25.74 4.91.03 12.35.03 14.08z" fill="#68e1fd"/><path d="M308.67 184c0 9.14-27.19 16.58-60.71 16.58s-60.74-7.44-60.74-16.58c0-2-1.52-13.83.58-16.72a4.82 4.82 0 00-.58 2.3c0 9.18 27.19 16.59 60.74 16.59 33.11 0 60-7.23 60.68-16.25.74 4.91.03 12.35.03 14.08z" transform="translate(-6 -17.51)" opacity=".37" fill="url(#b)"/><path d="M302.64 152.39c-.65 9-27.57 16.25-60.68 16.25-33.55 0-60.74-7.41-60.74-16.59a4.82 4.82 0 01.58-2.3c4.2-8.09 29.52-14.26 60.2-14.26 28.9 0 53.08 5.52 59.16 12.93a2.79 2.79 0 01.59.74 10.16 10.16 0 01.89 3.23z" fill="#68e1fd"/><path d="M302.67 152.05a1.34 1.34 0 010 .34 10.16 10.16 0 00-.93-3.26 5 5 0 01.93 2.92z" fill="#68e1fd"/><path opacity=".37" fill="url(#c)" d="M218.46 148.43h45.98v3.78h-45.98z"/><circle cx="227.96" cy="110.39" r="27.5" fill="#e8a825"/><circle cx="224.91" cy="110.39" r="27.5" fill="#f8c244"/><circle cx="224.91" cy="110.39" r="23.43" fill="#e8a825"/><path d="M222.76 125.15v-3.76a10.75 10.75 0 01-5.69-1.63l.89-2.49a9.93 9.93 0 005.36 1.59c2.64 0 4.42-1.52 4.42-3.64s-1.45-3.31-4.2-4.43c-3.79-1.48-6.14-3.19-6.14-6.43s2.2-5.43 5.62-6v-3.75h2.3v3.61a9.82 9.82 0 014.84 1.3l-.93 2.45a9 9 0 00-4.69-1.26c-2.86 0-3.94 1.71-3.94 3.19 0 1.94 1.38 2.91 4.61 4.24 3.83 1.57 5.77 3.5 5.77 6.81 0 2.94-2 5.69-5.88 6.32v3.87z" fill="#f8c244"/><circle cx="217.12" cy="56.37" r="25.21" fill="#e8a825"/><circle cx="214.32" cy="56.37" r="25.21" fill="#f8c244"/><circle cx="214.32" cy="56.37" r="21.48" fill="#e8a825"/><path d="M212.35 69.9v-3.41a9.94 9.94 0 01-5.22-1.5l.82-2.28a9.16 9.16 0 004.91 1.46c2.42 0 4.06-1.4 4.06-3.34s-1.33-3-3.86-4.06c-3.47-1.36-5.62-2.93-5.62-5.89s2-5 5.15-5.49v-3.47h2.11v3.3a9.08 9.08 0 014.43 1.2l-.85 2.25a8.22 8.22 0 00-4.28-1.18c-2.63 0-3.62 1.57-3.62 2.93 0 1.77 1.26 2.66 4.23 3.88 3.51 1.44 5.28 3.21 5.28 6.24 0 2.7-1.87 5.22-5.38 5.8v3.54z" fill="#f8c244"/><circle cx="173.03" cy="28.43" r="25.21" fill="#e8a825"/><circle cx="170.23" cy="28.43" r="25.21" fill="#f8c244"/><circle cx="170.23" cy="28.43" r="21.48" fill="#e8a825"/><path d="M168.26 41.96v-3.47a9.87 9.87 0 01-5.21-1.5l.81-2.28a9.08 9.08 0 004.91 1.46c2.42 0 4.06-1.39 4.06-3.34s-1.33-3-3.85-4c-3.48-1.37-5.63-2.93-5.63-5.9s2-5 5.15-5.49v-3.46h2.11v3.31a9.09 9.09 0 014.39 1.2l-.85 2.25a8.19 8.19 0 00-4.29-1.16c-2.63 0-3.62 1.57-3.62 2.93 0 1.77 1.26 2.66 4.23 3.89 3.51 1.43 5.28 3.2 5.28 6.24 0 2.69-1.87 5.21-5.38 5.79v3.54z" fill="#f8c244"/><path d="M283.56 364.69c-15.19-.22-27.43-5.42-27.34-11.61 0-.69-.52-4.56-.22-5.21 2.39-5.2 14.37-5.81 27.88-5.62 13.28.19 24.43 0 26.92 5.13.36.73.42 5.7.41 6.48-.08 6.2-12.47 11.04-27.65 10.83z" fill="#e8a825"/><ellipse cx="289.49" cy="365.78" rx="11.22" ry="27.5" transform="rotate(-89.18 277.634 360.068)" fill="#f8c244"/><ellipse cx="289.49" cy="365.78" rx="9.56" ry="23.43" transform="rotate(-89.18 277.634 360.068)" fill="#e8a825"/><path d="M268.74 347.18l3.76.05a3.06 3.06 0 011.67-2.3l2.48.4a2.91 2.91 0 00-1.65 2.16c0 1.07 1.5 1.82 3.62 1.85a5.64 5.64 0 004.45-1.65c1.51-1.53 3.24-2.46 6.47-2.41s5.42 1 5.95 2.38l3.76.05v.94l-3.61-.05a2.7 2.7 0 01-1.33 1.95l-2.45-.41a2.49 2.49 0 001.29-1.9c0-1.16-1.69-1.63-3.17-1.65a5.23 5.23 0 00-4.27 1.82c-1.58 1.54-3.53 2.3-6.84 2.26-2.93-.05-5.67-.92-6.28-2.49l-3.87-.06z" fill="#f8c244"/><path d="M387 369.05c-15.19-.21-27.43-5.41-27.34-11.61 0-.69-.52-4.55-.22-5.2 2.4-5.2 14.38-5.82 27.88-5.63 13.29.19 24.44 0 26.93 5.13.35.74.42 5.71.41 6.48-.08 6.2-12.46 11.05-27.66 10.83z" fill="#e8a825"/><ellipse cx="392.95" cy="370.14" rx="11.22" ry="27.5" transform="rotate(-89.18 381.096 364.429)" fill="#f8c244"/><ellipse cx="392.95" cy="370.14" rx="9.56" ry="23.43" transform="rotate(-89.18 381.096 364.429)" fill="#e8a825"/><path d="M372.2 351.54l3.75.06a3.08 3.08 0 011.67-2.3l2.49.4a2.86 2.86 0 00-1.63 2.16c0 1.08 1.5 1.83 3.62 1.86a5.7 5.7 0 004.45-1.65c1.51-1.53 3.23-2.46 6.46-2.42s5.42 1 6 2.38h3.75v.94h-3.61a2.69 2.69 0 01-1.33 2l-2.44-.42a2.52 2.52 0 001.29-1.89c0-1.17-1.69-1.63-3.18-1.65a5.2 5.2 0 00-4.26 1.82c-1.59 1.54-3.53 2.3-6.84 2.25-2.94 0-5.68-.91-6.29-2.49l-3.87-.05z" fill="#f8c244"/><path d="M391.16 359.23c-15.19-.22-27.43-5.41-27.34-11.61 0-.69-.52-4.55-.22-5.2 2.39-5.21 14.37-5.82 27.88-5.63 13.29.19 24.43 0 26.93 5.13.35.74.42 5.71.4 6.48-.08 6.2-12.47 11.09-27.65 10.83z" fill="#e8a825"/><ellipse cx="397.1" cy="360.32" rx="11.22" ry="27.5" transform="rotate(-89.18 385.24 354.604)" fill="#f8c244"/><ellipse cx="397.1" cy="360.32" rx="9.56" ry="23.43" transform="rotate(-89.18 385.24 354.604)" fill="#e8a825"/><path d="M376.35 341.72l3.75.06a3 3 0 011.67-2.3l2.49.4a2.83 2.83 0 00-1.63 2.16c0 1.08 1.49 1.83 3.61 1.86a5.65 5.65 0 004.45-1.66c1.51-1.52 3.24-2.45 6.47-2.41s5.42 1 6 2.38h3.75v.94h-3.61a2.73 2.73 0 01-1.33 2l-2.45-.42a2.49 2.49 0 001.29-1.89c0-1.17-1.68-1.63-3.17-1.66a5.24 5.24 0 00-4.27 1.83c-1.58 1.54-3.52 2.3-6.83 2.25-2.94 0-5.68-.92-6.29-2.49l-3.87-.05z" fill="#f8c244"/><path d="M384.17 350.28c-15.18-.21-27.42-5.41-27.33-11.61 0-.69-.52-4.55-.23-5.2 2.4-5.2 14.38-5.82 27.88-5.63 13.29.19 24.44 0 26.93 5.13.36.74.42 5.71.41 6.48-.09 6.2-12.47 11.04-27.66 10.83z" fill="#e8a825"/><ellipse cx="390.11" cy="351.37" rx="11.22" ry="27.5" transform="rotate(-89.18 378.257 345.659)" fill="#f8c244"/><ellipse cx="390.11" cy="351.37" rx="9.56" ry="23.43" transform="rotate(-89.18 378.257 345.659)" fill="#e8a825"/><path d="M369.36 332.77l3.76.06a3.07 3.07 0 011.66-2.3l2.49.4a2.86 2.86 0 00-1.63 2.16c0 1.08 1.5 1.83 3.62 1.86a5.67 5.67 0 004.45-1.65c1.51-1.53 3.23-2.46 6.47-2.42 3.08.05 5.41 1 5.95 2.38l3.76.05v.94l-3.6-.05a2.71 2.71 0 01-1.33 2l-2.45-.42a2.49 2.49 0 001.29-1.89c0-1.17-1.69-1.63-3.17-1.65a5.22 5.22 0 00-4.27 1.82c-1.58 1.54-3.53 2.3-6.84 2.25-2.94 0-5.68-.91-6.29-2.49l-3.86-.05z" fill="#f8c244"/><path d="M387 341.55c-15.19-.22-27.43-5.41-27.34-11.61 0-.69-.52-4.55-.22-5.2 2.4-5.21 14.38-5.82 27.88-5.63 13.29.19 24.44 0 26.93 5.13.35.74.42 5.71.41 6.48-.08 6.2-12.46 11.05-27.66 10.83z" fill="#e8a825"/><ellipse cx="392.95" cy="342.64" rx="11.22" ry="27.5" transform="rotate(-89.18 381.095 336.926)" fill="#f8c244"/><ellipse cx="392.95" cy="342.64" rx="9.56" ry="23.43" transform="rotate(-89.18 381.095 336.926)" fill="#e8a825"/><path d="M372.2 324.04l3.75.06a3.08 3.08 0 011.67-2.3l2.49.4a2.86 2.86 0 00-1.63 2.16c0 1.08 1.5 1.83 3.62 1.86a5.7 5.7 0 004.45-1.65c1.51-1.53 3.23-2.46 6.46-2.42s5.42 1 6 2.38h3.75v.96h-3.61a2.69 2.69 0 01-1.33 2l-2.44-.42a2.52 2.52 0 001.29-1.89c0-1.17-1.69-1.63-3.18-1.65a5.2 5.2 0 00-4.26 1.82c-1.59 1.54-3.53 2.3-6.84 2.25-2.94 0-5.68-.91-6.29-2.49l-3.87-.05z" fill="#f8c244"/><path d="M387 332.27c-15.19-.22-27.43-5.42-27.34-11.61 0-.69-.52-4.56-.22-5.21 2.4-5.2 14.38-5.81 27.88-5.62 13.29.19 24.44 0 26.93 5.13.35.73.42 5.7.41 6.48-.08 6.19-12.46 11.05-27.66 10.83z" fill="#e8a825"/><ellipse cx="392.95" cy="333.36" rx="11.22" ry="27.5" transform="rotate(-89.18 381.094 327.644)" fill="#f8c244"/><ellipse cx="392.95" cy="333.36" rx="9.56" ry="23.43" transform="rotate(-89.18 381.094 327.644)" fill="#e8a825"/><path d="M372.2 314.76l3.75.05a3.08 3.08 0 011.67-2.3l2.49.4a2.89 2.89 0 00-1.63 2.16c0 1.08 1.5 1.83 3.62 1.86a5.67 5.67 0 004.45-1.65c1.51-1.53 3.23-2.46 6.46-2.41s5.42 1 6 2.38l3.75.05v.94l-3.61-.05a2.67 2.67 0 01-1.33 1.95l-2.44-.41a2.52 2.52 0 001.29-1.9c0-1.16-1.69-1.63-3.18-1.65a5.2 5.2 0 00-4.26 1.82c-1.59 1.54-3.53 2.3-6.84 2.26-2.94 0-5.68-.92-6.29-2.49l-3.87-.06z" fill="#f8c244"/><path d="M443.62 366.33c-13.25-.19-23.93-4.73-23.86-10.13 0-.6-.45-4-.19-4.54 2.09-4.54 12.54-5.08 24.32-4.91 11.6.17 21.33 0 23.5 4.48.31.64.37 5 .36 5.65-.08 5.41-10.88 9.61-24.13 9.45z" fill="#e8a825"/><ellipse cx="449.56" cy="369.51" rx="9.79" ry="23.99" transform="rotate(-89.4 435.97 363.93)" fill="#f8c244"/><ellipse cx="449.56" cy="369.51" rx="8.34" ry="20.44" transform="rotate(-89.18 437.71 363.802)" fill="#e8a825"/><path d="M430.69 351.05l3.28.05a2.68 2.68 0 011.45-2l2.17.35a2.53 2.53 0 00-1.42 1.89c0 .94 1.31 1.59 3.16 1.62a5 5 0 003.88-1.44 6.94 6.94 0 015.64-2.1c2.7 0 4.73.84 5.2 2.07l3.28.05v.82l-3.14-.05a2.41 2.41 0 01-1.16 1.71l-2.14-.37a2.18 2.18 0 001.11-1.66c0-1-1.48-1.42-2.77-1.44a4.51 4.51 0 00-3.72 1.59c-1.39 1.34-3.08 2-6 2-2.56 0-5-.79-5.49-2.17h-3.37z" fill="#f8c244"/><path d="M446.09 358.71c-13.25-.19-23.93-4.72-23.85-10.13 0-.6-.45-4-.19-4.54 2.09-4.54 12.54-5.07 24.32-4.91 11.59.17 21.32 0 23.49 4.48.32.64.37 5 .36 5.65-.07 5.41-10.88 9.64-24.13 9.45z" fill="#e8a825"/><ellipse cx="452.04" cy="361.89" rx="9.79" ry="23.99" transform="rotate(-89.18 440.183 356.18)" fill="#f8c244"/><ellipse cx="452.04" cy="361.89" rx="8.34" ry="20.44" transform="rotate(-89.18 440.183 356.18)" fill="#e8a825"/><path d="M433.17 343.49h3.27a2.68 2.68 0 011.46-2l2.17.35a2.47 2.47 0 00-1.42 1.88c0 .94 1.31 1.6 3.15 1.62a4.92 4.92 0 003.89-1.44 6.92 6.92 0 015.64-2.1c2.69 0 4.73.85 5.2 2.07l3.27.05v.82l-3.15-.05a2.34 2.34 0 01-1.16 1.71l-2.13-.36a2.21 2.21 0 001.12-1.66c0-1-1.47-1.42-2.77-1.44a4.6 4.6 0 00-3.71 1.55c-1.38 1.34-3.08 2-6 2-2.57 0-5-.8-5.49-2.17l-3.37-.05z" fill="#f8c244"/><path d="M446.09 350.61c-13.25-.19-23.93-4.72-23.85-10.13 0-.6-.45-4-.19-4.54 2.09-4.54 12.54-5.07 24.32-4.91 11.59.17 21.32 0 23.49 4.48.32.64.37 5 .36 5.65-.07 5.41-10.88 9.64-24.13 9.45z" fill="#e8a825"/><ellipse cx="452.04" cy="353.79" rx="9.79" ry="23.99" transform="rotate(-89.18 440.185 348.081)" fill="#f8c244"/><ellipse cx="452.04" cy="353.79" rx="8.34" ry="20.44" transform="rotate(-89.18 440.185 348.081)" fill="#e8a825"/><path d="M433.17 335.33l3.27.05a2.67 2.67 0 011.46-2l2.17.34a2.5 2.5 0 00-1.42 1.89c0 .94 1.31 1.6 3.15 1.62a4.92 4.92 0 003.89-1.44 6.92 6.92 0 015.64-2.1c2.69 0 4.73.85 5.2 2.07l3.27.05v.82l-3.15-.05a2.34 2.34 0 01-1.16 1.71l-2.13-.36a2.21 2.21 0 001.12-1.66c0-1-1.47-1.42-2.77-1.44a4.57 4.57 0 00-3.72 1.59c-1.38 1.34-3.08 2-6 2-2.57 0-5-.8-5.49-2.17l-3.37-.05z" fill="#f8c244"/><path d="M315.66 342.04c-14.57 4.28-27.8 2.93-29.55-3-.19-.66-1.84-4.2-1.74-4.9.75-5.68 12-9.81 25-13.62 12.75-3.74 23.34-7.24 27.24-3.05.56.59 2.09 5.33 2.31 6.07 1.71 5.95-8.69 14.21-23.26 18.5z" fill="#e8a825"/><ellipse cx="316.75" cy="343.88" rx="27.5" ry="11.22" transform="rotate(-16.37 252.906 355.992)" fill="#f8c244"/><ellipse cx="316.75" cy="343.88" rx="23.43" ry="9.56" transform="rotate(-16.3 254.945 358.135)" fill="#e8a825"/><path d="M296.34 329.69l3.6-1.06a3 3 0 01.92-2.69l2.49-.35a2.86 2.86 0 00-.92 2.54c.31 1 2 1.31 4 .71a5.65 5.65 0 003.76-2.9c1-1.9 2.36-3.3 5.47-4.21 3-.87 5.46-.67 6.39.51l3.6-1.06.27.9-3.46 1a2.7 2.7 0 01-.7 2.26l-2.46.33a2.48 2.48 0 00.7-2.18c-.33-1.12-2.09-1.06-3.52-.64a5.19 5.19 0 00-3.53 3c-1.06 1.94-2.7 3.24-5.87 4.17-2.82.83-5.69.8-6.74-.52l-3.71 1.09z" fill="#f8c244"/><path d="M223.67 361.62c-15.19-.22-27.43-5.42-27.34-11.61 0-.69-.52-4.56-.22-5.2 2.4-5.21 14.38-5.82 27.88-5.63 13.29.19 24.44 0 26.93 5.13.35.73.42 5.71.41 6.48-.09 6.2-12.47 11.04-27.66 10.83z" fill="#e8a825"/><ellipse cx="229.61" cy="362.71" rx="11.22" ry="27.5" transform="rotate(-89.18 217.75 357)" fill="#f8c244"/><ellipse cx="229.61" cy="362.71" rx="9.56" ry="23.43" transform="rotate(-89.18 217.75 357)" fill="#e8a825"/><path d="M208.86 344.11l3.75.05a3 3 0 011.67-2.29l2.49.4a2.86 2.86 0 00-1.63 2.16c0 1.07 1.5 1.82 3.62 1.85a5.65 5.65 0 004.45-1.65c1.51-1.52 3.23-2.45 6.47-2.41 3.08 0 5.41 1 5.95 2.38l3.75.05v.94l-3.6-.05a2.72 2.72 0 01-1.33 1.95l-2.45-.41a2.52 2.52 0 001.29-1.89c0-1.17-1.69-1.64-3.18-1.66a5.23 5.23 0 00-4.26 1.82c-1.59 1.54-3.53 2.31-6.84 2.26-2.94 0-5.68-.92-6.29-2.49l-3.86-.05z" fill="#f8c244"/><path d="M329.36 316.22c-13.88 6.17-27.18 6.57-29.69.91-.28-.63-2.38-3.92-2.38-4.63 0-5.73 10.62-11.31 23-16.79 12.15-5.39 22.19-10.25 26.6-6.61.64.51 2.78 5 3.09 5.71 2.47 5.68-6.74 15.25-20.62 21.41z" fill="#e8a825"/><ellipse cx="328.43" cy="318.85" rx="27.5" ry="11.22" transform="rotate(-23.94 284.067 324.21)" fill="#f8c244"/><ellipse cx="328.43" cy="318.85" rx="23.43" ry="9.56" transform="rotate(-23.94 284.067 324.21)" fill="#e8a825"/><path d="M308.58 306.49l3.43-1.53a3 3 0 01.55-2.78l2.43-.68a2.86 2.86 0 00-.58 2.64c.44 1 2.13 1 4.07.18a5.67 5.67 0 003.34-3.37c.74-2 1.91-3.58 4.87-4.89s5.32-1.39 6.4-.34l3.43-1.52.38.86-3.29 1.46a2.71 2.71 0 01-.39 2.33l-2.4.65a2.48 2.48 0 00.38-2.26c-.47-1.07-2.21-.78-3.57-.17a5.19 5.19 0 00-3.11 3.44c-.8 2.06-2.25 3.56-5.27 4.91-2.69 1.19-5.54 1.54-6.75.37l-3.5 1.61z" fill="#f8c244"/><path d="M165 302.74c-11.28-10.16-17.07-22.13-12.93-26.74.46-.51 2.61-3.77 3.26-4.06 5.23-2.34 14.65 5.09 24.69 14.13 9.87 8.89 18.4 16.07 16.89 21.59-.22.78-3.44 4.57-4 5.15-4.08 4.6-16.59.09-27.91-10.07z" fill="#e8a825"/><ellipse cx="181.8" cy="307.85" rx="11.22" ry="27.5" transform="rotate(-48 159.12 305.833)" fill="#f8c244"/><ellipse cx="181.8" cy="307.85" rx="9.56" ry="23.43" transform="rotate(-48 159.12 305.833)" fill="#e8a825"/><path d="M165.41 279.81l2.79 2.51a3.08 3.08 0 012.77-.63l1.61 1.94a2.85 2.85 0 00-2.65.56c-.72.8-.07 2.36 1.5 3.78a5.69 5.69 0 004.44 1.68c2.14-.15 4 .28 6.45 2.45s3.44 4.3 2.92 5.71l2.79 2.51-.63.7-2.68-2.41a2.71 2.71 0 01-2.29.59l-1.57-1.92a2.52 2.52 0 002.22-.58c.79-.87-.19-2.34-1.3-3.33a5.18 5.18 0 00-4.41-1.44c-2.2.11-4.17-.59-6.63-2.81-2.18-2-3.67-4.43-3.09-6l-2.87-2.63z" fill="#f8c244"/><path d="M245.59 324.98c-15.13 1.39-27.85-2.48-28.42-8.65-.06-.68-1-4.47-.77-5.15 1.83-5.43 13.68-7.31 27.13-8.55 13.23-1.22 24.3-2.61 27.32 2.25.43.69 1 5.63 1.09 6.4.57 6.21-11.23 12.3-26.35 13.7z" fill="#e8a825"/><ellipse cx="249.79" cy="326.17" rx="27.5" ry="11.22" transform="rotate(-5.27 56.433 382.459)" fill="#f8c244"/><ellipse cx="249.79" cy="326.17" rx="23.43" ry="9.56" transform="rotate(-5.27 56.433 382.459)" fill="#e8a825"/><path d="M229 309.14l3.74-.35a3.07 3.07 0 011.42-2.46l2.51.14a2.89 2.89 0 00-1.39 2.32c.1 1.07 1.69 1.66 3.8 1.46a5.69 5.69 0 004.25-2.11c1.34-1.68 2.95-2.79 6.17-3.08s5.49.39 6.18 1.73l3.74-.35.08.94-3.59.33a2.71 2.71 0 01-1.11 2.08l-2.48-.15a2.52 2.52 0 001.08-2c-.11-1.16-1.85-1.44-3.33-1.31a5.22 5.22 0 00-4 2.27c-1.41 1.7-3.27 2.66-6.56 3-2.93.27-5.74-.31-6.52-1.8l-3.85.35z" fill="#f8c244"/><path d="M176.34 336.49c-12.28-8.94-19.27-20.25-15.63-25.25.41-.56 2.21-4 2.82-4.38 5-2.87 15.1 3.54 26 11.49 10.74 7.83 20 14.09 19 19.73-.13.81-3 4.91-3.4 5.53-3.6 4.97-16.51 1.78-28.79-7.12z" fill="#e8a825"/><ellipse cx="191.77" cy="340.52" rx="11.22" ry="27.5" transform="rotate(-53.94 171.549 337.654)" fill="#f8c244"/><ellipse cx="191.77" cy="340.52" rx="9.56" ry="23.43" transform="rotate(-53.94 171.549 337.654)" fill="#e8a825"/><path d="M174.35 313.61l3 2.21a3.09 3.09 0 012.69-.92l1.8 1.77a2.85 2.85 0 00-2.58.82c-.63.87.17 2.36 1.89 3.61a5.62 5.62 0 004.58 1.21c2.12-.37 4.06-.14 6.68 1.77s3.86 3.92 3.49 5.37l3 2.21-.55.76-2.91-2.12a2.72 2.72 0 01-2.22.83l-1.76-1.75a2.54 2.54 0 002.15-.8c.69-.95-.44-2.31-1.64-3.18a5.21 5.21 0 00-4.53-1c-2.19.34-4.22-.16-6.89-2.1-2.38-1.73-4.11-4-3.7-5.66l-3.13-2.28z" fill="#f8c244"/><path d="M201.07 325.49c-13.34-7.25-21.77-17.53-18.81-23 .33-.6 1.65-4.27 2.22-4.71 4.54-3.49 15.43 1.53 27.3 8 11.68 6.34 21.65 11.33 21.46 17.05 0 .82-2.27 5.25-2.64 5.93-2.96 5.41-16.18 3.95-29.53-3.27z" fill="#e8a825"/><ellipse cx="214.65" cy="328.4" rx="11.22" ry="27.5" transform="rotate(-61.5 196.95 324.702)" fill="#f8c244"/><ellipse cx="214.65" cy="328.4" rx="9.56" ry="23.43" transform="rotate(-61.5 196.95 324.702)" fill="#e8a825"/><path d="M196.09 303.08l3.3 1.79a3 3 0 012.55-1.26l2 1.51a2.86 2.86 0 00-2.44 1.15c-.52 1 .47 2.32 2.34 3.33a5.61 5.61 0 004.7.6c2-.65 4-.67 6.85.87s4.35 3.38 4.17 4.87l3.3 1.8-.45.82-3.17-1.72a2.67 2.67 0 01-2.08 1.11l-2-1.5a2.49 2.49 0 002-1.08c.56-1-.73-2.23-2-2.94a5.23 5.23 0 00-4.62-.37c-2.12.63-4.2.4-7.1-1.18-2.59-1.4-4.61-3.44-4.42-5.12l-3.4-1.84z" fill="#f8c244"/><circle cx="274.05" cy="314.44" r="25.21" fill="#e8a825"/><circle cx="271.25" cy="314.44" r="25.21" fill="#f8c244"/><circle cx="271.25" cy="314.44" r="21.48" fill="#e8a825"/><path d="M269.28 327.97v-3.48a10 10 0 01-5.22-1.5l.82-2.29a9.08 9.08 0 004.91 1.47c2.42 0 4.06-1.4 4.06-3.34s-1.33-3-3.86-4.06c-3.47-1.36-5.62-2.93-5.62-5.89s2-5 5.15-5.49v-3.4h2.11v3.3a9.08 9.08 0 014.43 1.2l-.85 2.25a8.22 8.22 0 00-4.29-1.16c-2.63 0-3.62 1.57-3.62 2.93 0 1.77 1.26 2.66 4.23 3.88 3.51 1.44 5.28 3.21 5.28 6.24 0 2.69-1.87 5.22-5.38 5.8v3.54z" fill="#f8c244"/><circle cx="215.3" cy="316.13" r="25.21" fill="#e8a825"/><circle cx="212.5" cy="316.13" r="25.21" fill="#f8c244"/><circle cx="212.5" cy="316.13" r="21.48" fill="#e8a825"/><path d="M210.53 329.67v-3.45a9.78 9.78 0 01-5.21-1.5l.81-2.28a9.08 9.08 0 004.91 1.47c2.42 0 4.06-1.4 4.06-3.34s-1.33-3-3.85-4.06c-3.48-1.36-5.63-2.93-5.63-5.9s2-5 5.15-5.48v-3.45h2.11v3.31a9.06 9.06 0 014.43 1.19l-.85 2.25a8.19 8.19 0 00-4.29-1.16c-2.63 0-3.62 1.57-3.62 2.93 0 1.78 1.27 2.66 4.23 3.89 3.51 1.43 5.28 3.2 5.28 6.24 0 2.69-1.87 5.21-5.38 5.79v3.55z" fill="#f8c244"/><circle cx="246.41" cy="343.58" r="25.21" fill="#e8a825"/><circle cx="243.96" cy="342.23" r="25.21" fill="#f8c244"/><circle cx="243.96" cy="342.23" r="21.48" fill="#e8a825"/><path d="M235.71 353.14l1.66-3a9.92 9.92 0 01-3.85-3.82l1.82-1.61a9.07 9.07 0 003.59 3.65c2.13 1.17 4.23.73 5.17-1s.3-3.3-1.42-5.41c-2.39-2.87-3.52-5.28-2.09-7.88s4.16-3.39 7.16-2.33l1.65-3 1.85 1-1.59 2.9a9.11 9.11 0 013.31 3.18l-1.83 1.56a8.21 8.21 0 00-3.21-3.08c-2.3-1.27-3.92-.37-4.57.82-.86 1.56-.18 2.94 1.83 5.44 2.38 2.95 3.08 5.36 1.62 8-1.3 2.36-4.15 3.66-7.51 2.48l-1.71 3.1z" fill="#f8c244"/></svg>