<svg data-name="Layer 1" xmlns="http://www.w3.org/2000/svg" xmlns:xlink="http://www.w3.org/1999/xlink" viewBox="0 0 417.8 388.72"><defs><linearGradient id="b" x1="236.3" y1="245.82" x2="387.47" y2="313.61" gradientUnits="userSpaceOnUse"><stop offset=".02" stop-color="#fff" stop-opacity="0"/><stop offset=".32" stop-color="#fff" stop-opacity=".39"/><stop offset=".68" stop-color="#fff" stop-opacity=".68"/><stop offset="1" stop-color="#fff"/></linearGradient><linearGradient id="a" x1="88.3" y1="329.8" x2="206.62" y2="242.67" gradientUnits="userSpaceOnUse"><stop offset=".01"/><stop offset=".13" stop-opacity=".69"/><stop offset="1" stop-opacity="0"/></linearGradient><linearGradient id="c" x1="206.81" y1="138.99" x2="196.06" y2="471.36" xlink:href="#a"/><linearGradient id="d" x1="209.72" y1="54.01" x2="286.16" y2="54.01" xlink:href="#b"/><linearGradient id="e" x1="135.29" y1="447.88" x2="128.84" y2="226.84" xlink:href="#a"/></defs><path d="M413.14 296.98c-3.34 14-8.15 27.86-16.65 39.47-12.93 17.66-33.15 28.44-53.42 36.71-16.71 6.81-34.27 12.38-52.32 12.68-24.51.41-48.29-8.89-72.81-9.53-29-.75-57.07 10.63-86 12.27a130.07 130.07 0 01-85.05-25.92 121.72 121.72 0 01-15.31-13.75A108.81 108.81 0 018.2 311.43a119.33 119.33 0 01-5.5-21.77C.78 277.8.27 265.66.07 253.6c-.63-38.18 2.58-79.11 26.08-109.21 8.25-10.56 18.64-19.24 28.92-27.83l56.77-47.39c14.85-12.4 29.77-24.84 46.32-34.86 18.3-11.07 38.31-19 58.37-26.42 8.9-3.28 17.94-6.51 27.38-7.53 20.68-2.24 41.06 6.37 58.8 17.23 16.64 10.18 32.65 23.39 39.5 41.69 5.76 15.32 4.41 32.35 7.81 48.38 7.09 33.47 34.24 57.9 51.12 86.56 18.33 31.12 20.24 68.03 12 102.76z" fill="#68e1fd" opacity=".18" style="isolation:isolate"/><path d="M153.1 106.21a6.35 6.35 0 00-5.2 3.7 9.16 9.16 0 00-.27 6.54 5.91 5.91 0 01.5 2.56 5.15 5.15 0 01-1 2 14.93 14.93 0 00-2.9 8.28c0 3 1.71 6.05 4.5 7.05-1.78 3.74-1.83 8.54.78 11.76s8.14 3.93 10.9.84a7.74 7.74 0 0014.37-2c2.62 1.47 6.18.24 7.9-2.22a10 10 0 00.92-8.64 25.34 25.34 0 00-4.51-7.74c2.14-1.62 4.38-3.35 5.4-5.83s.28-5.91-2.22-6.87a9.5 9.5 0 00-9.2-14.65c-1.93.22-3.37 1.35-5.28.52-1.48-.65-2.39-2.61-3.62-3.62-5.46-4.44-14.43 1.37-11.07 8.32zM297 212.23a97.2 97.2 0 01-194.22 0z" fill="#68e1fd"/><path d="M265.28 220.25S251 296.54 235.7 299.31s29.58 5.91 52.17-28.51c19.65-29.93 17.13-50.55 17.13-50.55z" transform="translate(-8 -8.02)" fill="url(#b)"/><path d="M137.64 220.78s7.89 72.07 54.86 79.24 59.88 1.44 59.88 1.44-29 28.68-68.49 17.92-61.48-52.93-61.48-52.93-12.72-35.26-11.65-46.2z" transform="translate(-8 -8.02)" fill="url(#a)"/><path d="M169.87 227.58c.2-.28.49-.77.84-1.21.94-1.27 1.89-1.22 2.49.28 1 2.43 2.16 4.89 1.43 7.62a11.26 11.26 0 01-1.26 2.3c-1.53 2.76-5.08 4.67-3.6 8.68a1.4 1.4 0 01-.1 1.15c-1.26 1.85-.45 3.24.67 4.84 1.56 2.23 2.66 4.79 4.26 7 2.29 3.12 3.61 7 7.07 9.19 1.68 1.06 3.51 1.93 5.09 3.11a4.5 4.5 0 011.65 2.63c.38 2.76.38 5.57.67 8.35.23 2.23.76 4.45 1 6.68a9.61 9.61 0 01-.08 3.8 8.65 8.65 0 00-.05 5.64c.54 1.64 1 3.31 1.49 5 1.46 4.59 8.26 8 13.09 6.55l-5.14-2.59c.93-1 1.65-1.73 2.46-2.58l-2.13-1.28 2-1.2c-.22-.95-.44-1.93-.7-3.13l3 .48c.11-.81.21-1.5.33-2.34 1.91-.19 3.83-.35 6-.55-.22-1.28-.43-2.47-.65-3.66 3.26.93 5.24.15 7.39-2.62a33.23 33.23 0 013.08-3c1.41-1.41 3-2.71 3-5 0-.35.83-.82 1.35-1.05 2.59-1.08 4.84-3.06 8-2.8.47 0 1.18-.66 1.47-1.2 1.49-2.87 2.93-5.79 4.32-8.71a3.2 3.2 0 00.15-1.77c-.2-1.48-.53-2.94 1.48-3.49.3-.09.5-.6.74-.92 1.21-1.71 2.38-3.46 3.66-5.11 1-1.26 1.24-4.82.25-6-.2-.23-.6-.51-.8-.46-2.08.58-3.23-.89-4.46-2a3.89 3.89 0 00-3.65-1c-1.06.2-2.26-.47-3.37-.35-2.28.23-3.55-1.3-5.15-2.45-1.24-.88-2.87-1.66-4.27.17-2-1.25-3.51-2.76-3.75-5.14a6.5 6.5 0 00-5.07-6.13 10.45 10.45 0 00-3.86-.25 3.21 3.21 0 01-3.3-1.23c-1.24-1.58-2.33-3.42-4.64-3.84-.37 0-.85-.72-.93-1.17a2.66 2.66 0 00-2-2.29 9.9 9.9 0 00-1.67-.37 7.07 7.07 0 00-2 0 9.62 9.62 0 01-7.4-2c-3.26-2.5-8.67-1.2-11 2.19l-.1.14c-.49.7-1 1.41-1.54 2.16a15.23 15.23 0 00-2.15-1.58c-1.06-.53-2.11-1-3.31.05a2.4 2.4 0 01-2.28-.18c-.18-.15 1.32-4.51 1.17-4.66h-6.66c.09.29 3 4.81 3.09 5z" transform="translate(-8 -8.02)" fill="url(#c)"/><path d="M262.81 287.08c-1.85 3.9-5 7-8.21 9.88a145.15 145.15 0 01-24.83 18.5 99.23 99.23 0 01-16.79 7.8c-26.39 9.26-55.46 5.69-82.84 0-13.73-2.85-27.92-6.21-41.62-3.24-9 1.95-17.17 6.5-25.2 11l-31.78 17.84a112.89 112.89 0 01-14.35-18.76 103.17 103.17 0 01-9-18.67 119.33 119.33 0 01-5.5-21.77c5.38-2.55 14.2-1.79 19.17-2.73 10.83-2.06 21.43-5.24 32-8.41l29.34-8.82c5.52-1.66 11-3.32 16.39-5.45 4.94-2 9.73-4.35 14.84-5.82 8.15-2.35 16.76-2.31 25.23-2.27l42.11.25a4.43 4.43 0 012.34.44c1.89 1.18 1 4.13-.39 5.86-5.82 7.32-15.81 9.71-25.09 10.65-2.75.28-5.59.5-8.05 1.74s-4.5 3.82-4.17 6.56c.47 4.14 5.39 5.92 9.47 6.75q17.92 3.57 36.12 5.47c6.77.69 13.63 1.18 20.36.17 17.8-2.66 32.64-15.44 50.21-19.32 2.43 3.57 2.09 8.46.24 12.35z" fill="#faaf90"/><ellipse cx="199.59" cy="212.76" rx="96.95" ry="6.18" fill="#3e3e54"/><path d="M171.24 198.35a100.4 100.4 0 0115.76-2.13c7.2-.53 14.5-.87 21.58.55a106.14 106.14 0 0113.76 4.21 266.67 266.67 0 0058.5 13.14c-37.52 1.28-75.06 0-112.54-1.83q-7.7-.39-15.39-.81c-3.92-.21-10.68.66-14.06-1.06 2.22-3.55 10.56-4.41 14.29-5.82 5.98-2.24 11.86-4.76 18.1-6.25z" fill="#3e3e54"/><path d="M176.34 199.86s-2.42-54.86-14-74.22l3.49-1.61s16.41 75.56 16.68 76.37-2.14 3.22-6.17-.54z" fill="#3e3e54"/><path d="M211 106.53a6.34 6.34 0 00-6.17 1.62 9.17 9.17 0 00-2.57 6 5.88 5.88 0 01-.44 2.58 5.18 5.18 0 01-1.64 1.55 15 15 0 00-5.65 6.72c-1 2.79-.54 6.26 1.72 8.19-3 2.86-4.74 7.33-3.45 11.27s6.23 6.56 9.9 4.64a7.74 7.74 0 0014.15 3.22c1.93 2.3 5.7 2.41 8.18.72a10 10 0 003.92-7.76 25.5 25.5 0 00-1.47-8.83c2.57-.75 5.28-1.58 7.11-3.54s2.36-5.42.35-7.21a9.5 9.5 0 00-3.41-17c-1.88-.48-3.63.07-5.12-1.38-1.15-1.13-1.3-3.29-2.1-4.67-3.54-6.06-13.98-3.81-13.31 3.88z" fill="#68e1fd"/><path d="M212.72 152.15c-.07-1.84-.12-3.8.82-5.38a9.7 9.7 0 012.17-2.31 24.88 24.88 0 014.49-3.22 8.65 8.65 0 015.35-1c-2.05 1.88-5 2.51-7.14 4.25a19.6 19.6 0 00-5.52 7.77c-1.63 5.39-1.71 11.9-2.55 17.49s-1.68 11.35-2.53 17c-.88 6-2.42 12.21-2.66 18.25 0 .85-3.16 2.26-5.6-2.69 3-9 5.48-18.17 7.74-27.36 1.91-7.83 3.6-15.74 4.77-23.72.53-3.6 1.43-7.7 1.24-11.34-.21-3.85-4.27-7.62-7.51-9.27-.22-.12-.45-.23-.68-.33-.34.24-.08.78.2 1.1 2.46 2.74 5.77 4.93 7.06 8.38.34.91.52 1.87.83 2.79-.2-.59.52-2.31.43-3.16a25.6 25.6 0 01-.26-3.42 45 45 0 00-.59-8l3.84-.27s-1.62 10.8-3.62 24.33" fill="#3e3e54"/><path d="M254.38 113.91a6.33 6.33 0 00-6.17 1.62 9.17 9.17 0 00-2.57 6 6 6 0 01-.44 2.58 5.18 5.18 0 01-1.64 1.55 15 15 0 00-5.65 6.71c-1 2.8-.55 6.27 1.72 8.2-3 2.86-4.74 7.33-3.45 11.27s6.23 6.56 9.9 4.64a7.74 7.74 0 0014.15 3.22c1.93 2.3 5.7 2.41 8.18.72a10.06 10.06 0 003.92-7.76 25.51 25.51 0 00-1.48-8.83c2.58-.75 5.28-1.58 7.12-3.54s2.35-5.42.35-7.21a9.5 9.5 0 00-3.41-17c-1.88-.48-3.63.07-5.12-1.38-1.16-1.13-1.31-3.29-2.1-4.67-3.54-6.05-13.98-3.81-13.31 3.88z" fill="#68e1fd"/><path d="M256.1 159.53c-.07-1.84-.12-3.8.81-5.38a9.75 9.75 0 012.18-2.31 24.88 24.88 0 014.49-3.22 8.64 8.64 0 015.35-1c-2.05 1.88-5 2.51-7.14 4.25a19.72 19.72 0 00-5.53 7.77c-1.62 5.39-1.7 11.9-2.54 17.49s-1.69 11.35-2.53 17c-.88 6-2.42 12.21-2.67 18.25 0 .85-3.15 2.26-5.59-2.69 3-9 5.48-18.17 7.73-27.36 1.92-7.83 3.61-15.74 4.78-23.72.52-3.6 1.43-7.7 1.23-11.34-.2-3.85-4.27-7.62-7.5-9.27-.22-.12-.45-.23-.68-.33-.34.24-.09.78.2 1.1 2.46 2.74 5.77 4.93 7.06 8.38.34.91.52 1.87.83 2.79-.2-.59.52-2.31.42-3.16a29.41 29.41 0 01-.26-3.42 43.24 43.24 0 00-.59-8l3.85-.27s-1.62 10.8-3.64 24.33" fill="#3e3e54"/><path d="M225.36 156.32a3.52 3.52 0 00-3.44.91 5.12 5.12 0 00-1.44 3.36 3.32 3.32 0 01-.25 1.44 2.91 2.91 0 01-.91.87 8.39 8.39 0 00-3.16 3.75 4.23 4.23 0 001 4.58 6.3 6.3 0 00-1.92 6.29c.72 2.2 3.47 3.67 5.52 2.6a4.33 4.33 0 007.91 1.79 3.54 3.54 0 004.57.41 5.62 5.62 0 002.19-4.33 14.43 14.43 0 00-.82-4.94 8.48 8.48 0 004-2c1-1.09 1.31-3 .2-4a5.32 5.32 0 00-1.91-9.48c-1.05-.27-2 0-2.86-.77-.65-.63-.73-1.84-1.18-2.61-2.04-3.42-7.86-2.16-7.5 2.13z" fill="#68e1fd"/><path d="M226.32 181.81a5.44 5.44 0 01.46-3 5.12 5.12 0 011.21-1.29 13.39 13.39 0 012.51-1.8 4.82 4.82 0 013-.56c-1.14 1-2.78 1.4-4 2.37a11.07 11.07 0 00-3.09 4.34c-.9 3-.95 6.65-1.42 9.77l-1.41 9.51c-.49 3.34-1.35 6.83-1.49 10.2 0 .48-1.76 1.26-3.12-1.5 1.65-5 3.06-10.15 4.32-15.29 1.07-4.37 2-8.79 2.66-13.25a33.06 33.06 0 00.69-6.33c-.11-2.15-2.38-4.26-4.19-5.18l-.38-.19c-.19.14 0 .44.11.62 1.38 1.53 3.23 2.75 3.95 4.68.19.51.29 1 .46 1.56-.11-.33.29-1.29.24-1.76a15.07 15.07 0 01-.15-1.92 24 24 0 00-.33-4.48l2.15-.15-2 13.59" fill="#3e3e54"/><path d="M278.7 157.18a3.72 3.72 0 00-3.72.39 5.34 5.34 0 00-2 3.27 3.61 3.61 0 01-.48 1.45 2.9 2.9 0 01-1.09.76 8.83 8.83 0 00-3.87 3.4 4.43 4.43 0 00.28 4.9 6.63 6.63 0 00-3 6.23c.41 2.4 3 4.35 5.33 3.56a4.54 4.54 0 007.92 3.11 3.73 3.73 0 004.68 1.14 5.91 5.91 0 003-4.16 15.19 15.19 0 00-.08-5.25 8.81 8.81 0 004.43-1.43c1.24-1 1.84-2.93.84-4.14a5.58 5.58 0 00-.49-10.14c-1-.44-2.11-.27-2.84-1.25-.58-.76-.47-2-.81-2.89-1.57-3.86-7.8-3.47-8.1 1.05z" fill="#68e1fd"/><path d="M275.69 183.77a5.71 5.71 0 01.94-3 5.55 5.55 0 011.47-1.15 14.48 14.48 0 012.88-1.47 5.05 5.05 0 013.19-.11c-1.35.91-3.1 1-4.51 1.84a11.43 11.43 0 00-3.89 4c-1.42 3-2 6.74-3 9.91l-3 9.65c-1 3.39-2.48 6.87-3.15 10.35-.09.49-2 1-3-2 2.51-5 4.78-10.05 6.89-15.19 1.8-4.37 3.47-8.8 4.85-13.33a34.67 34.67 0 001.71-6.47c.22-2.24-1.8-4.79-3.53-6l-.37-.25c-.22.11-.12.45 0 .66 1.19 1.8 2.91 3.36 3.36 5.48.11.55.13 1.13.23 1.69-.06-.36.51-1.3.53-1.8a15.36 15.36 0 01.15-2 26.44 26.44 0 00.36-4.7l2.25.18-4.24 13.79" fill="#3e3e54"/><path d="M119.22 157.18a4 4 0 00-3.26 2.27 5.71 5.71 0 00-.22 4.07 3.78 3.78 0 01.3 1.61 3.32 3.32 0 01-.63 1.26 9.38 9.38 0 00-1.87 5.14 4.71 4.71 0 002.76 4.45 7 7 0 00.4 7.33c1.6 2 5 2.51 6.79.6a4.82 4.82 0 009-1.15 3.94 3.94 0 004.94-1.32 6.29 6.29 0 00.64-5.39 15.82 15.82 0 00-2.76-4.85 9.49 9.49 0 003.41-3.6c.65-1.54.21-3.68-1.34-4.29a5.93 5.93 0 00-5.63-9.2c-1.2.12-2.11.82-3.29.28-.92-.41-1.47-1.64-2.24-2.28-3.41-2.84-9.04.71-7 5.07z" fill="#68e1fd"/><path d="M130 183.52a6 6 0 01-.67-3.33 5.81 5.81 0 01.78-1.81 14.93 14.93 0 011.94-2.85 5.38 5.38 0 012.91-1.73c-.8 1.53-2.37 2.53-3.27 4a12.26 12.26 0 00-1.57 5.73c.2 3.5 1.55 7.33 2.26 10.78s1.44 7 2.17 10.51c.76 3.69 1.19 7.67 2.34 11.26.17.5-1.36 2-3.85-.38-.19-5.9-.68-11.81-1.33-17.67-.56-5-1.26-10-2.29-14.91a37.91 37.91 0 00-1.7-6.91c-.94-2.2-4.13-3.54-6.38-3.82h-.47c-.15.21.12.47.35.6 2 1.07 4.44 1.65 5.93 3.39.39.46.71 1 1.08 1.46-.24-.3-.19-1.47-.42-1.94a17.3 17.3 0 01-.89-2 28 28 0 00-2.06-4.57l2.19-1 3.08 15M172.25 141.57c1-1.72 2.49-3.21 3.25-5.08a15.65 15.65 0 00.77-6.14 26.28 26.28 0 01.39 5.74 5 5 0 014.5.78c-2 .18-4.08.39-5.71 1.55-2 1.43-2.86 4-3.14 6.44s-.12 4.94-.66 7.35c0-1.8-.9-3.52-1.1-5.24s.81-3.93 1.7-5.4zM161.29 132.66c-.44-.92-.79-2-1.7-2.47l3.31 6.34-5.19 1.65c-.45.14-1 .5-.82.93 1.43.13 2.81-.5 4.23-.7a7.38 7.38 0 017.64 4.42c-.13-.32.3-1.51.3-1.93a3.47 3.47 0 00-.34-1.77c-.45-.65-1.52-.93-2.18-1.34a13.16 13.16 0 01-5.25-5.13z" fill="#3e3e54"/><path d="M145.78 160.64a3.93 3.93 0 00-3.22 2.29 5.63 5.63 0 00-.16 4.06 3.69 3.69 0 01.3 1.59 3.21 3.21 0 01-.61 1.26 9.28 9.28 0 00-1.79 5.14 4.66 4.66 0 002.79 4.37 7 7 0 00.48 7.29c1.61 2 5.05 2.43 6.75.51a4.8 4.8 0 008.91-1.24 3.93 3.93 0 004.9-1.38 6.23 6.23 0 00.57-5.35 15.79 15.79 0 00-2.8-4.8 9.49 9.49 0 003.35-3.61c.63-1.54.17-3.66-1.38-4.26a5.89 5.89 0 00-5.7-9.08c-1.2.14-2.09.84-3.27.33-.92-.4-1.48-1.62-2.25-2.25-3.39-2.77-8.95.82-6.87 5.13z" fill="#68e1fd"/><path d="M160.19 218.68s-1.5-34-8.67-46l2.17-1s10.16 46.83 10.31 47.3-1.31 2-3.81-.3z" fill="#3e3e54"/><path d="M157.65 182.55a25.39 25.39 0 002-3.14 9.76 9.76 0 00.47-3.81 16.32 16.32 0 01.24 3.56 3.12 3.12 0 012.79.48 7.06 7.06 0 00-3.54 1 5.6 5.6 0 00-1.95 4 43.14 43.14 0 01-.4 4.56 28.8 28.8 0 00-.68-3.25 6 6 0 011.07-3.4zM150.86 177.03c-.28-.57-.49-1.25-1.06-1.53l2 3.93-3.21 1c-.28.09-.63.32-.51.58a11.85 11.85 0 002.62-.43 4.56 4.56 0 014.74 2.74c-.08-.2.18-.94.18-1.2a2.09 2.09 0 00-.21-1.1c-.28-.4-.94-.57-1.35-.83a8.22 8.22 0 01-3.2-3.16z" fill="#3e3e54"/><circle cx="239.54" cy="42.81" r="24.2" fill="#68e1fd"/><path d="M211.14 35.27a36 36 0 01-1.42 40.23c5.87.4 11.8 1.63 16.88 4.61s9.22 7.88 10.31 13.67a30.1 30.1 0 0140.72-7.55c-1-8.46-5.84-16.86-3.46-25.05 1.76-6 7-10.29 12-14.14a29.8 29.8 0 01-12.49-28.38c-4.9 4.11-11.95 5-18.15 3.47-5.19-1.32-8.44-4.73-13-6.95-3-1.45-2.23-1.35-4.34 1.29-1.49 1.85-2.61 3.94-4.19 5.74a40.83 40.83 0 01-10.47 8.54c-1.17.66-11.53 5.85-12.39 4.52z" transform="translate(-8 -8.02)" fill="url(#d)"/><path d="M238.39 318.13l-.62 5.35a99.23 99.23 0 01-16.79 7.8c-26.39 9.26-55.46 5.69-82.84 0-13.73-2.85-27.92-6.21-41.62-3.24-9 1.95-17.17 6.5-25.2 11l-31.78 17.84a112.89 112.89 0 01-14.35-18.76c6.5-3.36 48.49-24.66 65.84-22.68 18.82 2.15 70.45 11.29 82.82 10.76s64.54-8.07 64.54-8.07z" transform="translate(-8 -8.02)" fill="url(#e)"/></svg>