<svg xmlns="http://www.w3.org/2000/svg" xmlns:xlink="http://www.w3.org/1999/xlink" viewBox="0 0 559.39 440.09"><defs><linearGradient id="a" x1="169.54" y1="253.24" x2="172.14" y2="486.54" gradientUnits="userSpaceOnUse"><stop offset="0" stop-color="#010101" stop-opacity="0"/><stop offset=".95" stop-color="#010101"/></linearGradient><linearGradient id="b" x1="386.37" y1="231.74" x2="389.7" y2="530.35" xlink:href="#a"/><linearGradient id="c" x1="137.23" y1="292.41" x2="110.38" y2="242.25" xlink:href="#a"/><linearGradient id="d" x1="374.99" y1="286.5" x2="394.37" y2="392.54" gradientTransform="matrix(1.18 .12 -.1 .99 -25.11 -63.12)" xlink:href="#a"/><linearGradient id="e" x1="198.1" y1="324.04" x2="170.53" y2="228.98" xlink:href="#a"/><linearGradient id="f" x1="196.64" y1="282.24" x2="67.56" y2="218.87" xlink:href="#a"/><linearGradient id="g" x1="171.34" y1="259.7" x2="157.55" y2="280.83" xlink:href="#a"/><linearGradient id="h" x1="379.85" y1="287.35" x2="368.85" y2="345.43" xlink:href="#a"/><linearGradient id="i" x1="493.19" y1="202.66" x2="496.12" y2="433.25" xlink:href="#a"/><linearGradient id="j" x1="44.15" y1="276.58" x2="57.8" y2="363.71" xlink:href="#a"/><linearGradient id="k" x1="304.3" y1="182.78" x2="375.15" y2="271.67" xlink:href="#a"/><linearGradient id="l" x1="334.99" y1="209.78" x2="387.35" y2="298.67" xlink:href="#a"/><linearGradient id="m" x1="368.61" y1="257.21" x2="386.63" y2="355.83" xlink:href="#a"/><linearGradient id="n" x1="74.73" y1="241.91" x2="59.47" y2="322.48" xlink:href="#a"/><linearGradient id="o" x1="480.33" y1="231.16" x2="517.29" y2="246.12" gradientTransform="rotate(-4.12 499.988 239.153)" xlink:href="#a"/><linearGradient id="p" x1="496.34" y1="180.85" x2="496.34" y2="245.54" xlink:href="#a"/><linearGradient id="q" x1="485.23" y1="221.31" x2="507.28" y2="221.31" gradientUnits="userSpaceOnUse"><stop offset="0" stop-color="#fff" stop-opacity="0"/><stop offset=".13" stop-color="#fff" stop-opacity=".23"/><stop offset=".23" stop-color="#fff" stop-opacity=".41"/><stop offset=".35" stop-color="#fff" stop-opacity=".59"/><stop offset=".48" stop-color="#fff" stop-opacity=".74"/><stop offset=".6" stop-color="#fff" stop-opacity=".85"/><stop offset=".72" stop-color="#fff" stop-opacity=".93"/><stop offset=".84" stop-color="#fff" stop-opacity=".98"/><stop offset=".95" stop-color="#fff"/></linearGradient></defs><path d="M559.07 227.13q-.2 3.57-.53 7.1c-1.69 17.57-5.88 34.82-10.16 51.92-8.51 34-18.23 69.42-41.39 94.81-27.91 30.54-70.46 40.95-110.72 42.38s-80.67-4.65-120.78-.56c-40.64 4.16-80.37 18.72-121.16 17.19a156.22 156.22 0 01-58.42-13.81c-18.35-8.31-35.42-20.31-47.76-36.83-19.26-25.63-24.7-57.79-27.07-88.65a68.66 68.66 0 00-1.32-9c-.18-.94-.4-1.87-.65-2.81-3.69-14.35-11.14-26.76-15.57-40.48-.78-2.44-1.5-4.91-2.06-7.47a60.93 60.93 0 01-1.22-18.85c1.66-17.35 8-33.88 14.5-50.11 2.88-7.22 5.85-14.47 9.07-21.6 7.78-17.19 17.1-33.6 30.6-46.92 27.07-26.69 67-36.85 105.25-41.73s77.74-5.72 114.06-18.47c37.6-13.22 71.14-38.92 111-42.76 29.13-2.78 58.36 6.75 83.4 21.41 55.32 32.29 85.83 110.47 90.61 175.7a229.24 229.24 0 01.32 29.54z" fill="#68e1fd" opacity=".24" style="isolation:isolate"/><ellipse cx="170.24" cy="315.76" rx="74.68" ry="14.28" opacity=".26" fill="url(#a)"/><ellipse cx="387.26" cy="311.76" rx="92.8" ry="18.28" opacity=".26" fill="url(#b)"/><path d="M145.91 259.69a116.37 116.37 0 01-13.18-1.25 12.65 12.65 0 00-3.36-.22 14.21 14.21 0 00-4 1.37 41 41 0 01-24.28 2.62c-1.56-.31-3.25-.82-4.08-2.17a5.84 5.84 0 01-.67-2.36 38.87 38.87 0 01-.17-7.85 10.48 10.48 0 011-4.25 8.3 8.3 0 013.47-3.14c5.23-2.8 11.54-2 17.47-1.82 7 .25 14.25-.35 21 1.57 4.8 1.35 9.52 4.33 12.09 8.71 3.08 5.14.77 9.03-5.29 8.79z" fill="#fdb386"/><path d="M148.94 277.84a116.37 116.37 0 01-13.18-1.25 12.65 12.65 0 00-3.36-.22 14.21 14.21 0 00-4 1.37 41 41 0 01-24.28 2.62c-1.56-.31-3.25-.82-4.08-2.17a5.84 5.84 0 01-.67-2.36 38.87 38.87 0 01-.17-7.85 10.48 10.48 0 011-4.25 8.3 8.3 0 013.47-3.14c5.23-2.8 11.54-2 17.47-1.82 7 .25 14.25-.35 21 1.57 4.8 1.35 9.52 4.33 12.09 8.71 3.08 5.14.77 9.03-5.29 8.79z" transform="translate(-3.03 -18.15)" fill="url(#c)"/><path fill="#68e1fd" d="M302.97 280.75l35.2 24.93 116.18.88-32.57-23.17-118.81-2.64z"/><path fill="#fff" d="M316.17 281.71l27.09 19.19 89.38.68-25.06-17.83-91.41-2.04z"/><path d="M287.28 200.85s28.6-14.08 38.28-36.52l30.81 9.68s-33 44-45.77 45.32zM316.76 226.76c1.76-1.1 27.72-9.68 38.51-30.14l26.18 13.86s-25.74 34.77-48.85 35.87zM409.46 261.97l19.36 22.01-71.28 8.21-9.1-16.14 61.02-14.08z" fill="#68e1fd"/><path d="M361.09 292.19l46.2-8.92s2.15 2 6.59 2l8.17 9.47S419.62 298 421 300l-51.17 7.23s-3.93-2.4-7.34-2.31l-6-8.73s5.43-.59 4.6-4z" transform="translate(-3.03 -18.15)" fill="url(#d)"/><path d="M245.53 234.12l-1.89-7.39c-1.19-4.26-4.46-.55-8.44 1.37l-112 54a7.1 7.1 0 00-3.83 7.94l1.44 6.39a7.05 7.05 0 002.58 4.05l18.67 14.42a7.09 7.09 0 008.73-.06l92.31-73.28a7.08 7.08 0 002.43-7.44z" fill="#68e1fd"/><path d="M248.56 252.27l-1.89-7.39c-1.19-4.26-4.46-.55-8.44 1.37l-112 54a7.1 7.1 0 00-3.83 7.94l1.44 6.39a7.05 7.05 0 002.58 4.05l18.67 14.42a7.09 7.09 0 008.73-.06l92.31-73.28a7.08 7.08 0 002.43-7.44z" transform="translate(-3.03 -18.15)" fill="url(#e)"/><path d="M121.83 281.54l82.77-67.88a3.69 3.69 0 013.47-.65l33.15 10.74a3.68 3.68 0 011.13 6.4l-93.85 73.24a3.68 3.68 0 01-4.43.07l-22.1-16.1a3.69 3.69 0 01-.14-5.82z" fill="#68e1fd"/><path d="M124.86 299.69l82.77-67.88a3.69 3.69 0 013.47-.65l33.15 10.74a3.68 3.68 0 011.13 6.4l-93.85 73.24a3.68 3.68 0 01-4.43.07l-22.1-16.1a3.69 3.69 0 01-.14-5.82z" transform="translate(-3.03 -18.15)" fill="url(#f)"/><path fill="#fff" d="M237.04 231.01l-2.28 1.78-81.34 63.37-24.38-16.1-1.5-1 72.74-59.93 36.76 11.88z"/><path fill="#68e1fd" opacity=".13" d="M234.76 232.79l-81.34 63.37-24.38-16.1 71.02-58.49 34.7 11.22z"/><path fill="#68e1fd" d="M175.5 277.77l-26.41-13.7 8.1-7.12 26.41 13.69-8.1 7.13z"/><path fill="url(#g)" d="M175.5 277.77l-26.41-13.7 8.1-7.12 26.41 13.69-8.1 7.13z"/><path fill="#68e1fd" d="M303.85 290.72l-.88-9.97 35.2 24.93 116.18.88-2.28 6.24-117.27.66-30.95-22.74z"/><path fill="url(#h)" d="M303.85 290.72l-.88-9.97 35.2 24.93 116.18.88-2.28 6.24-117.27.66-30.95-22.74z"/><path d="M510.62 217.04c-.13 3.94-.35 7.87-.6 11.81-.12 2.25-.28 4.47-.47 6.72-.12 1.66-.43 3.6-1.87 4.38a2.75 2.75 0 01-.63.25 7.87 7.87 0 01-2.12.09l-9.79-.65a48.77 48.77 0 00-9.59 0c-6.32.81-12.13 4.06-18.44 4.78a46.93 46.93 0 01-8.38-.06l-25.67-1.69a18.68 18.68 0 01-6.43-1.22 6.29 6.29 0 01-4-4.84c-.16-1.54.43-3.07.31-4.63a.42.42 0 000-.19c-.44-4.16-5.91-7.53-4.25-11.38.37-.9 1.15-1.68 1.18-2.65a3.81 3.81 0 00-.84-2.16c-1.44-2.31-2.81-5-2.22-7.69.44-1.91 1.81-3.63 1.75-5.56-.09-2.22-2-4-2.25-6.19s1.47-4.53 3.59-5.54a17 17 0 016.88-1.15l12.32-.38c2-.06 4.28-.18 5.78-1.59 1.81-1.69 1.78-4.6 1-6.91s-2.25-4.38-3-6.72a12.24 12.24 0 012.19-11.16 4 4 0 011.59-1.28c2.22-.81 4.07 1.81 5 4a72.34 72.34 0 0014.63 21.63 57.53 57.53 0 0028.13 15c3.09.68 7.59.25 11.16.75a9.42 9.42 0 013 .84c4.1 2.01 2.16 9.79 2.04 13.39z" fill="#fdb386"/><path d="M559.07 227.13c0 .82-.1 1.63-.16 2.44-.09 1.56-.22 3.13-.37 4.66a11.15 11.15 0 01-2.47 4.06c-2.82 2.75-7 3-10.79 3q-18.19.24-36.38-1c-.63 0-1.25-.1-1.85-.16a9.83 9.83 0 01-4.65-1.56c-2.91-2.1-3.69-6.16-4.22-9.82-1.07-7.06-2.13-14.38-.44-21.32a7.85 7.85 0 01.72-2.09 4.35 4.35 0 011.31-1.69 6.27 6.27 0 013.53-.84h2.35c8.87-.1 17.75.78 26.63.59a71.71 71.71 0 0014.82-1.69c2.37-.53 8.34-3.91 11.62-4.16a229.24 229.24 0 01.35 29.58z" fill="#fdb386"/><path d="M561.94 247.72c-.09 1.56-.22 3.13-.37 4.66a11.15 11.15 0 01-2.47 4.06c-2.82 2.75-7 3-10.79 3q-18.19.24-36.38-1c-.63 0-1.25-.1-1.85-.16a7.87 7.87 0 01-2.12.09l-9.79-.65a48.77 48.77 0 00-9.59 0c-6.32.81-12.13 4.06-18.44 4.78a46.93 46.93 0 01-8.38-.06l-25.67-1.69a18.68 18.68 0 01-6.43-1.22 6.29 6.29 0 01-4-4.84c-.16-1.54.43-3.07.31-4.63a.42.42 0 000-.19c5.31 4.63 13.09 4.66 20.19 4.44 12.32-.37 24.73-.75 36.67-3.78a10.66 10.66 0 011.75-11c1.12-1.28 2.56-2.25 3.78-3.43 2.59-2.57 4.06-6 6.44-8.82a10.28 10.28 0 016.69-3.78 5.84 5.84 0 012.9.53c3.76 1.81 4.13 6.94 3.91 11.1s-.09 9.19 3.53 11.28a5.93 5.93 0 001.22.53 15.43 15.43 0 004.19.53c11.35.29 22.7.25 34.07-.06a67.22 67.22 0 0110.63.31z" transform="translate(-3.03 -18.15)" fill="url(#i)"/><path d="M109.61 225.29a54.11 54.11 0 0120.29 1 46.57 46.57 0 0113.87 6.56 79.46 79.46 0 0127 30.76c.91 1.86 1.57 4.5-.14 5.67-1.47 1-3.42 0-4.88-1-6.37-4.36-27.69-26-42.95-18.95-.42 3.28 3.82 9.77 4.33 13 .45 2.93-1.9 5.7-4.67 6.75s-5.83.78-8.77.47c-8.44-.88-16.85.06-25.34-.14-19.82-.45-32.15-14.72-31-22.16 1.05-6.15 16.62-17.55 52.26-21.96z" fill="#fdb386"/><path fill="#68e1fd" d="M336.41 264.03l54.57-17.9 17.6 22-62.04 14.97-10.13-19.07zM73.53 259.05a27.49 27.49 0 01-4.56 10.47 16.18 16.18 0 00-7.73.31c-3.78 1-7.5 3-11 4.85a266.91 266.91 0 01-26.07 12.28c-1.65.69-3.37 1.35-5.12 1.91-2.22-8.75-5.88-16.76-9.38-24.79a165.18 165.18 0 01-6.16-15.69c-.78-2.44-1.5-4.91-2.06-7.47 14.31-5.88 37.52-1.53 49.67-4.07a94.11 94.11 0 0010.12-2.9 76.29 76.29 0 0110.82-3c1.75 9.19 3.38 19.22 1.47 28.1z"/><path d="M76.56 277.2A27.49 27.49 0 0172 287.67c-6.47-1.44-12.88 2-18.7 5.16a266.91 266.91 0 01-26.07 12.28c-1.65.69-3.37 1.35-5.12 1.91-2.22-8.75-5.88-16.76-9.38-24.79A43.9 43.9 0 0030 284.61c8.44-.38 16.69-2.44 25-4 7.15-1.41 14.37-2.41 21.56-3.41z" transform="translate(-3.03 -18.15)" fill="url(#j)"/><path d="M333.14 186.68l15.07 5.06s-2 4.73.44 6.93c0 0-17.27 25.41-31.79 31.57 0 0-2.09-2.31-8.69-1.65l-10.35-7.81s3.86-1.87 3-4.84c0 0 20.79-10.56 26.51-24.64-.02 0 5.81.88 5.81-4.62z" transform="translate(-3.03 -18.15)" fill="url(#k)"/><path d="M362.28 221.08l12.72 6.13s-2.27 4-.37 6.17c0 0-18.06 20.56-31.57 24.4 0 0-1.6-2.27-7.5-2.41l-8.28-8s3.61-1.23 3.16-4c0 0 19.53-7 26.14-18.85.04 0 5.09 1.42 5.7-3.44z" transform="translate(-3.03 -18.15)" fill="url(#l)"/><path d="M349.2 281.73l38.29-12.1a7.55 7.55 0 005.72 1.32l7.7 8.58s-1.76 3.52-.44 5.28l-42.61 10.93s-3.52-2-6.39-1.54l-5.79-8.07s4.51-1.13 3.52-4.4z" transform="translate(-3.03 -18.15)" fill="url(#m)"/><path d="M76.56 277.2A27.49 27.49 0 0172 287.67a16.18 16.18 0 00-7.73.31V252.1a76.29 76.29 0 0110.82-3c1.75 9.19 3.38 19.22 1.47 28.1z" transform="translate(-3.03 -18.15)" fill="url(#n)"/><rect x="492.22" y="218.53" width="15.62" height="41.2" rx="3.72" transform="rotate(4.12 750.715 187.903)" fill="#68e1fd"/><rect x="492.22" y="218.53" width="15.62" height="41.2" rx="3.72" transform="rotate(4.12 750.715 187.903)" fill="url(#o)"/><circle cx="496.34" cy="221.23" r="12.87" fill="#68e1fd"/><circle cx="496.34" cy="221.23" r="12.87" fill="url(#p)"/><circle cx="496.25" cy="221.31" r="11.03" fill="#68e1fd"/><circle cx="496.25" cy="221.31" r="11.03" fill="url(#q)"/><path d="M473.38 157.12v-3.69a10.55 10.55 0 01-5.58-1.6l.87-2.44a9.79 9.79 0 005.3 1.56c2.59 0 4.34-1.49 4.34-3.57s-1.43-3.25-4.12-4.34c-3.73-1.46-6-3.14-6-6.31s2.15-5.33 5.5-5.88v-3.68h2.27v3.54a9.7 9.7 0 014.74 1.27l-.91 2.41a8.81 8.81 0 00-4.6-1.24c-2.81 0-3.87 1.68-3.87 3.14 0 1.9 1.35 2.84 4.53 4.16 3.75 1.53 5.65 3.43 5.65 6.67 0 2.89-2 5.58-5.76 6.2v3.8zM402.84 176.1v-2a5.68 5.68 0 01-3-.86l.47-1.31a5.2 5.2 0 002.82.84c1.39 0 2.33-.8 2.33-1.91s-.77-1.75-2.22-2.33c-2-.79-3.22-1.69-3.22-3.39a3.21 3.21 0 012.95-3.15v-2h1.21v1.9a5.27 5.27 0 012.55.69l-.49 1.29a4.66 4.66 0 00-2.47-.67c-1.5 0-2.07.9-2.07 1.69 0 1 .72 1.52 2.42 2.23 2 .82 3 1.84 3 3.58a3.4 3.4 0 01-3.09 3.32v2zM470.08 274.72v-2a5.72 5.72 0 01-3-.86l.47-1.31a5.22 5.22 0 002.82.84c1.39 0 2.33-.8 2.33-1.92s-.77-1.74-2.21-2.33c-2-.78-3.23-1.68-3.23-3.38a3.21 3.21 0 012.95-3.16v-2h1.22v1.9a5.27 5.27 0 012.54.68l-.49 1.29a4.77 4.77 0 00-2.46-.66c-1.51 0-2.08.9-2.08 1.68 0 1 .72 1.53 2.43 2.23 2 .82 3 1.84 3 3.58a3.4 3.4 0 01-3.09 3.33v2z" fill="#68e1fd"/></svg>