<svg xmlns="http://www.w3.org/2000/svg" width="30.331" height="41.843" viewBox="0 0 30.331 41.843">
  <g id="Gruppe_39" data-name="Gruppe 39" transform="translate(-675.89 -1949)">
    <path id="Pfad_311" data-name="Pfad 311" d="M706.221,1970.178a9,9,0,0,1-.263,2.217c-.072.206-.106.524-.43.5-.246-.02-.227-.287-.325-.443-.274-.429-.482-1.105-1.292-.745.458.556-.013.864-.4,1.02a20.391,20.391,0,0,0-2.619,1.153,5.49,5.49,0,0,0-1.044.72,1.169,1.169,0,0,1-1.06.419c-.451-.089-.738.266-1.029.528s-.49.508-.946.461c-.5-.05-.282.4-.2.546a4.66,4.66,0,0,0,.646.709c.289.325.545.636.252,1.126-.276.463.156.807.349,1.15.341.607.425,1.492,1.419,1.514.092,0,.186.179.269.282a6.835,6.835,0,0,0,2.4,2.222c.411.188.221.72.3,1.087.074.349-.268.4-.549.406-.377.005-.395.309-.453.559a1.357,1.357,0,0,1-.91,1,3.931,3.931,0,0,0-1.187.786c-.466.443-.106.812.248,1.116.082.071.232.028.346.137.464.443-.559.849-.029,1.249.567.429.234.8-.028,1.307-.163-.464-.543-.632-.625-1.08-.055-.3-.5-.161-.736-.083-.2.064-.3.214-.536.026-.382-.3-.836-.609-1.11.15a.149.149,0,0,1-.13.071c-1.449-.338-2.468.893-3.792,1.048-.342.04-.477.039-.578-.28a.749.749,0,0,0-.925-.532.538.538,0,0,1-.74-.375c-.8.354.111,1.477-.843,1.738a2.425,2.425,0,0,0-1.9-1.608c-.508-.1-.91-.525-1.445-.689-.841-.258-1.771-.058-2.558-.587-.463-.311-.54.28-.741.477-.349.34.317.288.284.58-.1.021-.232.095-.289.056a1.273,1.273,0,0,0-1.441-.106c-.543.266-1.039-.166-1.488-.435-.219-.131-.24-.522-.16-.754.463-1.357.946-2.708,1.481-4.037a1.391,1.391,0,0,1,.717-.722,1.015,1.015,0,0,0,.608-1.211,1.215,1.215,0,0,0-1.364-.656c-.487.087-.888.09-1.151-.424-.094-.182-.219-.463-.528-.14s-.515-.1-.776-.163c-.841-.2-1.7-.374-1.709-1.515,0-.047-.035-.131-.066-.135-1.1-.226-.245-.815-.171-1.186.083-.414.24-.635-.283-.941a1.335,1.335,0,0,1,.008-2.343c.67-.422.214-.941.117-1.124a4.822,4.822,0,0,1-.706-2.317c.015-.319-.379-.562-.133-.9.3.125.6-.2.536-.276-.514-.654.328-1.028.28-1.569-.01-.095.113-.236.076-.291-.174-.255-.606-.342-.383-.83.153-.339-.374-.485-.383-.889.423.1.788-.562,1.3.014.1.116.585-.359.994-.37.551-.013.578-.3.461-.809-.045-.2.419-.643.73-.755.443-.16.493-.64.382-.717-.3-.209-.018-.9-.662-.763-.3.061-.47-.171-.279-.348s-.264-.859.4-.6c.446.174.547,0,.646-.361a11.238,11.238,0,0,0,.7-2.826c.008-.714.44.3.574-.215-.074-.4-.437-.477-.846-.5-.509-.035-.546-.229-.2-.583.267-.276.259-.82.751-.87a12.391,12.391,0,0,1,1.988-.083.568.568,0,0,1,.478.777c-.151.3-.05.417.089.607.093.126.143.327.337.291.223-.044.246-.266.261-.448.018-.234-.176-.459-.013-.759.4.277.8.506.654-.346a1.3,1.3,0,0,1,.306-.886c.314-.386.532.041.788.184a.616.616,0,0,0,.617.018,1.409,1.409,0,0,1,1.055.117c-.142-.14-.317-.222-.42-.383-.25-.145-.6-.116-.773-.383-.1-.151-.475-.411.077-.457.238-.021.3-.259.208-.3-.471-.195-.54-.817-1.029-.941-.339-.087-.3-.253-.146-.443a1.326,1.326,0,0,1,.633-.314c.393-.153.583-.678.3-.8-.77-.345-.358-1.189-.838-1.611-.084-.076-.034-.347.1-.277.4.2.8-.031,1.191.086.48.145.9.776,1.521.138a1.437,1.437,0,0,1,1.276.484c.287.5-.27.662-.511.942-.068.081-.143.156-.219.24.308.166.438-.036.545-.311a1.064,1.064,0,0,1,.035.935c.514-.118.925-.125.761.78.48-.781.855-.763,1.316-.27.227.241.612.4.875-.044.095-.159.236-.259.391-.2a.424.424,0,0,1,.256.458c-.05.512-.209,1.012-.783,1.074-.238.028-.2.153-.282.242.6.477-.01.839-.114,1.252-.01.037.045.09.108.208a5.92,5.92,0,0,0,1.2-1.274c.006,1.03.854.4,1.112.852a.947.947,0,0,0,.367-.958c-.062-.4.368-.414.454-.364.414.243.778-.472,1.189-.019.085.094.1-.124.125-.206.15-.612.836-.859,1-1.5.051-.2.572-.4.6.211-.5.09-.681.377-.723,1.034.463-.371.369-.939.9-.9.271.139.507-.05.759-.089s.362-.05.39.272c.043.506.875,1,1.426.964.382-.021.87-.266.834.589-.04.936.488,1.369,1.4,1.564a.4.4,0,0,1,.356.354c.137.72.335,1.431.483,2.144.134.646-.353,1.208-.741,1.678-.361.437-.235.63.146.861a5.047,5.047,0,0,1,1.033.857c.277.293.5.54.235.965a.618.618,0,0,0,.079.752,1.948,1.948,0,0,1,.229,2.2,1.006,1.006,0,0,0,.119.912c.132.245.551.433.249.812-.075.093-.024.174.029.173C706.279,1968.876,705.923,1969.756,706.221,1970.178Z" transform="translate(0 -1.044)" fill="#faa401"/>
    <path id="Pfad_312" data-name="Pfad 312" d="M726.5,1954.125c0-.387-.48-.156-.395-.48a.484.484,0,0,1,.39-.355c.285-.059.278.126.33.308.048.165.2.213.375.235.272.034.441.13.246.471-.184.321.191.435.33.636.115.168.3.345.071.548-.343.3-.245-.089-.351-.213-.271-.315-.432-.032-.513.177-.127.327-.328.4-.617.27s-.469-.319-.268-.656c.056-.093.1-.183.018-.289C725.689,1954.231,726.054,1954.132,726.5,1954.125Z" transform="translate(-26.176 -2.239)" fill="#faa401"/>
    <path id="Pfad_313" data-name="Pfad 313" d="M731.778,1960.57c-.01.372-.081.537-.328.622a.5.5,0,0,1-.581-.11c-.3-.333.12-.266.22-.381.175-.2.057-.406-.127-.365-.312.07-.384-.056-.389-.295a.3.3,0,0,1,.14-.244c.183-.062.289.1.383.218C731.3,1960.275,731.758,1960.282,731.778,1960.57Z" transform="translate(-28.608 -5.642)" fill="#faa401"/>
    <path id="Pfad_314" data-name="Pfad 314" d="M712.536,1955.9l-.4.359c-.093-.208-.44-.248-.384-.536.019-.1.182-.243.262-.233A.827.827,0,0,1,712.536,1955.9Z" transform="translate(-18.76 -3.395)" fill="#faa401"/>
    <path id="Pfad_315" data-name="Pfad 315" d="M694.567,1949c.448.585-.052.572-.4.655C694.076,1949.3,694.383,1949.19,694.567,1949Z" transform="translate(-9.552)" fill="#faa401"/>
  </g>
</svg>
