<svg xmlns="http://www.w3.org/2000/svg" width="37" height="37" viewBox="0 0 37 37">
  <path id="Pfad_305" data-name="Pfad 305" d="M20.481,2A18.5,18.5,0,1,0,39,20.5,18.491,18.491,0,0,0,20.481,2ZM33.3,13.1H27.845a28.951,28.951,0,0,0-2.553-6.586A14.855,14.855,0,0,1,33.3,13.1ZM20.5,5.774A26.061,26.061,0,0,1,24.034,13.1H16.966A26.061,26.061,0,0,1,20.5,5.774ZM6.181,24.2a14.471,14.471,0,0,1,0-7.4h6.253a30.553,30.553,0,0,0-.259,3.7,30.553,30.553,0,0,0,.259,3.7ZM7.7,27.9h5.457a28.951,28.951,0,0,0,2.553,6.586A14.776,14.776,0,0,1,7.7,27.9Zm5.457-14.8H7.7a14.776,14.776,0,0,1,8.01-6.586A28.951,28.951,0,0,0,13.155,13.1ZM20.5,35.226A26.061,26.061,0,0,1,16.966,27.9h7.067A26.061,26.061,0,0,1,20.5,35.226ZM24.829,24.2H16.171a27.218,27.218,0,0,1-.3-3.7,26.982,26.982,0,0,1,.3-3.7h8.658a26.982,26.982,0,0,1,.3,3.7A27.218,27.218,0,0,1,24.829,24.2Zm.463,10.286A28.951,28.951,0,0,0,27.845,27.9H33.3A14.855,14.855,0,0,1,25.292,34.486ZM28.566,24.2a30.554,30.554,0,0,0,.259-3.7,30.554,30.554,0,0,0-.259-3.7h6.253a14.471,14.471,0,0,1,0,7.4Z" transform="translate(-2 -2)" fill="#faa401"/>
</svg>
