<svg id="Ebene_1" data-name="Ebene 1" xmlns="http://www.w3.org/2000/svg" xmlns:xlink="http://www.w3.org/1999/xlink" viewBox="0 0 450.211 345.207"><defs><style>.cls-1{fill:url(#Unbenannter_Verlauf_11);}</style><linearGradient id="Unbenannter_Verlauf_11" x1="466.133" y1="380.603" x2="916.344" y2="380.603" gradientUnits="userSpaceOnUse"><stop offset="0.006" stop-color="#ffbb39"/><stop offset="0.404" stop-color="#ffba37"/><stop offset="0.615" stop-color="#feb72f"/><stop offset="0.782" stop-color="#fdb121"/><stop offset="0.926" stop-color="#fba90e"/><stop offset="1" stop-color="#faa401"/></linearGradient></defs><path class="cls-1" d="M913.149,271.651,634.784,550.016a10.9,10.9,0,0,1-13.033,1.8,7.773,7.773,0,0,1-.675-.394,10.257,10.257,0,0,1-1.968-1.546L469.317,400.085a10.912,10.912,0,0,1,0-15.409l45.047-45.047a10.912,10.912,0,0,1,15.409,0l97.25,97.25L852.693,211.2a10.9,10.9,0,0,1,15.423,0l45.033,45.033A10.9,10.9,0,0,1,913.149,271.651Z" transform="translate(-466.133 -208)"/></svg>