<svg xmlns="http://www.w3.org/2000/svg" width="36.495" height="40.55" viewBox="0 0 36.495 40.55">
  <path id="Pfad_287" data-name="Pfad 287" d="M114.937,1776.846l-2.149-2.149-9.9,9.9-4.3-4.3-2.149,2.149,6.447,6.448Zm5.008-16.341h-2.028v-4.055h-4.055v4.055H97.642v-4.055H93.587v4.055H91.56a4.036,4.036,0,0,0-4.035,4.055l-.02,28.385A4.054,4.054,0,0,0,91.56,1797h28.385a4.067,4.067,0,0,0,4.055-4.055V1764.56A4.067,4.067,0,0,0,119.945,1760.505Zm0,32.44H91.56v-22.3h28.385Z" transform="translate(-87.505 -1756.45)" fill="#fff"/>
</svg>
