<svg id="Ebene_1" data-name="Ebene 1" xmlns="http://www.w3.org/2000/svg" xmlns:xlink="http://www.w3.org/1999/xlink" viewBox="0 0 176.78 57.09"><defs><style>.cls-1{fill:none;}.cls-2{clip-path:url(#clip-path);}.cls-3{fill:#eb7092;}.cls-4{fill:#fff;}</style><clipPath id="clip-path"><rect class="cls-1" width="176.38" height="56.69"/></clipPath></defs><title>icon-sofort</title><g class="cls-2"><path class="cls-3" d="M6.32,0S0,0,0,6.32V50.38s0,6.31,6.32,6.31H170.06s6.32,0,6.32-6.31V6.32s0-6.32-6.32-6.32Z"/><path class="cls-4" d="M28,40.75a2.15,2.15,0,0,0,1.16-.41,2.21,2.21,0,0,0,1-2.2c-.08-1-.78-1-1.46-1.15a3.77,3.77,0,0,1-2.31-1.71c-.78-1.15-1.54-2.32-2.34-3.46a1.7,1.7,0,0,0-2.73-.28c-1.08,1-1,2.39.34,3.77,1.47,1.54,3,3,4.5,4.52a3,3,0,0,0,1.81.92m-2.47-16A2,2,0,0,0,23.61,27a3.37,3.37,0,0,0,.52,1.63c1.29,1.95,2.59,3.9,3.9,5.83a2.08,2.08,0,0,0,1.54.92,2,2,0,0,0,1.75-.71c.48-.52-.07-.9-.25-1.31a4.29,4.29,0,0,1-.32-1.8,1.82,1.82,0,0,0-.2-1.19c-1.08-1.56-2.12-3.13-3.23-4.66a2.08,2.08,0,0,0-1.77-.95M28.49,10.6c0,.13,0,.25,0,.37q1,7.76,1.9,15.5a4.1,4.1,0,0,0,.79,1.64c.29.47.57.44,1,.12a4.7,4.7,0,0,1,4.2-.75c1.87.44,3.76.82,5.62,1.32.86.23,1.15,0,1.31-.83.61-3.22,1.28-6.43,1.92-9.65.5-2.45,1-4.9,1.48-7.35a2.3,2.3,0,0,0-.93-2.5,2.12,2.12,0,0,0-2.33-.11A3.06,3.06,0,0,0,42,10.42q-1.7,5.85-3.42,11.69c-.22.74-.44,1.49-.67,2.23A.85.85,0,0,1,37,25a.91.91,0,0,1-.86-.75c-.07-.28-.13-.56-.19-.84-1.05-4.43-2.07-8.86-3.14-13.28a2.38,2.38,0,0,0-2.54-2,2.38,2.38,0,0,0-1.82,2.45M24.3,40.72a9.65,9.65,0,0,0,4,5.81c3.78,2.68,10.3,2.72,14.12.13,3.58-2.42,6-8.92,4.93-13.27a2.19,2.19,0,0,0-1.56-1.89c-3.47-.81-6.94-1.63-10.43-2.38a2.2,2.2,0,0,0-2.69,1.41,2.23,2.23,0,0,0,1,3.06,6.77,6.77,0,0,0,2.18.82l6,1.35c.58.13,1,.41.91,1.09s-.58.69-1.12.67c-3.41-.13-4.77,1-5.32,4.52-.09.59-.26,1.07-1,1s-.81-.57-.78-1.15a6.68,6.68,0,0,1,1.85-4.56c.21-.22.67-.35.53-.74s-.57-.23-.87-.32c-.67-.2-1.36-.35-2-.58a1.64,1.64,0,0,0-2.2,1.89,4,4,0,0,1-2,4.37,3.86,3.86,0,0,1-4.74-.75c-.22-.2-.37-.54-.85-.51m4-16.74c-.32-2.65-.59-5-.88-7.36-.23-1.87-.5-3.74-.7-5.62a4.14,4.14,0,0,1,3.23-4.57,4,4,0,0,1,4.62,3.14c.77,3.1,1.47,6.23,2.21,9.34.09.38.05.83.56,1.18.84-2.87,1.67-5.69,2.5-8.51.25-.82.47-1.66.76-2.47a4.21,4.21,0,0,1,5.05-2.67,4.06,4.06,0,0,1,2.83,4.81c-1.1,5.55-2.2,11.1-3.37,16.64-.24,1.16-.09,1.71,1.2,1.92,1.61.26,2.37,1.51,2.78,3,1.44,5.13-1.55,13-5.9,15.57-5.45,3.24-13,2.56-17.32-1.55a12,12,0,0,1-3.68-7.59,2.63,2.63,0,0,0-.89-1.8,6.94,6.94,0,0,1-2.18-3.07,3.8,3.8,0,0,1,2.35-4.89c.44-.18,1-.18.69-1a3.86,3.86,0,0,1,1.11-4.69c1.54-1.23,3.17-1.1,5,.18"/><path class="cls-4" d="M146,32.46V28a7.34,7.34,0,0,0,3.61,1.17V25.4S146,24.74,146,22.85V19.68h-4.11V33.34c0,4.83,8,5.22,8,5.22V35s-3.89-.5-3.89-2.49"/><path class="cls-4" d="M135.27,26V24.35h-4V38.56h4.17V31.07c0-2.72,3.89-2.67,3.89-2.67V24a8.2,8.2,0,0,0-2.39.44A5.47,5.47,0,0,0,135.27,26"/><path class="cls-4" d="M105.76,20.24a6.75,6.75,0,0,0-1.56,4.11V38.56h4.17V31.62c0-2.16,3.77-2.5,3.77-2.5V25.46a13,13,0,0,0-2,.33,10.65,10.65,0,0,0-1.92,1V24c0-2.44,4-2.22,4-2.22V18a8,8,0,0,0-6.38,2.28"/><path class="cls-4" d="M77.66,25.74c-3.33-1.34-1.72-4.39.17-4.39a4.56,4.56,0,0,1,3.22,1.89l3-2.22s-1.45-3.33-6.17-3.33a6.28,6.28,0,0,0-6.55,6,5.87,5.87,0,0,0,4.72,5.78c3.22.61,4.5,1.66,4.5,3s-1.06,2.61-3.11,2.61-4-2.28-4-2.28l-2.61,2.67S73.61,39,77.61,39c3.16,0,7.27-1.95,7.27-6.55S81,27.07,77.66,25.74"/><path class="cls-4" d="M154.93,33.45A2.56,2.56,0,1,0,157.48,36a2.56,2.56,0,0,0-2.55-2.56"/><path class="cls-4" d="M121.41,35.06a3.56,3.56,0,1,1,3.68-3.56,3.63,3.63,0,0,1-3.68,3.56M121.28,24A7.5,7.5,0,1,0,129,31.5a7.63,7.63,0,0,0-7.76-7.5"/><path class="cls-4" d="M94.42,35.06a3.56,3.56,0,1,1,3.69-3.56,3.63,3.63,0,0,1-3.69,3.56M94.3,24a7.5,7.5,0,1,0,7.76,7.5A7.64,7.64,0,0,0,94.3,24"/></g></svg>