<svg xmlns="http://www.w3.org/2000/svg" width="27.585" height="36.205" viewBox="0 0 27.585 36.205">
  <path id="Pfad_308" data-name="Pfad 308" d="M17.792,28.585a3.448,3.448,0,1,0-3.448-3.448A3.458,3.458,0,0,0,17.792,28.585ZM28.137,13.068H26.413V9.62a8.62,8.62,0,0,0-17.24,0h3.276a5.345,5.345,0,0,1,10.689,0v3.448H7.448A3.458,3.458,0,0,0,4,16.516v17.24A3.458,3.458,0,0,0,7.448,37.2H28.137a3.458,3.458,0,0,0,3.448-3.448V16.516A3.458,3.458,0,0,0,28.137,13.068Zm0,20.688H7.448V16.516H28.137Z" transform="translate(-4 -1)" fill="#faa401"/>
</svg>
