<svg data-name="Layer 1" xmlns="http://www.w3.org/2000/svg" xmlns:xlink="http://www.w3.org/1999/xlink" viewBox="0 0 823.64 597"><defs><linearGradient id="d" x1="184.46" y1="411.38" x2="188.29" y2="421.79" gradientTransform="matrix(1 0 0 -1 -.33 598)" gradientUnits="userSpaceOnUse"><stop offset=".36" stop-color="#00272e"/><stop offset=".75" stop-color="#3f80a1" stop-opacity=".25"/><stop offset="1" stop-color="#69b9eb" stop-opacity="0"/></linearGradient><linearGradient id="a" x1="444.69" y1="31.61" x2="323.69" y2="461.61" gradientUnits="userSpaceOnUse"><stop offset="0" stop-opacity="0"/><stop offset=".91" stop-opacity=".8"/><stop offset="1"/></linearGradient><linearGradient id="e" x1="405.84" y1="149.83" x2="332.84" y2="499.83" xlink:href="#a"/><linearGradient id="f" x1="412.49" y1="151.21" x2="339.49" y2="501.21" xlink:href="#a"/><linearGradient id="g" x1="420.97" y1="152.99" x2="347.97" y2="502.99" xlink:href="#a"/><linearGradient id="b" x1="683.34" y1="447.17" x2="704.34" y2="447.17" gradientTransform="matrix(1 0 0 -1 -.33 598)" gradientUnits="userSpaceOnUse"><stop offset="0" stop-color="#ecc4d7"/><stop offset=".42" stop-color="#efd4d1"/><stop offset="1" stop-color="#f2eac9"/></linearGradient><linearGradient id="c" x1="533.17" y1="127.89" x2="540.88" y2="95.77" gradientTransform="matrix(1 0 0 -1 -.33 598)" gradientUnits="userSpaceOnUse"><stop offset="0" stop-color="#68e1fd"/><stop offset=".01" stop-color="#67ddf9"/><stop offset=".12" stop-color="#5cb3ce"/><stop offset=".24" stop-color="#538ea9"/><stop offset=".37" stop-color="#4c718b"/><stop offset=".5" stop-color="#465a73"/><stop offset=".63" stop-color="#424a63"/><stop offset=".79" stop-color="#404059"/><stop offset=".99" stop-color="#3f3d56"/></linearGradient></defs><path d="M131.3 125c-24.34 5.16-49.64 10.76-69.18 26.17-16.5 13-42.21 37-50 56.5-33 82.37 4.31 182.6 76.73 233.86 34.06 24.11 76.51 35.78 107.12 64.16 19.36 17.95 32.92 41.71 53.52 58.21 30.1 24.09 70.74 29.42 109.2 32 26.72 1.81 54.48 2.59 79.27-7.57 17.92-7.34 33.1-19.93 48-32.34l98.71-82.43c15.86-13.23 30.69-34.3 51.34-34.16 185.86 1.33 198.39-217.4-86.86-314.28-25.14-8.54-42.38-32.28-66-44.45-48.79-25.15-104.94-17-154.15.4-62.48 22.15-132.86 30.14-197.7 43.93z" fill="#68e1fd" opacity=".18" style="isolation:isolate"/><path d="M779.07 477.86c7.78.13 17.8 2.07 19 9.75.65 4-1.64 7.89-4.12 11.12-15.51 20.27-41.21 30.52-66.57 33.27s-50.92-1.1-76.24-4.22q-54.89-6.78-110.2-9c-26.22-1.06-53.8-1.72-76.38-15.08-4.19-2.47-8.31-5.56-10.32-10-4-8.83 2.32-19.58 11-23.87s18.88-3.87 28.56-3.35c95.06 5.12 190.05 11.38 285.27 11.38z" fill="#000405" opacity=".05" style="isolation:isolate"/><path d="M617.33 200.59v260.56A24.86 24.86 0 01592.46 486H202.77a24.86 24.86 0 01-24.86-24.86V200.59a24.86 24.86 0 0124.83-24.87h389.72a24.86 24.86 0 0124.87 24.87z" fill="#68e1fd"/><path d="M610.59 183.67H184l3.46-2.65a6.12 6.12 0 01.5-.39L390.88 25.07l6.41-4.91 206.47 158.28z" fill="#68e1fd"/><path d="M617.33 200.59l-5.19 3.75-37.79 27.37L390.88 364.6 214.43 228.71l-36.52-28.12.47-4.83a24.67 24.67 0 016.18-12.09 23.32 23.32 0 012.88-2.65 6.12 6.12 0 01.5-.39 24.7 24.7 0 0114.83-4.91h389.69a24.89 24.89 0 0124.75 22.47q.12 1.2.12 2.4z" fill="#68e1fd"/><path d="M187.44 181a24.92 24.92 0 00-2.88 2.65H184z" opacity=".61" fill="url(#d)" style="isolation:isolate"/><path d="M617.33 200.59l-5.19 3.76-37.79 27.36L390.88 364.6 214.43 228.72l-36.52-28.13.47-4.82a24.92 24.92 0 019.06-14.77l.5-.38L390.88 25.07l6.41-4.91 206.47 158.28a24.83 24.83 0 0113.45 19.76 23.76 23.76 0 01.12 2.39z" fill="url(#a)"/><path d="M574.35 181.34v50.38l-67.71 49L491.11 292l-100.23 72.6-94.27-72.6L282 280.76l-67.59-52v-47.42a14.77 14.77 0 0114.77-14.77h330.41a14.78 14.78 0 0114.76 14.77z" fill="#fff"/><path d="M524.73 225.51h-267a5.62 5.62 0 01-5.62-5.62 5.62 5.62 0 015.62-5.62h267a5.62 5.62 0 015.62 5.62 5.62 5.62 0 01-5.62 5.62z" fill="url(#e)"/><path d="M524.73 258.76h-267a5.62 5.62 0 01-5.62-5.62 5.62 5.62 0 015.62-5.62h267a5.62 5.62 0 015.62 5.62 5.62 5.62 0 01-5.62 5.62z" fill="url(#f)"/><path fill="url(#g)" d="M506.64 280.76L491.11 292h-194.5l-14.6-11.24h224.63z"/><path fill="#000405" opacity=".05" style="isolation:isolate" d="M390.88 364.6L228.02 486.02H557.1L390.88 364.6z"/><path d="M215.81 74.06l-4.39 1.44c19-11.21 15.36-39.68 15.13-41.36.3 1.35 4.72 20.14 2.31 26.31-3.01 7.71-13.05 13.61-13.05 13.61zM184.41 108.44c-2.32 3.21-11.54 8.16-12.17 8.49 12.4-7.37 9.59-26.34 9.59-26.34v.11c.49 1.3 4.84 14.6 2.58 17.74zM178.65 214.27l203.67 156.71 8.56-6.38-212.97-164.01.74 13.68zM397.62 369.97l219.71-158.14v-10.79l-226.45 164 6.74 4.93zM617.21 198.64l-.6 1.68-4.47 4.47c3.14-5.42-5.73-18-5.73-18l-3.54-2.65-10.63-8L390.88 25.52l6.41-4.91 206.47 158.27a24.86 24.86 0 0113.45 19.76z" fill="#fff" opacity=".22" style="isolation:isolate"/></svg>