<svg id="Layer_1___cjrk1uf9ebnja0a26kc168phe" data-name="Layer 1" xmlns="http://www.w3.org/2000/svg" xmlns:xlink="http://www.w3.org/1999/xlink" viewBox="0 0 823.64 597"><defs><linearGradient id="linear-gradient___cjrk1uf9ebnja0a26kc168phe" x1="184.46" y1="411.38" x2="188.29" y2="421.79" gradientTransform="matrix(1, 0, 0, -1, -0.33, 598)" gradientUnits="userSpaceOnUse"><stop offset="0.36" stop-color="#00272e"></stop><stop offset="0.75" stop-color="#3f80a1" stop-opacity="0.25"></stop><stop offset="1" stop-color="#69b9eb" stop-opacity="0"></stop></linearGradient><linearGradient id="linear-gradient-2___cjrk1uf9ebnja0a26kc168phe" x1="444.69" y1="31.61" x2="323.69" y2="461.61" gradientUnits="userSpaceOnUse"><stop offset="0" stop-opacity="0"></stop><stop offset="0.91" stop-opacity="0.8"></stop><stop offset="1"></stop></linearGradient><linearGradient id="linear-gradient-3___cjrk1uf9ebnja0a26kc168phe" x1="405.84" y1="149.83" x2="332.84" y2="499.83" xlink:href="#linear-gradient-2___cjrk1uf9ebnja0a26kc168phe"></linearGradient><linearGradient id="linear-gradient-4___cjrk1uf9ebnja0a26kc168phe" x1="412.49" y1="151.21" x2="339.49" y2="501.21" xlink:href="#linear-gradient-2___cjrk1uf9ebnja0a26kc168phe"></linearGradient><linearGradient id="linear-gradient-5___cjrk1uf9ebnja0a26kc168phe" x1="420.97" y1="152.99" x2="347.97" y2="502.99" xlink:href="#linear-gradient-2___cjrk1uf9ebnja0a26kc168phe"></linearGradient><linearGradient id="linear-gradient-6___cjrk1uf9ebnja0a26kc168phe" x1="683.34" y1="447.17" x2="704.34" y2="447.17" gradientTransform="matrix(1, 0, 0, -1, -0.33, 598)" gradientUnits="userSpaceOnUse"><stop offset="0" stop-color="#ecc4d7"></stop><stop offset="0.42" stop-color="#efd4d1"></stop><stop offset="1" stop-color="#f2eac9"></stop></linearGradient><linearGradient id="linear-gradient-7___cjrk1uf9ebnja0a26kc168phe" x1="694.49" y1="458.85" x2="690.16" y2="410.3" xlink:href="#linear-gradient-6___cjrk1uf9ebnja0a26kc168phe"></linearGradient><linearGradient id="linear-gradient-8___cjrk1uf9ebnja0a26kc168phe" x1="664.58" y1="476.09" x2="709.1" y2="476.09" xlink:href="#linear-gradient-6___cjrk1uf9ebnja0a26kc168phe"></linearGradient><linearGradient id="linear-gradient-9___cjrk1uf9ebnja0a26kc168phe" x1="764.44" y1="512.88" x2="823.98" y2="512.88" xlink:href="#linear-gradient-6___cjrk1uf9ebnja0a26kc168phe"></linearGradient><linearGradient id="linear-gradient-10___cjrk1uf9ebnja0a26kc168phe" x1="810.28" y1="519.93" x2="804.26" y2="566.67" xlink:href="#linear-gradient-6___cjrk1uf9ebnja0a26kc168phe"></linearGradient><linearGradient id="linear-gradient-11___cjrk1uf9ebnja0a26kc168phe" x1="619.54" y1="589.29" x2="679.08" y2="589.29" gradientTransform="translate(868.81 888.98) rotate(-148.06)" xlink:href="#linear-gradient-6___cjrk1uf9ebnja0a26kc168phe"></linearGradient><linearGradient id="linear-gradient-12___cjrk1uf9ebnja0a26kc168phe" x1="665.61" y1="596.46" x2="659.59" y2="643.2" gradientTransform="translate(868.81 888.98) rotate(-148.06)" xlink:href="#linear-gradient-6___cjrk1uf9ebnja0a26kc168phe"></linearGradient><linearGradient id="linear-gradient-13___cjrk1uf9ebnja0a26kc168phe" x1="533.17" y1="127.89" x2="540.88" y2="95.77" gradientTransform="matrix(1, 0, 0, -1, -0.33, 598)" gradientUnits="userSpaceOnUse"><stop offset="0" stop-color="#68e1fd"></stop><stop offset="0.01" stop-color="#67ddf9"></stop><stop offset="0.12" stop-color="#5cb3ce"></stop><stop offset="0.24" stop-color="#538ea9"></stop><stop offset="0.37" stop-color="#4c718b"></stop><stop offset="0.5" stop-color="#465a73"></stop><stop offset="0.63" stop-color="#424a63"></stop><stop offset="0.79" stop-color="#404059"></stop><stop offset="0.99" stop-color="#3f3d56"></stop></linearGradient><linearGradient id="linear-gradient-14___cjrk1uf9ebnja0a26kc168phe" x1="723.22" y1="106.25" x2="736.07" y2="88.27" xlink:href="#linear-gradient-13___cjrk1uf9ebnja0a26kc168phe"></linearGradient><linearGradient id="linear-gradient-15___cjrk1uf9ebnja0a26kc168phe" x1="691.29" y1="111.67" x2="834.32" y2="428.15" xlink:href="#linear-gradient-2___cjrk1uf9ebnja0a26kc168phe"></linearGradient></defs><path d="M131.3,125c-24.34,5.16-49.64,10.76-69.18,26.17-16.5,13-42.21,37-50,56.5-33,82.37,4.31,182.6,76.73,233.86,34.06,24.11,76.51,35.78,107.12,64.16,19.36,17.95,32.92,41.71,53.52,58.21,30.1,24.09,70.74,29.42,109.2,32,26.72,1.81,54.48,2.59,79.27-7.57,17.92-7.34,33.1-19.93,48-32.34l98.71-82.43c15.86-13.23,30.69-34.3,51.34-34.16C821.87,440.73,834.4,222,549.15,125.12c-25.14-8.54-42.38-32.28-66-44.45-48.79-25.15-104.94-17-154.15.4C266.52,103.22,196.14,111.21,131.3,125Z" transform="translate(0 0)" fill="#68e1fd" opacity="0.18" style="isolation:isolate"></path><path d="M779.07,477.86c7.78.13,17.8,2.07,19,9.75.65,4-1.64,7.89-4.12,11.12C778.44,519,752.74,529.25,727.38,532s-50.92-1.1-76.24-4.22q-54.89-6.78-110.2-9c-26.22-1.06-53.8-1.72-76.38-15.08-4.19-2.47-8.31-5.56-10.32-10-4-8.83,2.32-19.58,11-23.87s18.88-3.87,28.56-3.35C588.86,471.6,683.85,477.86,779.07,477.86Z" transform="translate(0 0)" fill="#000405" opacity="0.05" style="isolation:isolate"></path><path d="M617.33,200.59V461.15A24.86,24.86,0,0,1,592.46,486H202.77a24.86,24.86,0,0,1-24.86-24.86h0V200.59a24.86,24.86,0,0,1,24.83-24.87H592.46A24.86,24.86,0,0,1,617.33,200.59Z" transform="translate(0 0)" fill="#68e1fd"></path><path d="M610.59,183.67H184l3.46-2.65a6.12,6.12,0,0,1,.5-.39L390.88,25.07l6.41-4.91L603.76,178.44Z" transform="translate(0 0)" fill="#68e1fd"></path><path d="M617.33,200.59l-5.19,3.75h0l-37.79,27.37L390.88,364.6,214.43,228.71l-36.52-28.12.47-4.83a24.67,24.67,0,0,1,6.18-12.09,23.32,23.32,0,0,1,2.88-2.65,6.12,6.12,0,0,1,.5-.39,24.7,24.7,0,0,1,14.83-4.91H592.46a24.89,24.89,0,0,1,24.75,22.47Q617.33,199.39,617.33,200.59Z" transform="translate(0 0)" fill="#68e1fd"></path><path d="M187.44,181a24.92,24.92,0,0,0-2.88,2.65H184Z" transform="translate(0 0)" opacity="0.61" fill="url(#linear-gradient___cjrk1uf9ebnja0a26kc168phe)" style="isolation:isolate"></path><path d="M617.33,200.59l-5.19,3.76h0l-37.79,27.36L390.88,364.6,214.43,228.72l-36.52-28.13.47-4.82A24.92,24.92,0,0,1,187.44,181l.5-.38L390.88,25.07l6.41-4.91L603.76,178.44a24.83,24.83,0,0,1,13.45,19.76A23.76,23.76,0,0,1,617.33,200.59Z" transform="translate(0 0)" fill="url(#linear-gradient-2___cjrk1uf9ebnja0a26kc168phe)"></path><path d="M574.35,181.34v50.38l-67.71,49L491.11,292,390.88,364.6,296.61,292,282,280.76l-67.59-52V181.34a14.77,14.77,0,0,1,14.77-14.77H559.59A14.78,14.78,0,0,1,574.35,181.34Z" transform="translate(0 0)" fill="#fff"></path><path d="M524.73,225.51h-267a5.62,5.62,0,0,1-5.62-5.62h0a5.62,5.62,0,0,1,5.62-5.62h267a5.62,5.62,0,0,1,5.62,5.62h0A5.62,5.62,0,0,1,524.73,225.51Z" transform="translate(0 0)" fill="url(#linear-gradient-3___cjrk1uf9ebnja0a26kc168phe)"></path><path d="M524.73,258.76h-267a5.62,5.62,0,0,1-5.62-5.62h0a5.62,5.62,0,0,1,5.62-5.62h267a5.62,5.62,0,0,1,5.62,5.62h0A5.62,5.62,0,0,1,524.73,258.76Z" transform="translate(0 0)" fill="url(#linear-gradient-4___cjrk1uf9ebnja0a26kc168phe)"></path><polygon points="506.64 280.76 491.11 292 296.61 292 282.01 280.76 506.64 280.76" fill="url(#linear-gradient-5___cjrk1uf9ebnja0a26kc168phe)"></polygon><polygon points="390.88 364.6 228.02 486.02 557.1 486.02 390.88 364.6" fill="#000405" opacity="0.05" style="isolation:isolate"></polygon><path d="M215.81,74.06l-4.39,1.44c19-11.21,15.36-39.68,15.13-41.36.3,1.35,4.72,20.14,2.31,26.31C225.85,68.16,215.81,74.06,215.81,74.06Z" transform="translate(0 0)" fill="#fff" opacity="0.22" style="isolation:isolate"></path><path d="M184.41,108.44c-2.32,3.21-11.54,8.16-12.17,8.49,12.4-7.37,9.59-26.34,9.59-26.34v.11C182.32,92,186.67,105.3,184.41,108.44Z" transform="translate(0 0)" fill="#fff" opacity="0.22" style="isolation:isolate"></path><polygon points="178.65 214.27 382.32 370.98 390.88 364.6 177.91 200.59 178.65 214.27" fill="#fff" opacity="0.22" style="isolation:isolate"></polygon><polygon points="397.62 369.97 617.33 211.83 617.33 201.04 390.88 365.04 397.62 369.97" fill="#fff" opacity="0.22" style="isolation:isolate"></polygon><path d="M617.21,198.64l-.6,1.68-4.47,4.47c3.14-5.42-5.73-18-5.73-18l-3.54-2.65-10.63-8L390.88,25.52l6.41-4.91L603.76,178.88A24.86,24.86,0,0,1,617.21,198.64Z" transform="translate(0 0)" fill="#fff" opacity="0.22" style="isolation:isolate"></path></svg>