<svg data-name="Layer 1" xmlns="http://www.w3.org/2000/svg" xmlns:xlink="http://www.w3.org/1999/xlink" viewBox="0 0 706.94 597.04" width="200"><defs><linearGradient id="f" x1="94.66" y1="223.23" x2="216.08" y2="223.23" gradientTransform="translate(-66.12 335.98)" gradientUnits="userSpaceOnUse"><stop offset="0" stop-color="#183866"/><stop offset="1" stop-color="#1a7fc1"/></linearGradient><linearGradient id="a" x1="338.91" y1="-60.38" x2="-419.55" y2="-25.33" gradientTransform="translate(-66.12 335.98)" gradientUnits="userSpaceOnUse"><stop offset="0" stop-opacity="0"/><stop offset=".97"/><stop offset=".97" stop-color="#0c0c11"/><stop offset=".98" stop-color="#312f43"/><stop offset=".99" stop-color="#3f3d56"/></linearGradient><linearGradient id="g" x1="54.26" y1="50.12" x2="397.83" y2="-3.39" xlink:href="#a"/><linearGradient id="h" x1="87.57" y1="35.01" x2="330.28" y2="20.4" gradientTransform="translate(-66.12 335.98)" gradientUnits="userSpaceOnUse"><stop offset="0" stop-opacity="0"/><stop offset=".29" stop-opacity=".29"/><stop offset=".97"/><stop offset=".97" stop-color="#0c0c11"/><stop offset=".98" stop-color="#312f43"/><stop offset=".99" stop-color="#3f3d56"/></linearGradient><linearGradient id="i" x1="278.82" y1="182.52" x2="149.37" y2="3.28" gradientTransform="translate(-66.12 335.98)" gradientUnits="userSpaceOnUse"><stop offset="0" stop-opacity="0"/><stop offset=".84" stop-opacity=".66"/><stop offset=".97"/></linearGradient><linearGradient id="j" x1="227.29" y1="160.82" x2="70.83" y2="173.18" gradientTransform="translate(-66.12 335.98)" gradientUnits="userSpaceOnUse"><stop offset="0" stop-opacity="0"/><stop offset=".87" stop-opacity=".66"/><stop offset="1"/></linearGradient><linearGradient id="b" x1="416.13" y1="-359.1" x2="424.43" y2="338.3" gradientTransform="translate(-66.12 335.98)" gradientUnits="userSpaceOnUse"><stop offset="0" stop-opacity="0"/><stop offset=".5" stop-opacity=".38"/><stop offset=".97"/><stop offset=".97" stop-color="#0c0c11"/><stop offset=".98" stop-color="#312f43"/><stop offset=".99" stop-color="#3f3d56"/></linearGradient><linearGradient id="k" x1="88.67" y1="64.96" x2="88.95" y2="97.62" xlink:href="#b"/><linearGradient id="l" x1="109.38" y1="64.78" x2="109.66" y2="97.45" xlink:href="#b"/><linearGradient id="m" x1="130.08" y1="64.61" x2="130.36" y2="97.27" xlink:href="#b"/><linearGradient id="c" x1="445.33" y1="-266.04" x2="388.26" y2="96.31" gradientTransform="translate(-66.12 335.98)" gradientUnits="userSpaceOnUse"><stop offset=".01"/><stop offset=".99" stop-opacity="0"/></linearGradient><linearGradient id="n" x1="412.42" y1="-184.49" x2="411.09" y2="-99.45" xlink:href="#c"/><linearGradient id="d" x1="574.14" y1="33.65" x2="695.58" y2="151.44" gradientTransform="translate(-66.12 335.98)" gradientUnits="userSpaceOnUse"><stop offset=".01"/><stop offset=".15" stop-opacity=".52"/><stop offset=".99" stop-opacity="0"/></linearGradient><linearGradient id="e" x1="-488.91" y1="862.13" x2="-453.9" y2="862.13" gradientTransform="rotate(14 2133.525 4645.377)" gradientUnits="userSpaceOnUse"><stop offset="0" stop-color="#ecc4d7"/><stop offset=".42" stop-color="#efd4d1"/><stop offset="1" stop-color="#f2eac9"/></linearGradient></defs><path d="M149.64 552c1.26 3.32-1.34 7-4.52 8.58s-6.86 1.72-10.3 2.61c-5.35 1.38-10.06 4.52-15.24 6.45-7.11 2.65-14.85 2.94-22.44 3.2-22.9.79-47.34 1.18-66.8-10.92a3.72 3.72 0 01-1.69-1.68 3 3 0 01.21-2.17c1.61-3.71 6.23-4.84 10.23-5.47 18.84-2.94 38.13-5.6 57.21-6.27 9.92-.33 49.58-4.33 53.34 5.67z" opacity=".19" fill="url(#f)" style="isolation:isolate"/><path d="M662.28 337.33c4.06-42.35 24.67-87.15 3.6-125.44-5.53-10-13.46-18.57-22.33-26.54-11.72-10.51-25.07-20-36.74-30.59C586.16 136 574.35 113.57 558.44 93a153.22 153.22 0 00-22.37-23.73q-4.94-4.17-10-8.21c-27.66-21.91-58.79-40.72-94.19-51.64C381.68-6 322-3.53 279.61 24.67c-15.26 10.15-27.62 23-39.54 36.4-9.62 10.77-18.91 21.83-29.19 31.93-9.19 9.08-19.15 17.4-30.78 24.07-16.56 9.51-35.62 15.1-53.19 23.09a182.8 182.8 0 00-32 18.67 179.2 179.2 0 00-35.69 34.38C37 221.53 24.43 255.68 25.28 290.06c.13 5.38.57 10.79.74 16.19A78.57 78.57 0 0125 324c-1.86 9.6-6.43 18.62-11.15 27.56C7.42 363.73.69 375.77.05 389c-1.12 22.74 15.72 42.22 34.4 58.87 3.12 2.78 6.3 5.49 9.44 8.12 5 4.2 10.15 8.4 15.34 12.55l1 .8c2.78 2.21 5.57 4.41 8.4 6.59 7.1 5.47 14.37 10.8 21.82 15.88q5 3.39 10 6.59a273.13 273.13 0 0024 13.74c20.31 10.32 42 17.86 65.34 20.86 63.93 8 127.52-20.43 192-16.67 42.31 2.46 81.77 18.6 122.77 28s88.61 10.9 121.67-12.33c30.47-21.37 40.46-58.29 40.54-92.43s-7.77-68.21-4.49-102.24z" fill="#68e1fd" opacity=".18" style="isolation:isolate"/><path d="M615.88 61.07h-529a27.61 27.61 0 00-27.65 27.57v380.69H643.5V88.68a27.61 27.61 0 00-27.61-27.61z" fill="#68e1fd"/><path d="M165.1 407.83c-1 10.43-10.36 18.09-20 21.37-5 1.7-10.31 2.65-14.6 5.75s-7.1 9.37-4.4 14a16.35 16.35 0 0115.26 10.29c-6.17 9.39-17.1 14.52-28 16s-22-.26-32.8-2.06c-3.79-.62-7.83-1.38-10.56-4.16s-3.48-6.82-4.16-10.65c-.09-.54-.19-1.08-.29-1.63H59V93h35.8v173c0 14.11-.64 28.34-.42 42.4.22 13.38 9.12 20.16 17.6 29.89 2.61 3 5.32 6.18 6.09 10.13.83 4.19-.67 8.63.44 12.74 1.92 7.14 10.91 9.84 17.81 7.82s12.43-7.22 18.38-11.36a67.18 67.18 0 0134.85-11.89c-4.19 17.77-24.8 29-25.28 47.31-.15 4.96 1.31 9.84.83 14.79z" opacity=".47" fill="url(#a)" style="isolation:isolate"/><path d="M33.78 423.51c-9-14.55-15.3-30.9-17.09-47.91-1.1-10.37-.63-21.31-5.31-30.63-2.78-5.54-7.31-10.3-8.71-16.35-2.6-11.3 6.47-21.63 14.8-29.7a3.85 3.85 0 011.92-1.24c1.3-.24 2.47.84 3.26 1.91 4.77 6.43 5.15 15 6.37 22.87 1.31 8.55 4.11 17.39 10.62 23.1s16.54 8.22 19.75 16.28c2.85 7.18-1.24 15.65 1.33 22.94s11.36 11.66 12.68 19.34c.88 5.1-1.86 10.16-1.78 15.33.06 3.94 1.75 7.65 2.71 11.48 2.06 8.22 0 32.29-12.49 25.25-11.31-6.35-21.42-21.94-28.06-32.67z" fill="#68e1fd"/><path d="M33.78 423.51c-9-14.55-15.3-30.9-17.09-47.91-1.1-10.37-.63-21.31-5.31-30.63-2.78-5.54-7.31-10.3-8.71-16.35-2.6-11.3 6.47-21.63 14.8-29.7a3.85 3.85 0 011.92-1.24c1.3-.24 2.47.84 3.26 1.91 4.77 6.43 5.15 15 6.37 22.87 1.31 8.55 4.11 17.39 10.62 23.1s16.54 8.22 19.75 16.28c2.85 7.18-1.24 15.65 1.33 22.94s11.36 11.66 12.68 19.34c.88 5.1-1.86 10.16-1.78 15.33.06 3.94 1.75 7.65 2.71 11.48 2.06 8.22 0 32.29-12.49 25.25-11.31-6.35-21.42-21.94-28.06-32.67z" fill="url(#g)"/><path d="M56.48 407c-3.27-16.78-3.38-34.32 1-50.86 2.65-10.09 7-20.15 5.87-30.52-.64-6.17-3.2-12.23-2.36-18.37 1.57-11.49 13.7-18 24.34-22.56a4 4 0 012.24-.48c1.31.24 2 1.66 2.37 2.94 2.19 7.7-.47 15.82-2.13 23.65-1.79 8.46-2.3 17.72 1.76 25.36s12.57 13.54 12.72 22.21c.13 7.73-6.69 14.21-6.86 21.93s6.5 14.92 5 22.58c-1 5.08-5.34 8.84-7.09 13.7-1.34 3.71-1.07 7.78-1.52 11.7-1 8.42-11.38 30.23-20.62 19.2-8.32-9.98-12.32-28.13-14.72-40.48z" fill="#68e1fd"/><path d="M56.48 407c-3.27-16.78-3.38-34.32 1-50.86 2.65-10.09 7-20.15 5.87-30.52-.64-6.17-3.2-12.23-2.36-18.37 1.57-11.49 13.7-18 24.34-22.56a4 4 0 012.24-.48c1.31.24 2 1.66 2.37 2.94 2.19 7.7-.47 15.82-2.13 23.65-1.79 8.46-2.3 17.72 1.76 25.36s12.57 13.54 12.72 22.21c.13 7.73-6.69 14.21-6.86 21.93s6.5 14.92 5 22.58c-1 5.08-5.34 8.84-7.09 13.7-1.34 3.71-1.07 7.78-1.52 11.7-1 8.42-11.38 30.23-20.62 19.2-8.32-9.98-12.32-28.13-14.72-40.48z" fill="url(#h)"/><path d="M79.54 409.77c8.6-14.78 20.07-28 34.23-37.62 8.64-5.85 18.51-10.58 24.53-19.1 3.58-5.06 5.66-11.3 10.33-15.37 8.75-7.61 22.14-4.48 33.18-.92a3.91 3.91 0 012 1.11c.83 1 .42 2.57-.15 3.78-3.42 7.23-10.78 11.58-17.18 16.38-6.93 5.18-13.41 11.81-15.39 20.23s.53 18.47-5.08 25.09c-5 5.9-14.39 6.27-19.61 12s-4.94 15.51-11.1 20.29c-4.09 3.17-9.84 3.14-14.36 5.64-3.45 1.91-5.93 5.14-8.86 7.79-6.28 5.69-28.47 15.24-28.15.86.27-12.93 9.26-29.26 15.61-40.16z" fill="#68e1fd"/><path d="M79.54 409.77c8.6-14.78 20.07-28 34.23-37.62 8.64-5.85 18.51-10.58 24.53-19.1 3.58-5.06 5.66-11.3 10.33-15.37 8.75-7.61 22.14-4.48 33.18-.92a3.91 3.91 0 012 1.11c.83 1 .42 2.57-.15 3.78-3.42 7.23-10.78 11.58-17.18 16.38-6.93 5.18-13.41 11.81-15.39 20.23s.53 18.47-5.08 25.09c-5 5.9-14.39 6.27-19.61 12s-4.94 15.51-11.1 20.29c-4.09 3.17-9.84 3.14-14.36 5.64-3.45 1.91-5.93 5.14-8.86 7.79-6.28 5.69-28.47 15.24-28.15.86.27-12.93 9.26-29.26 15.61-40.16z" fill="url(#i)"/><path d="M133.22 461.76l-1.34 7.57-1.15 6.59L128 491.8l-1.09 6.59-2.76 15.89-1.15 6.58-6.86 39.48H44.8l-6.92-39.48-1.15-6.58L34 498.39l-1.16-6.59L30 475.92l-1.13-6.59-1.32-7.56a13.1 13.1 0 0110.63-15.17 13.3 13.3 0 012.27-.2h79.85a13.08 13.08 0 0113.1 13.06 13.65 13.65 0 01-.2 2.3z" fill="#68e1fd"/><path d="M133.22 461.76l-1.34 7.57-1.15 6.59L128 491.8l-1.09 6.59-2.76 15.89-1.15 6.58-6.86 39.48H44.8l-6.92-39.48-1.15-6.58L34 498.39l-1.16-6.59L30 475.92l-1.13-6.59-1.32-7.56a13.1 13.1 0 0110.63-15.17 13.3 13.3 0 012.27-.2h79.85a13.08 13.08 0 0113.1 13.06 13.65 13.65 0 01-.2 2.3z" fill="url(#j)"/><path d="M643.5 88.68V93H59.23v-4.3a27.61 27.61 0 0127.61-27.63h529a27.61 27.61 0 0127.62 27.6z" fill="url(#b)"/><circle cx="88.76" cy="75.84" r="6.17" fill="url(#k)"/><circle cx="109.47" cy="75.84" r="6.17" fill="url(#l)"/><circle cx="130.17" cy="75.84" r="6.17" fill="url(#m)"/><path d="M417.19 227v114.25a14.63 14.63 0 01-14.61 14.6H288.37a14.63 14.63 0 01-14.61-14.6V227a14.6 14.6 0 0114.6-14.6h114.22a14.6 14.6 0 0114.61 14.6z" fill="url(#c)"/><path d="M357.15 270.52A11.7 11.7 0 01351.3 281a3 3 0 00-1.5 2.65v25a3.48 3.48 0 01-3.48 3.48h-1.7a3.48 3.48 0 01-3.48-3.48v-25a3.06 3.06 0 00-1.5-2.66 11.68 11.68 0 1117.51-10.45zM131.91 469.33l-1.15 6.59H30.02l-1.15-6.59h103.04zM127.99 491.8l-1.14 6.59H33.96l-1.16-6.59h95.19zM124.09 514.28l-1.15 6.58H37.88l-1.15-6.58h87.36z" fill="#68e1fd"/><path d="M384.14 212.43h-12.41v-16.67a26.25 26.25 0 00-52.5.13v16.54h-12.42v-17a38.67 38.67 0 0177.32.23z" fill="url(#n)"/></svg>