<?xml version="1.0" encoding="UTF-8"?>
<svg id="Layer_1___cjsh4ufpovu3f0c15frfm21b3" data-name="Layer 1" xmlns="http://www.w3.org/2000/svg" xmlns:xlink="http://www.w3.org/1999/xlink" viewBox="0 0 706.94 597.04" width="200px">
              <defs><linearGradient id="linear-gradient___cjsh4ufpovu3f0c15frfm21b3" x1="94.66" y1="223.23" x2="216.08" y2="223.23" gradientTransform="translate(-66.12 335.98)" gradientUnits="userSpaceOnUse"><stop offset="0" stop-color="#183866"></stop><stop offset="1" stop-color="#1a7fc1"></stop></linearGradient><linearGradient id="linear-gradient-2___cjsh4ufpovu3f0c15frfm21b3" x1="338.91" y1="-60.38" x2="-419.55" y2="-25.33" gradientTransform="translate(-66.12 335.98)" gradientUnits="userSpaceOnUse"><stop offset="0" stop-opacity="0"></stop><stop offset="0.97"></stop><stop offset="0.97" stop-color="#0c0c11"></stop><stop offset="0.98" stop-color="#312f43"></stop><stop offset="0.99" stop-color="#3f3d56"></stop></linearGradient><linearGradient id="linear-gradient-3___cjsh4ufpovu3f0c15frfm21b3" x1="54.26" y1="50.12" x2="397.83" y2="-3.39" xlink:href="#linear-gradient-2___cjsh4ufpovu3f0c15frfm21b3"></linearGradient><linearGradient id="linear-gradient-4___cjsh4ufpovu3f0c15frfm21b3" x1="87.57" y1="35.01" x2="330.28" y2="20.4" gradientTransform="translate(-66.12 335.98)" gradientUnits="userSpaceOnUse"><stop offset="0" stop-opacity="0"></stop><stop offset="0.29" stop-opacity="0.29"></stop><stop offset="0.97"></stop><stop offset="0.97" stop-color="#0c0c11"></stop><stop offset="0.98" stop-color="#312f43"></stop><stop offset="0.99" stop-color="#3f3d56"></stop></linearGradient><linearGradient id="linear-gradient-5___cjsh4ufpovu3f0c15frfm21b3" x1="278.82" y1="182.52" x2="149.37" y2="3.28" gradientTransform="translate(-66.12 335.98)" gradientUnits="userSpaceOnUse"><stop offset="0" stop-opacity="0"></stop><stop offset="0.84" stop-opacity="0.66"></stop><stop offset="0.97"></stop></linearGradient><linearGradient id="linear-gradient-6___cjsh4ufpovu3f0c15frfm21b3" x1="227.29" y1="160.82" x2="70.83" y2="173.18" gradientTransform="translate(-66.12 335.98)" gradientUnits="userSpaceOnUse"><stop offset="0" stop-opacity="0"></stop><stop offset="0.87" stop-opacity="0.66"></stop><stop offset="1"></stop></linearGradient><linearGradient id="linear-gradient-7___cjsh4ufpovu3f0c15frfm21b3" x1="416.13" y1="-359.1" x2="424.43" y2="338.3" gradientTransform="translate(-66.12 335.98)" gradientUnits="userSpaceOnUse"><stop offset="0" stop-opacity="0"></stop><stop offset="0.5" stop-opacity="0.38"></stop><stop offset="0.97"></stop><stop offset="0.97" stop-color="#0c0c11"></stop><stop offset="0.98" stop-color="#312f43"></stop><stop offset="0.99" stop-color="#3f3d56"></stop></linearGradient><linearGradient id="linear-gradient-8___cjsh4ufpovu3f0c15frfm21b3" x1="88.67" y1="64.96" x2="88.95" y2="97.62" gradientTransform="matrix(1, 0, 0, 1, 0, 0)" xlink:href="#linear-gradient-7___cjsh4ufpovu3f0c15frfm21b3"></linearGradient><linearGradient id="linear-gradient-9___cjsh4ufpovu3f0c15frfm21b3" x1="109.38" y1="64.78" x2="109.66" y2="97.45" gradientTransform="matrix(1, 0, 0, 1, 0, 0)" xlink:href="#linear-gradient-7___cjsh4ufpovu3f0c15frfm21b3"></linearGradient><linearGradient id="linear-gradient-10___cjsh4ufpovu3f0c15frfm21b3" x1="130.08" y1="64.61" x2="130.36" y2="97.27" gradientTransform="matrix(1, 0, 0, 1, 0, 0)" xlink:href="#linear-gradient-7___cjsh4ufpovu3f0c15frfm21b3"></linearGradient><linearGradient id="linear-gradient-11___cjsh4ufpovu3f0c15frfm21b3" x1="445.33" y1="-266.04" x2="388.26" y2="96.31" gradientTransform="translate(-66.12 335.98)" gradientUnits="userSpaceOnUse"><stop offset="0.01"></stop><stop offset="0.99" stop-opacity="0"></stop></linearGradient><linearGradient id="linear-gradient-12___cjsh4ufpovu3f0c15frfm21b3" x1="412.42" y1="-184.49" x2="411.09" y2="-99.45" xlink:href="#linear-gradient-11___cjsh4ufpovu3f0c15frfm21b3"></linearGradient><linearGradient id="linear-gradient-13___cjsh4ufpovu3f0c15frfm21b3" x1="574.14" y1="33.65" x2="695.58" y2="151.44" gradientTransform="translate(-66.12 335.98)" gradientUnits="userSpaceOnUse"><stop offset="0.01"></stop><stop offset="0.15" stop-opacity="0.52"></stop><stop offset="0.99" stop-opacity="0"></stop></linearGradient><linearGradient id="linear-gradient-14___cjsh4ufpovu3f0c15frfm21b3" x1="610.2" y1="158.47" x2="469.84" y2="39.46" gradientTransform="translate(-66.12 335.98)" gradientUnits="userSpaceOnUse"><stop offset="0.01"></stop><stop offset="0.16" stop-opacity="0.52"></stop><stop offset="1" stop-opacity="0"></stop></linearGradient><linearGradient id="linear-gradient-15___cjsh4ufpovu3f0c15frfm21b3" x1="615.98" y1="165.9" x2="827.13" y2="112.2" xlink:href="#linear-gradient-13___cjsh4ufpovu3f0c15frfm21b3"></linearGradient><linearGradient id="linear-gradient-16___cjsh4ufpovu3f0c15frfm21b3" x1="599.82" y1="79.25" x2="762.77" y2="-26.33" xlink:href="#linear-gradient-13___cjsh4ufpovu3f0c15frfm21b3"></linearGradient><linearGradient id="linear-gradient-17___cjsh4ufpovu3f0c15frfm21b3" x1="619.9" y1="33.21" x2="765.75" y2="75.93" xlink:href="#linear-gradient-13___cjsh4ufpovu3f0c15frfm21b3"></linearGradient><linearGradient id="linear-gradient-18___cjsh4ufpovu3f0c15frfm21b3" x1="-488.91" y1="862.13" x2="-453.9" y2="862.13" gradientTransform="matrix(0.97, 0.25, -0.25, 0.97, 1225.35, -394.02)" gradientUnits="userSpaceOnUse"><stop offset="0" stop-color="#ecc4d7"></stop><stop offset="0.42" stop-color="#efd4d1"></stop><stop offset="1" stop-color="#f2eac9"></stop></linearGradient><linearGradient id="linear-gradient-19___cjsh4ufpovu3f0c15frfm21b3" x1="598.25" y1="-27.99" x2="710.18" y2="-69.78" gradientTransform="translate(-66.12 335.98)" gradientUnits="userSpaceOnUse"><stop offset="0.01"></stop><stop offset="0.03" stop-opacity="0.93"></stop><stop offset="0.51" stop-opacity="0.05"></stop><stop offset="0.58" stop-opacity="0.03"></stop><stop offset="0.99" stop-opacity="0"></stop></linearGradient><linearGradient id="linear-gradient-20___cjsh4ufpovu3f0c15frfm21b3" x1="608.77" y1="-16.48" x2="685.27" y2="-21.61" xlink:href="#linear-gradient-13___cjsh4ufpovu3f0c15frfm21b3"></linearGradient><linearGradient id="linear-gradient-21___cjsh4ufpovu3f0c15frfm21b3" x1="-475.44" y1="876.85" x2="-432.92" y2="895.31" xlink:href="#linear-gradient-18___cjsh4ufpovu3f0c15frfm21b3"></linearGradient><linearGradient id="linear-gradient-22___cjsh4ufpovu3f0c15frfm21b3" x1="550.81" y1="44.43" x2="542.86" y2="295.73" xlink:href="#linear-gradient-13___cjsh4ufpovu3f0c15frfm21b3"></linearGradient><linearGradient id="linear-gradient-23___cjsh4ufpovu3f0c15frfm21b3" x1="606.39" y1="45.01" x2="598.44" y2="296.31" xlink:href="#linear-gradient-13___cjsh4ufpovu3f0c15frfm21b3"></linearGradient></defs><path d="M149.64,552c1.26,3.32-1.34,7-4.52,8.58s-6.86,1.72-10.3,2.61c-5.35,1.38-10.06,4.52-15.24,6.45-7.11,2.65-14.85,2.94-22.44,3.2-22.9.79-47.34,1.18-66.8-10.92a3.72,3.72,0,0,1-1.69-1.68,3,3,0,0,1,.21-2.17c1.61-3.71,6.23-4.84,10.23-5.47,18.84-2.94,38.13-5.6,57.21-6.27C106.22,546,145.88,542,149.64,552Z" transform="translate(0 0)" opacity="0.19" fill="url(#linear-gradient___cjsh4ufpovu3f0c15frfm21b3)" style="isolation:isolate"></path><path d="M662.28,337.33c4.06-42.35,24.67-87.15,3.6-125.44-5.53-10-13.46-18.57-22.33-26.54-11.72-10.51-25.07-20-36.74-30.59C586.16,136,574.35,113.57,558.44,93a153.22,153.22,0,0,0-22.37-23.73q-4.94-4.17-10-8.21c-27.66-21.91-58.79-40.72-94.19-51.64C381.68-6,322-3.53,279.61,24.67c-15.26,10.15-27.62,23-39.54,36.4C230.45,71.84,221.16,82.9,210.88,93c-9.19,9.08-19.15,17.4-30.78,24.07-16.56,9.51-35.62,15.1-53.19,23.09a182.8,182.8,0,0,0-32,18.67,179.2,179.2,0,0,0-35.69,34.38C37,221.53,24.43,255.68,25.28,290.06c.13,5.38.57,10.79.74,16.19A78.57,78.57,0,0,1,25,324c-1.86,9.6-6.43,18.62-11.15,27.56C7.42,363.73.69,375.77.05,389c-1.12,22.74,15.72,42.22,34.4,58.87,3.12,2.78,6.3,5.49,9.44,8.12,5,4.2,10.15,8.4,15.34,12.55l1,.8c2.78,2.21,5.57,4.41,8.4,6.59,7.1,5.47,14.37,10.8,21.82,15.88q5,3.39,10,6.59a273.13,273.13,0,0,0,24,13.74c20.31,10.32,42,17.86,65.34,20.86,63.93,8,127.52-20.43,192-16.67,42.31,2.46,81.77,18.6,122.77,28s88.61,10.9,121.67-12.33c30.47-21.37,40.46-58.29,40.54-92.43S659,371.36,662.28,337.33Z" transform="translate(0 0)" fill="#68e1fd" opacity="0.18" style="isolation:isolate"></path><path d="M615.88,61.07h-529A27.61,27.61,0,0,0,59.23,88.64h0V469.33H643.5V88.68a27.61,27.61,0,0,0-27.61-27.61Z" transform="translate(0 0)" fill="#68e1fd"></path><path d="M165.1,407.83c-1,10.43-10.36,18.09-20,21.37-5,1.7-10.31,2.65-14.6,5.75s-7.1,9.37-4.4,14a16.35,16.35,0,0,1,15.26,10.29c-6.17,9.39-17.1,14.52-28,16s-22-.26-32.8-2.06c-3.79-.62-7.83-1.38-10.56-4.16s-3.48-6.82-4.16-10.65c-.09-.54-.19-1.08-.29-1.63H59V93H94.8V266c0,14.11-.64,28.34-.42,42.4.22,13.38,9.12,20.16,17.6,29.89,2.61,3,5.32,6.18,6.09,10.13.83,4.19-.67,8.63.44,12.74,1.92,7.14,10.91,9.84,17.81,7.82s12.43-7.22,18.38-11.36a67.18,67.18,0,0,1,34.85-11.89c-4.19,17.77-24.8,29-25.28,47.31C164.12,398,165.58,402.88,165.1,407.83Z" transform="translate(0 0)" opacity="0.47" fill="url(#linear-gradient-2___cjsh4ufpovu3f0c15frfm21b3)" style="isolation:isolate"></path><path d="M33.78,423.51c-9-14.55-15.3-30.9-17.09-47.91-1.1-10.37-.63-21.31-5.31-30.63-2.78-5.54-7.31-10.3-8.71-16.35-2.6-11.3,6.47-21.63,14.8-29.7a3.85,3.85,0,0,1,1.92-1.24c1.3-.24,2.47.84,3.26,1.91,4.77,6.43,5.15,15,6.37,22.87,1.31,8.55,4.11,17.39,10.62,23.1s16.54,8.22,19.75,16.28c2.85,7.18-1.24,15.65,1.33,22.94s11.36,11.66,12.68,19.34c.88,5.1-1.86,10.16-1.78,15.33.06,3.94,1.75,7.65,2.71,11.48,2.06,8.22,0,32.29-12.49,25.25C50.53,449.83,40.42,434.24,33.78,423.51Z" transform="translate(0 0)" fill="#68e1fd"></path><path d="M33.78,423.51c-9-14.55-15.3-30.9-17.09-47.91-1.1-10.37-.63-21.31-5.31-30.63-2.78-5.54-7.31-10.3-8.71-16.35-2.6-11.3,6.47-21.63,14.8-29.7a3.85,3.85,0,0,1,1.92-1.24c1.3-.24,2.47.84,3.26,1.91,4.77,6.43,5.15,15,6.37,22.87,1.31,8.55,4.11,17.39,10.62,23.1s16.54,8.22,19.75,16.28c2.85,7.18-1.24,15.65,1.33,22.94s11.36,11.66,12.68,19.34c.88,5.1-1.86,10.16-1.78,15.33.06,3.94,1.75,7.65,2.71,11.48,2.06,8.22,0,32.29-12.49,25.25C50.53,449.83,40.42,434.24,33.78,423.51Z" transform="translate(0 0)" fill="url(#linear-gradient-3___cjsh4ufpovu3f0c15frfm21b3)"></path><path d="M56.48,407c-3.27-16.78-3.38-34.32,1-50.86,2.65-10.09,7-20.15,5.87-30.52-.64-6.17-3.2-12.23-2.36-18.37,1.57-11.49,13.7-18,24.34-22.56a4,4,0,0,1,2.24-.48c1.31.24,2,1.66,2.37,2.94,2.19,7.7-.47,15.82-2.13,23.65-1.79,8.46-2.3,17.72,1.76,25.36s12.57,13.54,12.72,22.21c.13,7.73-6.69,14.21-6.86,21.93s6.5,14.92,5,22.58c-1,5.08-5.34,8.84-7.09,13.7-1.34,3.71-1.07,7.78-1.52,11.7-1,8.42-11.38,30.23-20.62,19.2C62.88,437.5,58.88,419.35,56.48,407Z" transform="translate(0 0)" fill="#68e1fd"></path><path d="M56.48,407c-3.27-16.78-3.38-34.32,1-50.86,2.65-10.09,7-20.15,5.87-30.52-.64-6.17-3.2-12.23-2.36-18.37,1.57-11.49,13.7-18,24.34-22.56a4,4,0,0,1,2.24-.48c1.31.24,2,1.66,2.37,2.94,2.19,7.7-.47,15.82-2.13,23.65-1.79,8.46-2.3,17.72,1.76,25.36s12.57,13.54,12.72,22.21c.13,7.73-6.69,14.21-6.86,21.93s6.5,14.92,5,22.58c-1,5.08-5.34,8.84-7.09,13.7-1.34,3.71-1.07,7.78-1.52,11.7-1,8.42-11.38,30.23-20.62,19.2C62.88,437.5,58.88,419.35,56.48,407Z" transform="translate(0 0)" fill="url(#linear-gradient-4___cjsh4ufpovu3f0c15frfm21b3)"></path><path d="M79.54,409.77c8.6-14.78,20.07-28,34.23-37.62,8.64-5.85,18.51-10.58,24.53-19.1,3.58-5.06,5.66-11.3,10.33-15.37,8.75-7.61,22.14-4.48,33.18-.92a3.91,3.91,0,0,1,2,1.11c.83,1,.42,2.57-.15,3.78-3.42,7.23-10.78,11.58-17.18,16.38-6.93,5.18-13.41,11.81-15.39,20.23s.53,18.47-5.08,25.09c-5,5.9-14.39,6.27-19.61,12s-4.94,15.51-11.1,20.29c-4.09,3.17-9.84,3.14-14.36,5.64-3.45,1.91-5.93,5.14-8.86,7.79-6.28,5.69-28.47,15.24-28.15.86C64.2,437,73.19,420.67,79.54,409.77Z" transform="translate(0 0)" fill="#68e1fd"></path><path d="M79.54,409.77c8.6-14.78,20.07-28,34.23-37.62,8.64-5.85,18.51-10.58,24.53-19.1,3.58-5.06,5.66-11.3,10.33-15.37,8.75-7.61,22.14-4.48,33.18-.92a3.91,3.91,0,0,1,2,1.11c.83,1,.42,2.57-.15,3.78-3.42,7.23-10.78,11.58-17.18,16.38-6.93,5.18-13.41,11.81-15.39,20.23s.53,18.47-5.08,25.09c-5,5.9-14.39,6.27-19.61,12s-4.94,15.51-11.1,20.29c-4.09,3.17-9.84,3.14-14.36,5.64-3.45,1.91-5.93,5.14-8.86,7.79-6.28,5.69-28.47,15.24-28.15.86C64.2,437,73.19,420.67,79.54,409.77Z" transform="translate(0 0)" fill="url(#linear-gradient-5___cjsh4ufpovu3f0c15frfm21b3)"></path><path d="M133.22,461.76l-1.34,7.57-1.15,6.59L128,491.8l-1.09,6.59-2.76,15.89L123,520.86l-6.86,39.48H44.8l-6.92-39.48-1.15-6.58L34,498.39l-1.16-6.59L30,475.92l-1.13-6.59-1.32-7.56A13.1,13.1,0,0,1,38.18,446.6h0a13.3,13.3,0,0,1,2.27-.2H120.3a13.08,13.08,0,0,1,13.1,13.06,13.65,13.65,0,0,1-.2,2.3Z" transform="translate(0 0)" fill="#68e1fd"></path><path d="M133.22,461.76l-1.34,7.57-1.15,6.59L128,491.8l-1.09,6.59-2.76,15.89L123,520.86l-6.86,39.48H44.8l-6.92-39.48-1.15-6.58L34,498.39l-1.16-6.59L30,475.92l-1.13-6.59-1.32-7.56A13.1,13.1,0,0,1,38.18,446.6h0a13.3,13.3,0,0,1,2.27-.2H120.3a13.08,13.08,0,0,1,13.1,13.06,13.65,13.65,0,0,1-.2,2.3Z" transform="translate(0 0)" fill="url(#linear-gradient-6___cjsh4ufpovu3f0c15frfm21b3)"></path><path d="M643.5,88.68V93H59.23v-4.3A27.61,27.61,0,0,1,86.84,61.07h529a27.61,27.61,0,0,1,27.62,27.6Z" transform="translate(0 0)" fill="url(#linear-gradient-7___cjsh4ufpovu3f0c15frfm21b3)"></path><circle cx="88.76" cy="75.84" r="6.17" fill="url(#linear-gradient-8___cjsh4ufpovu3f0c15frfm21b3)"></circle><circle cx="109.47" cy="75.84" r="6.17" fill="url(#linear-gradient-9___cjsh4ufpovu3f0c15frfm21b3)"></circle><circle cx="130.17" cy="75.84" r="6.17" fill="url(#linear-gradient-10___cjsh4ufpovu3f0c15frfm21b3)"></circle><path d="M417.19,227V341.25a14.63,14.63,0,0,1-14.61,14.6H288.37a14.63,14.63,0,0,1-14.61-14.6V227a14.6,14.6,0,0,1,14.6-14.6H402.58A14.6,14.6,0,0,1,417.19,227Z" transform="translate(0 0)" fill="url(#linear-gradient-11___cjsh4ufpovu3f0c15frfm21b3)"></path><path d="M357.15,270.52A11.7,11.7,0,0,1,351.3,281a3,3,0,0,0-1.5,2.65v25a3.48,3.48,0,0,1-3.48,3.48h-1.7a3.48,3.48,0,0,1-3.48-3.48h0v-25a3.06,3.06,0,0,0-1.5-2.66,11.68,11.68,0,1,1,17.51-10.45Z" transform="translate(0 0)" fill="#68e1fd"></path><polygon points="131.91 469.33 130.76 475.92 30.02 475.92 28.87 469.33 131.91 469.33" fill="#68e1fd"></polygon><polygon points="127.99 491.8 126.85 498.39 33.96 498.39 32.8 491.8 127.99 491.8" fill="#68e1fd"></polygon><polygon points="124.09 514.28 122.94 520.86 37.88 520.86 36.73 514.28 124.09 514.28" fill="#68e1fd"></polygon><path d="M384.14,212.43H371.73V195.76a26.25,26.25,0,0,0-52.5.13v16.54H306.81v-17a38.67,38.67,0,0,1,77.32.23Z" transform="translate(0 0)" fill="url(#linear-gradient-12___cjsh4ufpovu3f0c15frfm21b3)"></path>
            </svg>
