<svg xmlns="http://www.w3.org/2000/svg" width="20" height="20" viewBox="0 0 20 20">
  <path id="Pfad_331" data-name="Pfad 331" d="M9.5,6.5v3h-3v-3h3M11,5H5v6h6V5ZM9.5,14.5v3h-3v-3h3M11,13H5v6h6V13Zm6.5-6.5v3h-3v-3h3M19,5H13v6h6V5Zm-6,8h1.5v1.5H13Zm1.5,1.5H16V16H14.5ZM16,13h1.5v1.5H16Zm-3,3h1.5v1.5H13Zm1.5,1.5H16V19H14.5ZM16,16h1.5v1.5H16Zm1.5-1.5H19V16H17.5Zm0,3H19V19H17.5ZM22,7H20V4H17V2h5Zm0,15V17H20v3H17v2ZM2,22H7V20H4V17H2ZM2,2V7H4V4H7V2Z" transform="translate(-2 -2)" fill="#000000"/>
</svg>
