<svg id="Ebene_1" data-name="Ebene 1" xmlns="http://www.w3.org/2000/svg" viewBox="0 0 323.254 426"><defs><style>.cls-1{fill:#faa401;}</style></defs><path id="Pfad_296" data-name="Pfad 296" class="cls-1" d="M667.107,659.1q-26.235-64.165-52.511-128.25a4.2,4.2,0,0,1,1.4-5.78l.063-.038a45.161,45.161,0,0,1,11.994-5.935,26.552,26.552,0,0,0,11.676-7.713A22.385,22.385,0,0,0,643.8,491.44a26.678,26.678,0,0,1,8.824-28.489,29.935,29.935,0,0,0,4.431-4.79,20.984,20.984,0,0,0,1.979-23.823,57.8,57.8,0,0,0-4.136-6.844,23.747,23.747,0,0,1-2.613-24.415,37.4,37.4,0,0,0,3.557-11.753,21.011,21.011,0,0,0-11.359-21.168,28.5,28.5,0,0,1-16.309-28.771,17.709,17.709,0,0,0-.352-3.247A21.366,21.366,0,0,0,609.9,319.66c-2.613-.517-5.225-1.027-7.872-1.427a22.3,22.3,0,0,1-17.377-12.228c-1.578-3-3.081-6.052-4.908-8.961a20.513,20.513,0,0,0-20.575-10.208,97.8,97.8,0,0,0-12.07,2.571,22.142,22.142,0,0,1-19.824-4.233c-2.571-2.067-5.1-4.135-7.754-6.017a21.549,21.549,0,0,0-25.76.234c-2.757,2.02-5.383,4.136-8.072,6.2a21.768,21.768,0,0,1-18.914,3.881c-3.047-.69-6.094-1.544-9.14-2.213a21.651,21.651,0,0,0-24.257,10.408,37.108,37.108,0,0,0-2.757,5.1A25.023,25.023,0,0,1,408.66,318.8c-1.82.2-3.6.552-5.383.91A21.216,21.216,0,0,0,385.906,337.4c-.634,4.191-.833,8.472-1.226,12.663a20.871,20.871,0,0,1-9.064,15.475c-2.847,2.067-5.852,3.956-8.706,5.976a21.4,21.4,0,0,0-8.113,24.732c1.069,3.205,2.254,6.41,3.364,9.574a21.63,21.63,0,0,1-1.978,19.19c-1.62,2.689-3.364,5.342-4.984,8.037a21.492,21.492,0,0,0,2.758,26.793c2.219,2.413,4.549,4.708,6.769,7.086a21.94,21.94,0,0,1,5.852,18.405c-.276,2.412-.689,4.79-1.068,7.2a22.056,22.056,0,0,0,14.682,25.959,53.78,53.78,0,0,1,13.055,6.293,4.6,4.6,0,0,1,1.708,6.274l-.081.137q-22.5,54.488-44.757,109.1c-3.047,7.437-6.052,14.957-9.064,22.395a3.976,3.976,0,0,0,3.088,0c17.922-3.522,35.844-7,53.766-10.684a3.756,3.756,0,0,1,4.632,1.978q14.364,22.058,28.95,44.005c.689,1.068.986,2.529,2.613,2.929.593-1.461,1.227-2.929,1.82-4.356l45.583-111.473c.476-1.11.594-2.613,1.745-3.13,7.085-3.2,13.613-8.03,22.119-6.962a58.848,58.848,0,0,1,13.786,5.267,9.294,9.294,0,0,1,5.459,5.776q22.671,55.791,45.549,111.515c.476,1.151.593,2.57,1.978,3.446.793-1.144,1.544-2.213,2.255-3.281,9.581-14.565,19.238-29.088,28.729-43.729a3.716,3.716,0,0,1,4.591-2.02c11.953,2.571,23.981,4.867,35.974,7.245,6.845,1.378,13.69,2.654,20.617,3.956A8.014,8.014,0,0,0,667.107,659.1ZM389.761,453.645a12.057,12.057,0,0,1-.158-3.956,3.1,3.1,0,0,1,3.4-2.654,3.674,3.674,0,0,1,3.757,3.288c.993,3.956,1.62,8.071,2.888,11.952,14.565,44.439,44.873,71.391,90.987,78.511a110.894,110.894,0,0,0,125.6-87.609,132.006,132.006,0,0,0,2.371-24.257c-.317-3.563-.751-8.63-1.268-13.689-.2-2.213,0-4.191,2.412-5.108s4.432.69,4.908,3.757a102.589,102.589,0,0,1-.634,37.594c-10.34,49.464-40.049,81.675-88.761,94.537A118.51,118.51,0,0,1,391.248,460.3Q390.408,456.994,389.761,453.645Zm215.06-82.267a3.363,3.363,0,0,1,4.7.726,3.305,3.305,0,0,1,.324.542,108.877,108.877,0,0,1,10.409,23.822,5.615,5.615,0,0,1,.2,1.268,3.447,3.447,0,0,1-2.93,3.757,3.631,3.631,0,0,1-4.232-2.571c-1.544-4.074-2.93-8.189-4.667-12.145-1.544-3.564-3.4-6.893-5.142-10.34a3.523,3.523,0,0,1,1.013-4.877,3.394,3.394,0,0,1,.325-.189Zm-5.893-15.909c3.323,3.915,3.8,6.093,1.378,7.72-3.563,2.454-5.142-.634-7-2.812a108.847,108.847,0,0,0-98.769-39.98,110.559,110.559,0,0,0-96.323,84.446c-.117.359-.276.69-.358,1.027-.593,2.571-1.978,4.356-4.825,3.522s-2.93-3.046-2.336-5.617a111.454,111.454,0,0,1,12.7-31.894,119.372,119.372,0,0,1,91.677-59.321c3.957-.476,8-.434,12.187-.634a119.246,119.246,0,0,1,91.662,43.536Zm-20.776,49.864c-4.749,4.825-9.65,9.539-14.475,14.289q-30.212,29.736-60.389,59.4a12.463,12.463,0,0,1-20.376-.117q-22.8-22.437-45.625-44.8a11.46,11.46,0,0,1-4.2-7.582,11.657,11.657,0,0,1,6.852-11.953,11.215,11.215,0,0,1,13.1,2.337c6.452,6.2,12.745,12.621,19.114,18.914,6.2,6.135,12.469,12.187,18.563,18.48,1.861,1.937,2.846,1.9,4.79,0q32.238-32.052,64.58-63.912a13.157,13.157,0,0,1,9.182-4.508,11.58,11.58,0,0,1,11.077,6.769,10.954,10.954,0,0,1-2.2,12.684Z" transform="translate(-345.053 -275)"/></svg>