<svg xmlns="http://www.w3.org/2000/svg" width="19.619" height="25.853" viewBox="0 0 19.619 25.853">
  <path id="Pfad_346" data-name="Pfad 346" d="M1053.256,412.369q-1.592-3.894-3.187-7.783a.255.255,0,0,1,.089-.353,2.741,2.741,0,0,1,.728-.36,1.612,1.612,0,0,0,.708-.468,1.359,1.359,0,0,0,.247-1.21,1.619,1.619,0,0,1,.535-1.729,1.821,1.821,0,0,0,.269-.291,1.274,1.274,0,0,0,.12-1.446,3.535,3.535,0,0,0-.252-.415,1.442,1.442,0,0,1-.158-1.482,2.273,2.273,0,0,0,.216-.713,1.275,1.275,0,0,0-.689-1.285,1.729,1.729,0,0,1-.989-1.746,1.091,1.091,0,0,0-.022-.2,1.3,1.3,0,0,0-1.088-1.122c-.158-.031-.317-.062-.478-.086a1.354,1.354,0,0,1-1.054-.742c-.1-.183-.187-.367-.3-.543a1.245,1.245,0,0,0-1.249-.62,5.93,5.93,0,0,0-.733.156,1.344,1.344,0,0,1-1.2-.257c-.156-.125-.31-.25-.471-.365a1.307,1.307,0,0,0-1.563.014c-.166.122-.327.252-.49.377a1.321,1.321,0,0,1-1.148.235c-.185-.041-.37-.094-.555-.134a1.314,1.314,0,0,0-1.472.632,2.257,2.257,0,0,0-.166.31,1.519,1.519,0,0,1-1.333.973c-.111.012-.219.034-.327.055a1.288,1.288,0,0,0-1.054,1.074c-.038.255-.051.514-.074.768a1.266,1.266,0,0,1-.55.939c-.173.125-.355.24-.528.363a1.3,1.3,0,0,0-.492,1.5c.065.195.137.389.2.581a1.313,1.313,0,0,1-.12,1.165c-.1.163-.2.324-.3.488a1.3,1.3,0,0,0,.166,1.626c.134.146.276.286.411.43a1.332,1.332,0,0,1,.355,1.117c-.017.146-.043.291-.065.437a1.337,1.337,0,0,0,.891,1.575,3.254,3.254,0,0,1,.792.382.279.279,0,0,1,.1.389q-1.365,3.307-2.716,6.621c-.185.451-.368.908-.55,1.359a.24.24,0,0,0,.187,0c1.088-.214,2.176-.425,3.261-.648a.228.228,0,0,1,.281.12c.581.893,1.169,1.782,1.758,2.671.041.065.06.154.158.178.036-.089.075-.178.111-.264l2.766-6.765c.029-.067.036-.158.106-.19a2.467,2.467,0,0,1,1.342-.423,3.568,3.568,0,0,1,.838.319.564.564,0,0,1,.331.351q1.377,3.386,2.764,6.768c.029.07.036.156.12.209.048-.07.094-.134.137-.2.581-.884,1.167-1.765,1.744-2.654a.226.226,0,0,1,.279-.122c.725.156,1.455.3,2.183.439.415.082.831.161,1.251.24A.487.487,0,0,0,1053.256,412.369Zm-16.83-12.469a.732.732,0,0,1-.01-.24.188.188,0,0,1,.207-.161.223.223,0,0,1,.228.2c.06.24.1.49.175.725a6.535,6.535,0,0,0,5.521,4.765,6.73,6.73,0,0,0,7.622-5.317,8,8,0,0,0,.144-1.472c-.019-.216-.046-.524-.077-.831-.012-.134,0-.255.146-.31s.269.041.3.228a6.225,6.225,0,0,1-.038,2.281,7.02,7.02,0,0,1-5.387,5.737A7.192,7.192,0,0,1,1036.426,399.9Zm13.05-4.993a.2.2,0,0,1,.3.077,6.609,6.609,0,0,1,.632,1.446.328.328,0,0,1,.012.077.208.208,0,0,1-.178.228.22.22,0,0,1-.257-.156c-.094-.247-.178-.5-.283-.737-.094-.216-.206-.42-.312-.629A.214.214,0,0,1,1049.476,394.908Zm-.358-.965c.2.238.231.37.084.468-.216.149-.312-.038-.425-.171a6.606,6.606,0,0,0-5.994-2.426,6.709,6.709,0,0,0-5.845,5.125c-.007.022-.017.041-.022.062-.036.156-.12.264-.293.214s-.178-.185-.142-.341a6.765,6.765,0,0,1,.771-1.936,7.245,7.245,0,0,1,5.565-3.6c.24-.029.485-.026.74-.038A7.235,7.235,0,0,1,1049.119,393.942Zm-1.261,3.026c-.288.293-.586.579-.879.867q-1.833,1.8-3.665,3.6a.757.757,0,0,1-1.237-.007q-1.383-1.362-2.769-2.721a.7.7,0,0,1-.255-.461.707.707,0,0,1,.416-.725.68.68,0,0,1,.795.142c.391.377.773.766,1.16,1.148s.757.74,1.127,1.122c.113.118.173.115.291,0q1.956-1.945,3.919-3.879a.8.8,0,0,1,.557-.274.7.7,0,0,1,.672.411A.665.665,0,0,1,1047.858,396.968Z" transform="translate(-1033.71 -389.06)" fill="#faa401"/>
</svg>
