<svg xmlns="http://www.w3.org/2000/svg" width="40.447" height="46.959" viewBox="0 0 40.447 46.959">
  <g id="Gruppe_11" data-name="Gruppe 11" transform="translate(-358.01 -684.33)">
    <path id="Pfad_209" data-name="Pfad 209" d="M378.233,811.93c-6.749,0-20.223,3.386-20.223,10.11V827.1h40.447V822.04C398.457,815.316,384.983,811.93,378.233,811.93Z" transform="translate(0 -95.809)" fill="#faa401"/>
    <g id="Gruppe_10" data-name="Gruppe 10" transform="translate(361.937 684.33)">
      <path id="Pfad_210" data-name="Pfad 210" d="M389.591,684.33c-8.738,0-15.821,4.828-15.821,10.783V703.5c0,1.988,2.354,3.593,5.274,3.593h2.99a10.111,10.111,0,0,0,16.067,0h3.792V711.9H390.022v2.492h15.111c.174-2.3.272-4.746.274-7.3h0V695.113C405.409,689.158,398.326,684.33,389.591,684.33Zm12.3,13.18h-2.315a10.116,10.116,0,0,0-19.022,0h-3.271v-2.4c0-4.637,5.5-8.389,12.305-8.389s12.3,3.752,12.3,8.389Z" transform="translate(-373.77 -684.33)" fill="#faa401"/>
    </g>
  </g>
</svg>
