<?xml version="1.0" encoding="utf-8"?>
<!-- Generator: Adobe Illustrator 23.1.0, SVG Export Plug-In . SVG Version: 6.00 Build 0)  -->
<svg version="1.1" id="Ebene_1" xmlns="http://www.w3.org/2000/svg" xmlns:xlink="http://www.w3.org/1999/xlink" x="0px" y="0px"
	 viewBox="0 0 320.1 50.2" style="enable-background:new 0 0 320.1 50.2;" xml:space="preserve">
<style type="text/css">
	.st0{fill:url(#SVGID_1_);}
</style>
<linearGradient id="SVGID_1_" gradientUnits="userSpaceOnUse" x1="1.382828e-05" y1="26.9128" x2="320.0704" y2="26.9128" gradientTransform="matrix(1 0 0 -1 0 52)">
	<stop  offset="0" style="stop-color:#FFBB39"/>
	<stop  offset="1" style="stop-color:#FAA401"/>
</linearGradient>
<path class="st0" d="M208.9,14.5c1.7-0.7,5.9-0.4,8.8-0.7c0.1,0.2-0.2,0.2-0.4,0.2c-0.2,0.5,2.1-0.6,1.7,0.3c1.6,0.1,4.2-0.4,5.1,0
	c-1.7,0.1-3.4,0.1-5.1,0.2c-1.5-0.3-1.9,0.1-3.4-0.1c-0.2,0,1.1-0.4,1.3-0.2c-0.8-0.5-2.9,0.1-5.5,0c-0.1,0.4,1.5,0.1,2.1,0.1
	C214,14.9,210.3,14.4,208.9,14.5L208.9,14.5z M221,10.2c0.8-0.4-3.4,0-4.6,0c0-0.1-0.1-0.2-0.4-0.2C216.2,10.8,219.5,10.1,221,10.2
	L221,10.2z M217.8,12.7c-2.1,0.2-3.2-0.4-4.2,0.3C214.8,12.9,217.2,13.1,217.8,12.7z M233,13.5c-0.8-0.1-5-0.5-7.2,0.1
	C228.3,13.8,230.2,14.2,233,13.5z M134.7,12.1c0,0.3-0.2,0.4-0.4,0.6c1.3,0,3.3-1.2,5-0.4c-0.4-0.2-1.3,0.1-1.3,0.1
	c1.3,0.1,3,0.2,4.3,0.3c1.3,0.1,2.2,0.3,1.9,0.7c1.1-0.5,3.2-0.4,4.2-0.5c-0.7-0.1,0.2-0.2,0.4-0.4c-2.9,0.1-5.8,0.1-7.5-0.2
	c0-0.3,0.7-0.1,0.8-0.4C138.7,11.7,126.4,12.3,134.7,12.1z M156.4,12.9c2.1,0.1,9.3,0,3.8-0.1c-1.2-0.3-3,0-4.2-0.6
	c-1.6,0.5-5.5-0.2-5.9,0.8C151.5,12.6,158.4,13.8,156.4,12.9L156.4,12.9z M203.5,14.3c-1.9-0.1-3.1-0.3-4.2,0.3
	C200.5,14.4,202.9,14.7,203.5,14.3z M176.1,11.3c-1.4,0.1-3.1,0.1-3.8,0.6C174.2,12,175.3,11.7,176.1,11.3z M249.1,9.3
	c-0.2-0.4-2.1-0.4-3.8-0.2c-1.8,0.1-3.4,0.4-3.3,0.4C244.4,9.5,247.3,9.1,249.1,9.3z M191.6,12c-2.1-0.2-5.1,0-7.1-0.3
	C185.6,12.3,189.9,12.3,191.6,12z M264.4,10.8c1.9-0.1,3.7-0.4,5.8-1c-4.3,0.8-9.3,0.6-12.3,1.5C260.5,11,262.5,10.9,264.4,10.8z
	 M283.3,6.6c-0.2,0.1-0.4,0.2-0.6,0.3C283,6.8,283.4,6.7,283.3,6.6z M282.6,6.9c0,0,0.1,0,0.1,0c0,0,0.1,0,0.1,0
	C282.7,6.8,282.6,6.9,282.6,6.9z M252.5,10.1c0.6-0.6,5.8-0.3,4.5-0.9C256.8,9.5,251.4,9.4,252.5,10.1L252.5,10.1z M274.1,7.5
	c-1.4,0.2-2.6,0.4-3.2,0.8c2.6-0.4,5.5-0.7,7.2-1.4C276.9,7.1,275.4,7.3,274.1,7.5z M287.7,5.7c-1.2,0.3-3.5,0.3-4,0.8
	C284.9,6.2,287.2,6.2,287.7,5.7z M294,5.3c3.6-0.8,7.2-1.6,11.4-2.3c-1-0.2-2.4-0.1-3.9,0.1c-1.5,0.2-3.2,0.5-4.9,0.8
	c4.8-1.3,10.2-1.4,15.2-2.6c0.8-0.3-0.1-0.9,0.5-1.1c2-0.2,2.5,1,4.7,0.7c-0.4,0.6-2,1-2.9,1.6c0.9-0.7-0.4-0.6-1-0.7
	c-0.8,0.2-1.1,0.5-1.3,0.8c0.3-0.6-1.5-0.3-3.4,0c-1,1.2,1.4,0.8,2,1.7c-0.6,0.5-2,0.8-3.2,1.1s-2.2,0.7-2,1.3
	c-1,0.1-2.1,0.3-3.3,0.4c-1.1,0.2-2.3,0.3-3.2,0.3c0.6-0.7,2.1-0.3,3.2-0.6c-1.7-0.3-3.8-0.4-6.1-0.2c-1.2,0.1-2.4,0.2-3.7,0.3
	c-0.6,0.1-1.3,0.2-2,0.3c-0.7,0.1-1.4,0.2-2,0.3c-5.5,0.8-11.5,1.9-16.9,2.5c5-1.2,8-1.6,11.2-2.9C286.8,6.7,290.4,6,294,5.3
	L294,5.3z M301.2,6c1-0.1,2.5,0.5,3.6-0.4C303.7,5.8,301.7,5.6,301.2,6z M279.6,6.3c1.5-0.3,4.2-0.8,6.4-0.9
	C285,4.8,278.9,6.1,279.6,6.3z M261.5,9c-1.1,0.1-2.2,0.2-3.3,0.3c-0.4,0.9,3.1-0.3,3.3,0.3c-0.7,0.1-3.7,0.2-2.5,0.4
	c3.2-0.2,10.8-0.9,10.6-1.2c-0.7,0-2.4,0.5-2.5,0.1c0.8-0.5,2.2-0.7,3.2-1.1c-1.3-0.6-2.4,1-3.7,0.4c-0.3-0.5,1.9,0,1.6-0.5
	c-1.9,0.2-3.7,0.4-5.5,0.6c-1.8,0.2-3.5,0.4-5.1,0.7C258.9,9,260.6,8.7,261.5,9L261.5,9z M298.3,1.7c0.6-0.3,1.3-0.4,2-0.5
	c0.7-0.1,1.3-0.2,1.9-0.3c1.2-0.2,2.2-0.3,2.6-0.7c-2.4,0.3-4.2,0.1-6.4,0.2C298.1,0.9,297.7,1.2,298.3,1.7z M233.4,14.4
	c-1.5,0-2.7,0.2-3.4,0.5C231.6,14.9,232.8,14.8,233.4,14.4z M79.3,38.6c-2.7-0.3-5.6-0.8-7.4-0.5C74.3,38.3,77.2,38.7,79.3,38.6z
	 M63.7,18.9c1.4,0,2.8-0.1,3.9-0.4c-1.2,0.1-5.1-0.5-4.7-0.1c0.6,0.1,1.6,0.1,1.7,0.4C63.9,18.7,62.9,18.6,63.7,18.9z M52.9,29.8
	c-2.7-0.6-4.7-0.5-0.9,0c1.9,0.2,4.8,1,6,0.7c-1.1,0.1-1.2-1-1.7-0.4c0.3,0,0.5,0.1,0.4,0.3C55.9,29.6,54.6,30,52.9,29.8z
	 M317.7,30.6c0.1,0.3,1.5-0.2,1.8-0.1c-4.9,1.9-6,4.9-4.4,6.8c-2.8,0.5-3.7,1.4-4.6,2.2c-0.9,0.9-1.8,1.7-4.8,2.1
	c-1.1,0.3,0.6,0.4,1,0.4c-2.2,0.3-4.7,0.7-7.5,1.2c-2.8,0.4-5.7,0.8-8.7,1.2c-6,0.8-12.1,1.4-17,1.8c-0.8-0.3,0-0.3-0.1-0.8
	c-16.3,1.3-32.2,2.4-47.9,3.3c-15.6,0.9-31.3,1.6-46.9,1.3c-4.2-0.1-8.3-0.2-12.6-0.4C147.1,49,127.4,48,108.8,46
	c-1.9-0.2-4.6-0.5-7.3-0.7S96,44.9,94,44.8c-0.5-0.1-0.3-0.4-0.4-0.6c-1.2,0.3-3.8-0.3-5.7-0.4c-0.2-0.3,4.2,0.2,5.3-0.1
	c-1.1-0.5-3.5-0.2-6.5-0.6c0.9-0.3,2.3-0.2,3.5-0.2c-2.4-0.7-4.4-0.8-6.6-0.9c-2.2-0.1-4.6-0.3-7.7-0.8c-0.9,0-0.8-0.4-0.8-0.7
	c-3.1-0.4-5.7-0.3-9.1-0.9c2.2-0.4,5.4-0.3,9,0.1c3.6,0.4,7.5,1,11.1,1.3c-1.3-0.3-2.8-0.5-4.3-0.8c-1.6-0.3-3.2-0.5-4.8-0.7
	c-3.3-0.4-6.8-0.8-9.8-1.3c3.2,0,6.4,0.3,9.5,0.7c3,0.4,5.9,0.9,8.3,1.2c0.5-0.5-0.9-0.4-1.7-0.5c2.7,0.1,10.1,1,12.1,1.4
	c0.5-0.2,1.3-0.3,2.1-0.4s1.7-0.2,2.3-0.2c1.5,0.9,7.6,0.9,11.6,1.5c-1.4-0.8-4.6-0.9-7.3-1.2c-0.1-0.1,1.1-0.2,1.3-0.1
	c-1.4-0.7-5.2-1-9.3-1.3c-4-0.3-8.3-0.6-10.6-1.3l-2.8-0.3l-2.8-0.3c-3.3-0.4-0.4-0.4,1.3,0c3.8,0.4,6.6,0.8,9.5,1
	c-1.7-0.2-4.1-0.7-6.5-1.2c-1.2-0.2-2.4-0.5-3.6-0.8s-2.2-0.5-3.2-0.7C77,35.6,70.7,35,73.6,35c1.7,0,3.6,0.3,5.5,0.6
	s3.8,0.6,5.7,0.5c-1.5-0.3-3.4-1.3-5.1-1c-1.7-0.6-3.8-1.1-6.2-1.5c-2.4-0.4-5.1-0.7-7.8-1.1c-2.7-0.4-5.5-0.7-8.2-1.1
	c-1.3-0.2-2.6-0.4-3.8-0.6c-1.2-0.3-2.4-0.5-3.5-0.8c-0.8-0.2-4.2-0.6-3-0.7c6.8,1.4,14,2.4,21.4,3.4c-1.1-0.6-3.3-0.9-5.5-1.2
	c0-0.5,4.6,0.1,1.4-0.6c1,0,2.1,0.1,3.4,0.3s2.8,0.2,4.3,0.4c3.1,0.3,6.4,0.7,9.4,1.1c-1.6-0.5-3.9-1-6.5-1.5
	c-1.3-0.2-2.7-0.5-4.1-0.7c-0.7-0.1-1.4-0.2-2.1-0.3c-0.7-0.1-1.4-0.2-2.1-0.4c-5.7-1-11.1-1.8-13.1-2.5c-1.8-0.2-3.8-0.5-5.2-0.5
	c-1.5-0.8,1.7-0.1,2.6,0c-2-1-1.7-0.7-4.2-1.3c1-0.6,4,1,6.8,1.1c-4.2-0.2,0.6,0.7,1.7,0.1c-0.5-0.2-2.4-0.7-4.2-1.1
	c0.1-0.4,1.8,0.2,2.6,0.2c-2.9-1.3-10.2-2.1-12.6-2.9c-0.9,0-3.3-0.8-1.2-0.4c3.7,0.6,9.9,2.3,11.5,1.8c-1.8-0.5-3.8-1.1-5.8-1.6
	c-1-0.3-2.1-0.5-3.2-0.7c-1.1-0.2-2.2-0.5-3.3-0.7c-4.4-1-9-1.9-13.2-2.7c-2.3-0.4-3.2-1-0.4-0.3c0.7,0.1-0.3-0.4,0.5-0.3
	C31,19.1,35.3,20,40,21.1c2.3,0.5,4.7,1,7.3,1.5c2.6,0.5,5.3,1,8.3,1.5c-0.9-0.6-4.5-0.6-5.4-1.3c0.7,0,2.9,0.3,5.5,0.7
	c2.5,0.3,5.4,0.8,7.2,1.3c-1-0.5,0.8-0.1,3,0.4c1.1,0.2,2.4,0.5,3.6,0.6c1.1,0.1,2.2,0.2,2.8,0.1c-1-0.2-2.2-0.4-3.4-0.7
	s-2.6-0.5-4-0.8c-2.8-0.5-5.8-0.9-8.6-1c-3.8-1.2-8.8-2.6-14.4-3.9c-2.8-0.7-5.7-1.4-8.8-2c-3-0.6-6.2-1.1-9.3-1.8
	c0.1-0.1,0.5-0.1,0.5-0.3c-2.1-0.4-9.5-2.3-4.9-1.5c6.6,1.3,24.8,5.5,33.4,6.7c-0.1,0.2-0.8,0-0.9,0.2c2.3,0.6,2.8,0.1,4.7,0.4
	c1.1,0.4-1.7,0-2.2,0c2.4,1.2,5.7,0.7,7.6,0.7c2.4,0.1,5.8,0.8,8.9,1.3c3.1,0.4,6,0.7,7.2-0.1c1.5,1.5,3,0,5.9,0.7
	c0.1,0.6-1.9-0.1-2.2,0.3c-0.1,0.5,2.2,0,0.8,0.3c3.4-0.3,6.9,0.1,10.7,0.6c1.9,0.2,3.8,0.5,5.8,0.7c2,0.2,4,0.3,6.1,0.2
	c-2.2-0.5-5-0.8-8-1.1c-3-0.4-6.1-0.8-8.8-1.3c0.2-0.4,2.1,0.1,3,0.1c-1.5-0.6-3.8-0.9-6.3-1.2c-2.5-0.3-5.2-0.6-7.6-0.9
	c-0.8-0.1-1.7-0.2-2.5-0.3c-1-0.1-0.7-0.3,0-0.2c1.4,0.2,2.8,0.3,4.2,0.5c1.3-0.1,4.3,0.5,6.4,0.4c0.9,0,0.6,0.4,1.2,0.5
	c1.8,0,4,0.2,6.3,0.4c-1-0.7-3.7-0.7-5.9-1c-0.1-0.8,0.9,0.2,2.1,0c0.5-0.6-1.3-0.4-2.1-0.6c1.9-0.3,4,0.5,5.9,0.4
	c-3.4-1.1-8.7-1-12.6-1.3c0.8,0.3,2.2,0.5,3.4,0.7c1.2,0.1,2.3,0.2,2.4,0.2c-0.7,0.1-1.5,0.2-2.5,0.1s-2.1-0.2-3.3-0.4
	c-2.3-0.3-4.8-0.8-6.8-0.9c0.5-0.4,2-0.2,3.4,0c-0.1-0.5-2.1-0.3-2.9-0.5c1.8-0.3,4-0.1,6.5,0.2c1.2,0.2,2.5,0.3,3.8,0.5
	c1.3,0.1,2.7,0.3,4.1,0.3c-4.2-1.1-8.2-0.7-11.3-1.7c-1.4-0.1,2.6-0.1,4.2,0.3c0.2-0.3-0.3-0.4-0.8-0.5c1,0,2.1,0,3.4,0.2
	c1.3,0.1,2.7,0.3,4.1,0.4c2.9,0.3,6.1,0.7,8.9,0.9c-2.7-1.2-8.4-1.3-13-1.9c-5.5-0.6-2.6-0.6,1.3-0.1c-2.7-0.6-5.4-1-8.2-1.4
	c-2.7-0.4-5.4-0.7-8.1-1.2c1.3-0.6,4.4,0.1,8,0.4c-0.7-0.5-2.4-0.7-4.1-0.9c2.9,0.1,6.7,0.6,10.8,1.1c4,0.5,8.3,1,11.8,1.1
	c-4.4-0.5-8.4-1.6-11.7-1.4c-0.4-0.9-2.3,0-1.2-0.9c-2.5-0.2-5.2-0.3-8-0.5c-1.4-0.1-2.8-0.2-4.3-0.3c-1.4-0.1-2.9-0.3-4.3-0.4
	c-2.9-0.3-5.7-0.7-8.3-1.1s-5-1.1-7.1-1.7c-2.1-0.5,3.2,0.1,3.4,0.2c2.4,0.4,5.2,0.7,8.1,1.1s6,0.7,9.1,1.1c3.1,0.3,6.3,0.7,9.5,1.1
	c1.6,0.2,3.1,0.4,4.7,0.6c1.5,0.2,3,0.3,4.5,0.5c-1.2-0.6-4.3-0.5-6.2-0.8c-0.3-0.2,0.6-0.1,1.8,0c1.2,0.1,2.6,0.3,3.3,0.3
	c-1.4-0.4-2.8-0.7-4.3-1c-1.5-0.3-3.1-0.6-4.7-0.8c-1.6-0.3-3.3-0.5-5-0.8s-3.5-0.5-5.3-0.9c0-0.3,2.5,0.1,0.5-0.3
	c2.7-0.1,5.1,0.1,7.6,0.4c2.6,0.3,5.3,0.6,8.6,0.8c-1.1-0.5-4-0.5-5.8-0.9c-3.8-0.5,1-0.2,2.5,0.1c3,0.4,5.8,0.6,9.2,0.9
	c3.4,0.3,7.4,0.6,12.9,1c-0.1-0.4-2.1-0.2-2.9-0.4c5.4,0.3,11.5-0.3,17.6,0.3c-0.1,0.8-2.5,0.4-4.2,0.3c4,0.5,9.1,0.9,13.8,0.9
	c4.8,0,9.3-0.4,12.2-1.3c3.9,0.2,5.8,0.1,10.1,0.3c1.1,0,0.5,0.2,0.4,0.4c5-0.2,10.9-0.1,16.7,0.2c5.8,0.3,11.5,0.4,16.1,0.2
	c-4.1-0.4-7.1-0.2-11.4-0.6c0.4-0.3,1.9-0.1,2.1-0.6c2.8,0.7,7.1,0.8,11.5,0.8c4.4,0,8.7-0.1,11.7,0.6c-4.1-0.3-6.8-0.3-13.5-0.2
	c-0.1,0.3,0.3,0.4,0.9,0.4c-3.6,0.6-7.4-0.3-11.4,0.2c2,0.6,4.2,0.7,6.5,0.7s4.7-0.1,6.9,0c6,0.1,11.4,0.3,18.1,0.2
	c-0.9-0.3-2.2-0.3-3.8-0.3c4.3-0.5,12.7,0.4,17.3-0.7c1.6,0.5,5.1,0.4,8.4,0.3c3.3-0.2,6.5-0.5,7.7-0.3c0.5-0.3,1.7-0.3,1.6-0.9
	c3.6,0.2,9.6-0.1,12.5-0.9c-2.1-0.2-7.4,0-11.7,0.3c3.9-1.1,9.9-1.1,15.8-1.9c-0.1,0.3-1,0.2-1.6,0.3c7.5-0.2,16.1-0.4,22.6-1.8
	c0.1-0.5-1.5,0.7-1.3-0.2c2.1-0.1,2.9-0.6,4.8-0.8c0,0.4-1.4,0.3-1.6,0.6c2.8-0.3,5.5-0.6,8-0.7c1.3-0.1,2.5-0.2,3.8-0.3
	c1.2-0.1,2.5-0.2,3.7-0.3s2.4-0.2,3.6-0.4c1.2-0.1,2.4-0.3,3.6-0.5c2.5-0.3,4.9-0.8,7.5-1.5c1.6,0.4,4.7-0.4,6.6-0.2
	c-1.3,0.5,0.2,0.5-1.6,0.4c-0.6,1,0.6,1.6,1.8,2.4c1.1,0.8,2.1,1.7,1,3.3c1.5,0.1,0.9,0.7,2,1.2c-2.8,0.7-0.7,2.3-2.7,3.1
	c0.2,0.2,0.8,0,1.3,0c0.5-0.1,1-0.1,0.9,0.3c-0.8,0.4,0.1,1.2-0.3,2.3c0.4,0.3,1.2,0.2,2.2,0c0,0.7-1.8,1.2-2.7,1.7
	c2.6-0.1,0.9,1.5,3.6,1.7c-0.7,1.8,0.2,2.9,0.7,4c0.2,0.6,0.3,1.1,0.1,1.8C319.7,28.7,319,29.5,317.7,30.6L317.7,30.6z M96.9,22.8
	c-0.1-0.4,0.7-0.4,0.1-0.6c-0.6,0.5-4.3-0.5-4.3,0C93.5,22.6,95.5,22.6,96.9,22.8z M98.1,22.9c-0.9,0.1-4.7-0.4-3.4,0.3
	C95.3,22.7,97.9,23.5,98.1,22.9z M84.9,27.2c-2.8-0.2-6.5-1-8.1-1c-0.1,0.2-0.7,0.3,0.4,0.4c1.9,0.4,3.1,0.5,4.3,0.5
	c0.6,0,1.3,0,2,0.1c0.7,0,1.6,0.1,2.6,0.2C88.2,27.7,85.8,27.2,84.9,27.2z M152.1,15.7c-2.1-0.2-4.3,0.5-4.2,0.7
	C149.6,16.3,151,16.1,152.1,15.7z M157.6,16.4c-1.3,0.1-3.6-0.3-4.2,0.1C154.7,16.4,157,16.9,157.6,16.4z M158.9,15.5
	c3.5-0.1,7.4-0.1,8.8-0.7C164.5,15.2,161.8,14.8,158.9,15.5z M169.4,16.2c-2,0.1-5.6-0.4-6.3,0.3C164.1,16.3,172,16.5,169.4,16.2z
	 M140.1,13.3c-3.3,0.1-8.8-0.4-8.9,1.4C133.3,14,140.2,13.8,140.1,13.3z M64.5,37.5c1.4,0.2,4.2,0.1,4,0c-1.1,0-3.1-0.7-3.5-0.3
	C65.8,37.4,64.8,37.4,64.5,37.5z M58.5,19.1c1.8,0.5,6.3,1.2,6.4,0.3C63.2,19.7,60.1,18.5,58.5,19.1z M77.3,22.4
	c0.4-0.4,2.4,0.2,2.6-0.3l-2.5-0.3C77.5,22.2,76.7,22.3,77.3,22.4z M195.5,15.4c-0.7-0.1-1.3-0.6-1.7,0c0.6,0.4,1-0.3,1.3,0.2
	l3.4-0.1C198.2,15.1,196.4,15.5,195.5,15.4z M69.2,22.4c0.4,0.1,0.8,0.1,1.3,0.2C76,23.1,71.4,21.8,69.2,22.4z M62,21.6
	c2.3,0.1,5.9,0.8,6.4,0.3C66.4,21.9,63.5,21.3,62,21.6z M311.3,41.2c0.4-0.2,1.1-0.3,2.1-0.3s2.2-0.2,3.3-0.7
	C316.5,38.7,310.9,40.7,311.3,41.2z M64,10.4c-1.5-0.2-2.9-0.3-3.8-0.1C61.8,10.4,63.5,10.8,64,10.4z M6.6,6.9
	C4.1,6.2,2.8,5.7,0,5.4C2.7,6,4.7,7.3,6.6,6.9z M27,4.3C25.1,3.4,21.9,3.9,27,4.3z M75.7,11c-2-0.1-4.9-0.8-6.2-0.6
	C71.5,10.5,74.4,11.2,75.7,11z M127.5,13.7c-2.3,0-5.2-0.4-5.9,0.4C123,13.7,127.3,14.8,127.5,13.7z M37.3,24.1
	c0.6,0.2,1.8,0.6,3,0.8c1.2,0.2,2.3,0.4,3,0.3c-0.5-0.2-1.7-0.5-2.9-0.7C39.1,24.2,37.9,24.1,37.3,24.1z M34.8,32.7
	c0.6,0.4,3.7,0.4,4.7,1.1C39.7,33.1,35.4,32.6,34.8,32.7z M5.1,14.4c2.9,0.4,7.5,2.2,7.6,1.3C10,15.7,6.7,14.1,5.1,14.4z M35.1,21.9
	c1.7,0,3,1.1,3.8,0.7C38.6,22.3,34.1,21.4,35.1,21.9z M19,15.2c-1.6-0.4-3-0.8-4.3-1.1c-0.7-0.1-1.3-0.3-2-0.4
	c-0.7-0.1-1.3-0.2-2.1-0.3c-5.5-1.2,0.1,0.1,2.9,0.9c2,0.5,4.5,1.9,5.4,1.4C16.4,15.2,17.8,15.1,19,15.2z"/>
</svg>
