<svg id="Ebene_1" data-name="Ebene 1" xmlns="http://www.w3.org/2000/svg" viewBox="0 0 308.563 169.321"><defs><style>.cls-1{fill:#faa401;fill-rule:evenodd;}</style></defs><path id="Pfad_299" data-name="Pfad 299" class="cls-1" d="M384.993,393.282l36.431,9.763a12.508,12.508,0,0,1,7.6,5.845h0a12.489,12.489,0,0,1,1.269,9.5L408.5,499.723a12.5,12.5,0,0,1-5.844,7.6h0a12.49,12.49,0,0,1-9.5,1.27l-36.431-9.764a12.5,12.5,0,0,1-7.6-5.844h0a12.486,12.486,0,0,1-1.27-9.5l21.794-81.338a12.505,12.505,0,0,1,5.848-7.6h0A12.49,12.49,0,0,1,384.993,393.282Z" transform="translate(-347.437 -392.859)"/><path id="Pfad_300" data-name="Pfad 300" class="cls-1" d="M570.129,414.937l34.56-15.132a12.548,12.548,0,0,1,16.49,6.461L654.957,483.4a12.547,12.547,0,0,1-6.462,16.49l-34.56,15.133a12.548,12.548,0,0,1-16.49-6.462l-33.781-77.119a12.547,12.547,0,0,1,6.462-16.49Z" transform="translate(-347.437 -392.859)"/><path id="Pfad_301" data-name="Pfad 301" class="cls-1" d="M484.121,459.464c15.723-11.562,33.8-24.877,65.361,14.76,2.087,2.133,23.205,23.777,34,37.605,1.941-1.388,3.762-2.684,5.423-3.808l1.3-.886-32.079-73.277c-.062-.141-.123-.287-.18-.429-47.465-14.638-54.226-13.967-71.126-12.272-3.754.384-7.988.8-13.188,1.151-3.007,4.6-23.282,36.673-7.981,44.017l.1.042h0l.142.069C471.6,468.7,477.6,464.284,484.121,459.464Z" transform="translate(-347.437 -392.859)"/><path id="Pfad_302" data-name="Pfad 302" class="cls-1" d="M521.2,496.919a4.6,4.6,0,0,1,6.508-.011l.012.011,35.833,35.833a21.447,21.447,0,0,0,10.895,2.24,8.171,8.171,0,0,0,4.824-2.09,7.282,7.282,0,0,0,2.082-3.881,8.215,8.215,0,0,0-.475-4.8c-3.513-8.2-34.764-40.266-37.9-43.488a4.424,4.424,0,0,1-.571-.6h0c-26.123-32.9-40.431-22.365-52.845-13.23-8.759,6.446-16.789,12.356-27.227,8a4.454,4.454,0,0,1-.487-.195h0c-20.475-9.588-6.623-39.013.736-51.9-6.8.169-14.956.154-24.988-.2l-2.439.936L415.07,498.511c14.515,12.183,62.554,52.442,70.987,58.628a16.134,16.134,0,0,0,11.16,1.6,63.955,63.955,0,0,0,9.035-1.857l-12.74-12.375a4.6,4.6,0,0,1,6.45-6.561l17.9,17.383a4.553,4.553,0,0,1,.832.809l4.483,4.353c2.266,1.151,11.819,5.265,13.909-5.979L503.805,523.8a4.6,4.6,0,1,1,6.236-6.776l33.865,31.262a11.161,11.161,0,0,0,7.218,2.343,8.611,8.611,0,0,0,4.034-.9,4.451,4.451,0,0,0,2.086-2.347,13.24,13.24,0,0,0-.433-8.3l-35.626-35.626a4.6,4.6,0,0,1-.016-6.508Z" transform="translate(-347.437 -392.859)"/></svg>