<svg xmlns="http://www.w3.org/2000/svg" viewBox="0 0 148.336 160.737"><defs><style>.cls-1{fill:#fff;}</style></defs><g id="Layer_1" data-name="Layer 1"><path id="Pfad_52" data-name="Pfad 52" class="cls-1" d="M359.548,246a7.394,7.394,0,0,0-4.886-7.932c-11.9-5.434-23.617-11.316-35.4-17.054Q302.807,213.019,286.344,205h-2.2c-.056.071-.1.186-.187.226q-34.584,16.745-69.2,33.457a5.405,5.405,0,0,0-3.466,5.489q.072,41.155,0,82.307a5.633,5.633,0,0,0,3.6,5.739q34,16.347,67.9,32.878a5.29,5.29,0,0,0,5.049,0q33.936-16.491,67.91-32.878a5.95,5.95,0,0,0,3.771-6.124Q359.414,286.058,359.548,246Zm-75.354-31.875a2.043,2.043,0,0,1,2.023-.072q29.491,14.349,59,28.643c.119.063.234.147.524.321l-3.332,1.622q-8.86,4.308-17.728,8.634a2.047,2.047,0,0,1-2.03.135Q293.232,239.088,263.8,224.81c-.187-.087-.345-.218-.706-.44,7.135-3.451,14.131-6.838,21.111-10.268ZM281.208,354.1v1.138l-9.122-4.414q-25.627-12.422-51.257-24.831c-.852-.4-1.388-.761-1.388-1.912q.072-36.883.032-73.8a6.762,6.762,0,0,1,.04-.746c4.624,2.233,9.07,4.363,13.516,6.54q23.447,11.363,46.9,22.721a1.893,1.893,0,0,1,1.317,1.983q-.048,36.651-.02,73.324Zm5.239-82.3a2.211,2.211,0,0,1-2.173.1Q255,257.616,225.688,243.438c-.274-.126-.6-.19-.738-.587q13.929-6.741,27.857-13.5a1.64,1.64,0,0,1,1.587-.039q29.709,14.444,59.419,28.868c.047,0,.079.063.241.2l-6.218,3.018q-10.684,5.2-21.373,10.407Zm64.805,52.221a1.586,1.586,0,0,1-1,1.693q-30.011,14.52-60,29.107a9.316,9.316,0,0,1-.908.337v-1.765q0-36.126-.031-72.261a2.3,2.3,0,0,1,1.542-2.455q13.06-6.246,26.049-12.639c1.091-.54,1.459-.556,1.444.876-.064,6.068-.048,12.144,0,18.216a4.017,4.017,0,0,0,3.232,4.069,4.064,4.064,0,0,0,4.5-2.36,6.447,6.447,0,0,0,.4-2.617c0-7.119.024-14.246-.032-21.365a1.983,1.983,0,0,1,1.325-2.11q11.076-5.307,22.11-10.708c1-.492,1.388-.571,1.388.793q-.039,36.594,0,73.189Z" transform="translate(-211.274 -205)"/></g></svg>