<svg id="Ebene_1" data-name="Ebene 1" xmlns="http://www.w3.org/2000/svg" viewBox="0 0 288.68 209.574"><defs><style>.cls-1{fill:#faa401;}</style></defs><path id="Pfad_290" data-name="Pfad 290" class="cls-1" d="M587.83,420.487H548.473V368H364.766a26.306,26.306,0,0,0-26.244,26.244V538.6h26.244a39.365,39.365,0,0,0,78.726,0h78.741a39.365,39.365,0,0,0,78.726,0H627.2V472.984ZM404.131,558.26a19.683,19.683,0,1,1,19.678-19.686v0a19.659,19.659,0,0,1-19.636,19.683h-.042ZM581.273,440.165l25.717,32.8H548.473v-32.8ZM561.587,558.26a19.657,19.657,0,1,1,.058,0Z" transform="translate(-338.522 -368)"/></svg>