<svg xmlns="http://www.w3.org/2000/svg" viewBox="0 0 126.853 126.805"><defs><style>.cls-1{fill:#fff;}</style></defs><g id="Layer_1" data-name="Layer 1"><path id="Pfad_38" data-name="Pfad 38" class="cls-1" d="M293.6,300.868a5.739,5.739,0,1,0,5.736,5.742V306.6A5.749,5.749,0,0,0,293.6,300.868Zm0,0a5.739,5.739,0,1,0,5.736,5.742V306.6A5.749,5.749,0,0,0,293.6,300.868Zm0,0a5.739,5.739,0,1,0,5.736,5.742V306.6A5.749,5.749,0,0,0,293.6,300.868Zm0,0a5.739,5.739,0,1,0,5.736,5.742V306.6A5.749,5.749,0,0,0,293.6,300.868Zm0,0a5.739,5.739,0,1,0,5.736,5.742V306.6A5.749,5.749,0,0,0,293.6,300.868Zm0,0a5.739,5.739,0,1,0,5.736,5.742V306.6A5.749,5.749,0,0,0,293.6,300.868Zm28.9-2.994a8.075,8.075,0,0,0-4.122-7.513,2.53,2.53,0,0,1-1.364-2.5c.037-5.117.05-10.229,0-15.346a11.9,11.9,0,0,0-9.367-11.953,3.431,3.431,0,0,1-2.329-1.807q-7.461-13.114-14.988-26.2a11.043,11.043,0,0,0-9.3-6.557h-2.97a25.937,25.937,0,0,0-8.055,3.778q-25.8,15.012-51.588,30.062a5.038,5.038,0,0,1-2.785.759c-2.6-.056-5.192-.019-7.79-.019a11.419,11.419,0,0,0-11.974,9.433c-.025.106-.137.19-.209.284v71.5a2.362,2.362,0,0,1,.112,1.249,1.3,1.3,0,0,0,0,.153,10.7,10.7,0,0,0,10.616,9.585q49.737.037,99.478,0a9.781,9.781,0,0,0,5.283-1.47,11.952,11.952,0,0,0,5.845-10.666c.069-5.2.019-10.395,0-15.593a1.976,1.976,0,0,1,.937-1.977,8.487,8.487,0,0,0,4.556-8.018c-.1-5.711-.047-11.446.015-17.176Zm-30.518-47.7c.8-.468,1.171-.493,1.658.391,1.679,3.063,3.434,6.085,5.192,9.111.365.624.425.9-.474.9q-11.753-.029-23.5,0a.6.6,0,0,1-.216-.088c.125-.418.531-.474.828-.649,5.511-3.21,11.034-6.4,16.517-9.648Zm-4.059-9.554a32.292,32.292,0,0,0,1.832,3.216c.4.624.234.865-.346,1.2q-13.034,7.553-26.031,15.137a2.384,2.384,0,0,1-1.271.39H251.865c-.032-.081-.056-.159-.091-.24l10.747-6.27q11.9-6.916,23.768-13.86c.855-.484,1.23-.415,1.645.437Zm-54.33,17.007q21.382-12.451,42.777-24.9a5.7,5.7,0,0,1,7.418.9c.625.709.665,1.043-.265,1.58q-12.243,7.053-24.432,14.2-9.055,5.28-18.126,10.557a4.136,4.136,0,0,1-2.2.606c-3.235-.038-6.47-.019-9.7-.019-.018-.075-.047-.153-.068-.234q2.3-1.327,4.612-2.679Zm77.235,82.927a5.822,5.822,0,0,1-6.363,6.388H207.839a5.878,5.878,0,0,1-6.438-6.457v-67.8a5.81,5.81,0,0,1,5.186-6.374,5.716,5.716,0,0,1,1.177,0H304.4a5.782,5.782,0,0,1,6.432,6.4c0,5.155-.031,10.3.031,15.469,0,1.024-.328,1.18-1.249,1.174q-8.037-.066-16.08-.019a17.285,17.285,0,0,0-.164,34.57c.18,0,.359,0,.539-.006,5.236.056,10.475.038,15.711,0,.937,0,1.249.2,1.224,1.193-.033,5.164.007,10.319,0,15.474Zm5.773-25.494a2.835,2.835,0,0,1-3.122,3.044c-3.463.038-6.926,0-10.382,0v-.025c-3.259,0-6.513.088-9.767-.019a11.475,11.475,0,0,1-.137-22.94c6.791-.2,13.6-.081,20.395-.05a2.843,2.843,0,0,1,3.026,3.045q.05,8.49-.012,16.961Zm-23.012-14.191a5.739,5.739,0,1,0,5.736,5.742V306.6a5.747,5.747,0,0,0-5.729-5.732Zm0,0a5.739,5.739,0,1,0,5.736,5.742V306.6a5.747,5.747,0,0,0-5.729-5.732Zm0,0a5.739,5.739,0,1,0,5.736,5.742V306.6a5.747,5.747,0,0,0-5.729-5.732Zm0,0a5.739,5.739,0,1,0,5.736,5.742V306.6a5.747,5.747,0,0,0-5.729-5.732Zm0,0a5.739,5.739,0,1,0,5.736,5.742V306.6a5.747,5.747,0,0,0-5.729-5.732Z" transform="translate(-195.66 -226)"/></g></svg>