<?xml version="1.0" encoding="UTF-8" standalone="no"?><svg xmlns="http://www.w3.org/2000/svg" xmlns:xlink="http://www.w3.org/1999/xlink" width="1440px" height="418px" viewBox="0 0 1440 418" version="1.1"><defs><clipPath id="_clipPath_qyI1KmFyOzQxnUaDZRXoXq9kRh3hsqh3"><rect width="1440" height="418"/></clipPath></defs><g clip-path="url(#_clipPath_qyI1KmFyOzQxnUaDZRXoXq9kRh3hsqh3)"><g><g><g><linearGradient id="_lgradient_75" x1="0" y1="0.5" x2="0.16650524400227512" y2="-0.4860405690029913" gradientTransform="matrix(62.999,0,0,64.999,1254,84.996)" gradientUnits="userSpaceOnUse"><stop offset="31.39438063012282%" stop-opacity="1" style="stop-color:rgb(105,227,255)"/><stop offset="100%" stop-opacity="1" style="stop-color:rgb(105,178,233)"/></linearGradient><path d=" M 1305.741 129.612 L 1260.081 149.482 C 1256.19 151.17 1253.502 148.562 1254.078 143.66 L 1257.364 115.437 C 1257.939 110.523 1261.329 107.077 1265.22 105.388 L 1310.92 85.513 C 1314.81 83.819 1317.492 86.427 1316.923 91.335 L 1313.826 117.678 C 1313.251 122.568 1309.636 127.918 1305.74 129.612 L 1305.741 129.612 Z " fill="url(#_lgradient_75)"/><linearGradient id="_lgradient_76" x1="0" y1="0.5" x2="0.5661981869083259" y2="-0.3242691387779384" gradientTransform="matrix(62.999,0,0,64.999,1256,84.996)" gradientUnits="userSpaceOnUse"><stop offset="74.33965836350185%" stop-opacity="1" style="stop-color:rgb(105,187,237)"/><stop offset="100%" stop-opacity="1" style="stop-color:rgb(105,255,255)"/></linearGradient><path d=" M 1307.774 129.61 L 1262.084 149.481 C 1258.191 151.17 1255.502 148.567 1256.078 143.659 L 1259.366 115.433 C 1259.942 110.525 1263.334 107.073 1267.226 105.384 L 1312.916 85.513 C 1316.809 83.819 1319.498 86.427 1318.922 91.335 L 1315.853 117.663 C 1315.277 122.571 1311.661 127.916 1307.773 129.61 L 1307.774 129.61 Z " fill="url(#_lgradient_76)"/><path d=" M 1315.956 90.872 L 1312.878 116.881 C 1312.378 121.122 1308.766 125.942 1304.783 127.645 L 1263.326 145.399 C 1259.366 147.102 1256.558 145.037 1257.058 140.789 L 1260.159 114.623 C 1260.524 111.546 1263.144 108.059 1266.034 106.825 L 1311.298 87.438 C 1314.235 86.174 1316.332 87.713 1315.956 90.872 Z " fill="rgb(27,118,188)"/><linearGradient id="_lgradient_77" x1="0" y1="0.5" x2="0.867211125215919" y2="0.9979406232692203" gradientTransform="matrix(5.015,-6.646,3.831,2.891,1303.939,108.002)" gradientUnits="userSpaceOnUse"><stop offset="0%" stop-opacity="1" style="stop-color:rgb(105,194,240)"/><stop offset="58.40162380507097%" stop-opacity="1" style="stop-color:rgb(105,227,255)"/></linearGradient><path d=" M 1305.854 109.447 C 1304.797 108.649 1305.062 106.513 1306.446 104.679 C 1307.83 102.845 1309.812 102.003 1310.87 102.801 C 1311.927 103.599 1311.662 105.736 1310.278 107.57 C 1308.894 109.404 1306.912 110.245 1305.854 109.447 Z " fill="url(#_lgradient_77)"/></g><g><linearGradient id="_lgradient_78" x1="0" y1="0.5" x2="0.16650524400227512" y2="-0.4860405690029913" gradientTransform="matrix(62.999,0,0,64.999,183,304.496)" gradientUnits="userSpaceOnUse"><stop offset="31.39438063012282%" stop-opacity="1" style="stop-color:rgb(105,227,255)"/><stop offset="100%" stop-opacity="1" style="stop-color:rgb(105,178,233)"/></linearGradient><path d=" M 234.741 349.112 L 189.081 368.982 C 185.19 370.67 182.502 368.062 183.078 363.16 L 186.364 334.937 C 186.939 330.023 190.329 326.577 194.22 324.888 L 239.92 305.013 C 243.81 303.319 246.492 305.927 245.923 310.835 L 242.826 337.178 C 242.251 342.068 238.636 347.418 234.74 349.112 L 234.741 349.112 Z " fill="url(#_lgradient_78)"/><linearGradient id="_lgradient_79" x1="0" y1="0.5" x2="0.5661981869083259" y2="-0.3242691387779384" gradientTransform="matrix(62.999,0,0,64.999,185,304.496)" gradientUnits="userSpaceOnUse"><stop offset="74.33965836350185%" stop-opacity="1" style="stop-color:rgb(105,187,237)"/><stop offset="100%" stop-opacity="1" style="stop-color:rgb(105,255,255)"/></linearGradient><path d=" M 236.774 349.11 L 191.084 368.981 C 187.191 370.67 184.502 368.067 185.078 363.159 L 188.366 334.933 C 188.942 330.025 192.334 326.573 196.226 324.884 L 241.916 305.013 C 245.809 303.319 248.498 305.927 247.922 310.835 L 244.853 337.163 C 244.277 342.071 240.661 347.416 236.773 349.11 L 236.774 349.11 Z " fill="url(#_lgradient_79)"/><path d=" M 244.956 310.372 L 241.878 336.381 C 241.378 340.622 237.766 345.442 233.783 347.145 L 192.326 364.899 C 188.366 366.602 185.558 364.537 186.058 360.289 L 189.159 334.123 C 189.524 331.046 192.144 327.559 195.034 326.325 L 240.298 306.938 C 243.235 305.674 245.332 307.213 244.956 310.372 Z " fill="rgb(27,118,188)"/><linearGradient id="_lgradient_80" x1="0" y1="0.5" x2="0.867211125215919" y2="0.9979406232692203" gradientTransform="matrix(5.015,-6.646,3.831,2.891,232.938,327.502)" gradientUnits="userSpaceOnUse"><stop offset="0%" stop-opacity="1" style="stop-color:rgb(105,194,240)"/><stop offset="58.40162380507097%" stop-opacity="1" style="stop-color:rgb(105,227,255)"/></linearGradient><path d=" M 234.854 328.947 C 233.797 328.15 234.062 326.013 235.446 324.179 C 236.83 322.345 238.812 321.504 239.869 322.302 C 240.927 323.099 240.661 325.236 239.277 327.07 C 237.893 328.904 235.911 329.745 234.854 328.947 Z " fill="url(#_lgradient_80)"/></g><path d="M 1261.73 133.094 L 1261.73 133.094 C 1261.501 133.065 1261.354 132.742 1261.402 132.373 L 1262.897 120.795 C 1262.944 120.427 1263.168 120.152 1263.397 120.181 L 1263.397 120.181 C 1263.625 120.211 1263.772 120.534 1263.724 120.902 L 1262.23 132.48 C 1262.182 132.849 1261.958 133.124 1261.73 133.094 Z" style="stroke:none;fill:#69E2FF;stroke-miterlimit:10;"/><g><linearGradient id="_lgradient_81" x1="0" y1="0.5" x2="0.67389380815387" y2="1.238828217742037" gradientTransform="matrix(66.984,0,0,69,1226,175.996)" gradientUnits="userSpaceOnUse"><stop offset="10.813276783312494%" stop-opacity="1" style="stop-color:rgb(105,187,237)"/><stop offset="62.5772767833125%" stop-opacity="1" style="stop-color:rgb(105,227,255)"/></linearGradient><path d=" M 1291.104 206.748 L 1258.065 242.751 C 1255.253 245.817 1250.311 245.734 1247.014 242.555 L 1228.114 224.306 C 1224.819 221.134 1225.705 217.311 1228.521 214.245 L 1261.556 178.241 C 1264.367 175.176 1269.316 175.259 1272.606 178.432 L 1290.26 195.453 C 1293.526 198.625 1293.916 203.682 1291.104 206.748 L 1291.104 206.748 Z " fill="url(#_lgradient_81)"/><linearGradient id="_lgradient_82" x1="0" y1="0.5" x2="0.06529190681783197" y2="1.4978662069155821" gradientTransform="matrix(66.984,0,0,69,1227.016,175.996)" gradientUnits="userSpaceOnUse"><stop offset="11.650309250078529%" stop-opacity="1" style="stop-color:rgb(105,227,255)"/><stop offset="38.97630925007852%" stop-opacity="1" style="stop-color:rgb(105,187,237)"/></linearGradient><path d=" M 1292.117 206.748 L 1259.079 242.751 C 1256.268 245.817 1251.317 245.734 1248.027 242.555 L 1229.126 224.311 C 1225.836 221.138 1226.722 217.31 1229.533 214.244 L 1262.57 178.241 C 1265.389 175.174 1270.332 175.258 1273.628 178.437 L 1291.278 195.452 C 1294.545 198.625 1294.929 203.682 1292.117 206.748 Z " fill="url(#_lgradient_82)"/><path d=" M 1271.404 179.422 L 1288.813 196.093 C 1291.651 198.809 1291.675 203.493 1288.848 206.548 L 1259.369 238.463 C 1256.554 241.513 1251.962 241.78 1249.118 239.058 L 1231.599 222.28 C 1229.544 220.174 1229.544 216.814 1231.599 214.708 L 1263.79 179.861 C 1264.731 178.776 1266.07 178.118 1267.504 178.035 C 1268.938 177.952 1270.344 178.452 1271.404 179.422 L 1271.404 179.422 Z " fill="rgb(27,118,188)"/><linearGradient id="_lgradient_83" x1="0" y1="0.5" x2="0.41721916195006886" y2="1.4088059038659917" gradientTransform="matrix(59.356,0,0,49.721,1231.599,191.216)" gradientUnits="userSpaceOnUse"><stop offset="12.173913043478262%" stop-opacity="1" style="stop-color:rgb(105,187,237)"/><stop offset="32.17391304347826%" stop-opacity="1" style="stop-color:rgb(105,227,255)"/></linearGradient><path d=" M 1284.101 191.553 L 1288.822 196.083 C 1291.648 198.801 1291.672 203.484 1288.857 206.541 L 1259.501 238.463 C 1256.697 241.513 1252.124 241.78 1249.292 239.058 L 1247.704 237.53 Q 1238.997 229.003 1231.599 222 Q 1235.345 220.172 1282.974 191.25 C 1283.377 191.154 1283.8 191.267 1284.1 191.555 L 1284.101 191.553 Z " fill="url(#_lgradient_83)"/><g style="mix-blend-mode:normal;" opacity="0.62"><path d="M 1258.462 190.315 L 1265.17 183.446 C 1266.442 182.144 1268.532 182.119 1269.835 183.391 L 1270.367 183.91 C 1271.669 185.182 1271.694 187.273 1270.422 188.575 L 1263.714 195.444 C 1262.442 196.747 1260.351 196.772 1259.049 195.499 L 1258.517 194.98 C 1257.214 193.708 1257.19 191.618 1258.462 190.315 Z" style="stroke:none;fill:#69E2FF;stroke-miterlimit:10;"/></g><linearGradient id="_lgradient_84" x1="0" y1="0.5" x2="0.992129723146122" y2="0.6252142661600476" gradientTransform="matrix(2.398,-3.346,3.215,2.304,1258.785,192.696)" gradientUnits="userSpaceOnUse"><stop offset="0%" stop-opacity="1" style="stop-color:rgb(105,212,248)"/><stop offset="36.83943672475276%" stop-opacity="1" style="stop-color:rgb(105,227,255)"/></linearGradient><path d=" M 1260.392 193.848 C 1259.505 193.212 1259.322 191.946 1259.984 191.023 C 1260.645 190.1 1261.903 189.866 1262.79 190.502 C 1263.677 191.138 1263.861 192.404 1263.199 193.327 C 1262.537 194.25 1261.28 194.484 1260.392 193.848 Z " fill="url(#_lgradient_84)"/><linearGradient id="_lgradient_85" x1="0" y1="0.5" x2="0.992129723146122" y2="0.6252142661600476" gradientTransform="matrix(2.398,-3.346,3.215,2.304,1264.785,186.696)" gradientUnits="userSpaceOnUse"><stop offset="0%" stop-opacity="1" style="stop-color:rgb(105,212,248)"/><stop offset="36.83943672475276%" stop-opacity="1" style="stop-color:rgb(105,227,255)"/></linearGradient><path d=" M 1266.392 187.848 C 1265.505 187.212 1265.322 185.946 1265.984 185.023 C 1266.645 184.1 1267.903 183.866 1268.79 184.502 C 1269.677 185.138 1269.861 186.404 1269.199 187.327 C 1268.537 188.25 1267.28 188.484 1266.392 187.848 Z " fill="url(#_lgradient_85)"/><linearGradient id="_lgradient_86" x1="0" y1="0.5" x2="0.992129723146122" y2="0.6252142661600476" gradientTransform="matrix(0.745,-1.039,1.236,0.886,1272.764,188.559)" gradientUnits="userSpaceOnUse"><stop offset="0%" stop-opacity="1" style="stop-color:rgb(105,212,248)"/><stop offset="36.83943672475276%" stop-opacity="1" style="stop-color:rgb(105,227,255)"/></linearGradient><path d=" M 1273.382 189.002 C 1273.041 188.758 1272.931 188.327 1273.136 188.04 C 1273.342 187.753 1273.786 187.719 1274.127 187.963 C 1274.468 188.208 1274.578 188.639 1274.372 188.926 C 1274.167 189.212 1273.723 189.247 1273.382 189.002 Z " fill="url(#_lgradient_86)"/><linearGradient id="_lgradient_87" x1="0" y1="0.5" x2="0.992129723146122" y2="0.6252142661600476" gradientTransform="matrix(1.385,-1.932,1.998,1.432,1263.124,189.452)" gradientUnits="userSpaceOnUse"><stop offset="0%" stop-opacity="1" style="stop-color:rgb(105,212,248)"/><stop offset="36.83943672475276%" stop-opacity="1" style="stop-color:rgb(105,227,255)"/></linearGradient><path d=" M 1264.123 190.169 C 1263.572 189.773 1263.434 189.02 1263.816 188.486 C 1264.199 187.953 1264.957 187.841 1265.508 188.236 C 1266.059 188.632 1266.197 189.385 1265.815 189.919 C 1265.432 190.452 1264.675 190.564 1264.123 190.169 Z " fill="url(#_lgradient_87)"/></g><g><linearGradient id="_lgradient_88" x1="0" y1="0.5" x2="0.67389380815387" y2="1.238828217742037" gradientTransform="matrix(14.229,-65.456,67.425,14.658,123.065,171.069)" gradientUnits="userSpaceOnUse"><stop offset="10.813276783312494%" stop-opacity="1" style="stop-color:rgb(105,187,237)"/><stop offset="62.5772767833125%" stop-opacity="1" style="stop-color:rgb(105,227,255)"/></linearGradient><path d=" M 166.945 113.983 L 195.108 153.917 C 197.507 157.316 196.375 162.128 192.569 164.674 L 170.722 179.266 C 166.922 181.812 163.374 180.134 160.977 176.731 L 132.811 136.802 C 130.414 133.404 131.547 128.585 135.346 126.044 L 155.729 112.409 C 159.522 109.892 164.547 110.585 166.945 113.983 L 166.945 113.983 Z " fill="url(#_lgradient_88)"/><linearGradient id="_lgradient_89" x1="0" y1="0.5" x2="0.06529190681783197" y2="1.4978662069155821" gradientTransform="matrix(14.229,-65.455,67.425,14.658,123.281,170.076)" gradientUnits="userSpaceOnUse"><stop offset="11.650309250078529%" stop-opacity="1" style="stop-color:rgb(105,227,255)"/><stop offset="38.97630925007852%" stop-opacity="1" style="stop-color:rgb(105,187,237)"/></linearGradient><path d=" M 167.16 112.994 L 195.324 152.926 C 197.722 156.324 196.589 161.144 192.784 163.684 L 170.942 178.278 C 167.142 180.82 163.589 179.14 161.191 175.742 L 133.027 135.811 C 130.629 132.404 131.762 127.592 135.568 125.047 L 155.944 111.414 C 159.739 108.896 164.762 109.595 167.16 112.994 Z " fill="url(#_lgradient_89)"/><path d=" M 136.058 127.43 L 156.047 113.959 C 159.303 111.762 163.885 112.735 166.27 116.146 L 191.195 151.732 C 193.577 155.13 192.863 159.675 189.599 161.875 L 169.482 175.43 C 166.988 176.991 163.704 176.277 162.083 173.821 L 134.87 134.963 C 134.009 133.813 133.65 132.364 133.874 130.946 C 134.098 129.527 134.885 128.259 136.058 127.43 L 136.058 127.43 Z " fill="rgb(27,118,188)"/><linearGradient id="_lgradient_90" x1="0" y1="0.5" x2="0.41721916195006886" y2="1.4088059038659917" gradientTransform="matrix(12.609,-58.001,48.586,10.562,139.128,168.831)" gradientUnits="userSpaceOnUse"><stop offset="12.173913043478262%" stop-opacity="1" style="stop-color:rgb(105,187,237)"/><stop offset="32.17391304347826%" stop-opacity="1" style="stop-color:rgb(105,227,255)"/></linearGradient><path d=" M 150.61 117.599 L 156.039 113.948 C 159.295 111.764 163.877 112.736 166.265 116.135 L 191.223 151.603 C 193.607 154.99 192.898 159.516 189.636 161.706 L 187.805 162.932 Q 177.623 169.629 169.209 175.37 Q 168.218 171.322 150.074 118.636 C 150.065 118.222 150.266 117.833 150.611 117.6 L 150.61 117.599 Z " fill="url(#_lgradient_90)"/><g style="mix-blend-mode:normal;" opacity="0.62"><path d="M 143.953 142.39 L 138.666 134.376 C 137.663 132.856 138.083 130.808 139.603 129.806 L 140.223 129.396 C 141.743 128.394 143.791 128.814 144.794 130.334 L 150.081 138.348 C 151.084 139.867 150.664 141.915 149.144 142.918 L 148.524 143.327 C 147.004 144.33 144.956 143.91 143.953 142.39 Z" style="stroke:none;fill:#69E2FF;stroke-miterlimit:10;"/></g><linearGradient id="_lgradient_91" x1="0" y1="0.5" x2="0.992129723146122" y2="0.6252142661600476" gradientTransform="matrix(-2.76,-3.054,2.935,-2.652,146.348,142.58)" gradientUnits="userSpaceOnUse"><stop offset="0%" stop-opacity="1" style="stop-color:rgb(105,212,248)"/><stop offset="36.83943672475276%" stop-opacity="1" style="stop-color:rgb(105,227,255)"/></linearGradient><path d=" M 147.815 141.254 C 147.005 141.986 145.73 141.896 144.968 141.053 C 144.206 140.211 144.246 138.932 145.056 138.2 C 145.865 137.468 147.141 137.558 147.903 138.401 C 148.664 139.244 148.625 140.522 147.815 141.254 Z " fill="url(#_lgradient_91)"/><linearGradient id="_lgradient_92" x1="0" y1="0.5" x2="0.992129723146122" y2="0.6252142661600476" gradientTransform="matrix(-2.76,-3.054,2.935,-2.652,141.759,135.443)" gradientUnits="userSpaceOnUse"><stop offset="0%" stop-opacity="1" style="stop-color:rgb(105,212,248)"/><stop offset="36.83943672475276%" stop-opacity="1" style="stop-color:rgb(105,227,255)"/></linearGradient><path d=" M 143.227 134.116 C 142.417 134.848 141.141 134.758 140.38 133.916 C 139.618 133.073 139.657 131.795 140.467 131.063 C 141.277 130.331 142.553 130.421 143.314 131.263 C 144.076 132.106 144.037 133.385 143.227 134.116 Z " fill="url(#_lgradient_92)"/><linearGradient id="_lgradient_93" x1="0" y1="0.5" x2="0.992129723146122" y2="0.6252142661600476" gradientTransform="matrix(-0.857,-0.949,1.128,-1.02,145.276,128.041)" gradientUnits="userSpaceOnUse"><stop offset="0%" stop-opacity="1" style="stop-color:rgb(105,212,248)"/><stop offset="36.83943672475276%" stop-opacity="1" style="stop-color:rgb(105,227,255)"/></linearGradient><path d=" M 145.84 127.532 C 145.529 127.813 145.084 127.829 144.847 127.567 C 144.611 127.305 144.671 126.864 144.983 126.583 C 145.294 126.302 145.739 126.286 145.975 126.548 C 146.212 126.809 146.151 127.25 145.84 127.532 Z " fill="url(#_lgradient_93)"/><linearGradient id="_lgradient_94" x1="0" y1="0.5" x2="0.992129723146122" y2="0.6252142661600476" gradientTransform="matrix(-1.594,-1.764,1.824,-1.648,144.101,137.651)" gradientUnits="userSpaceOnUse"><stop offset="0%" stop-opacity="1" style="stop-color:rgb(105,212,248)"/><stop offset="36.83943672475276%" stop-opacity="1" style="stop-color:rgb(105,227,255)"/></linearGradient><path d=" M 145.013 136.827 C 144.509 137.282 143.744 137.256 143.304 136.769 C 142.864 136.283 142.915 135.518 143.419 135.063 C 143.922 134.608 144.688 134.634 145.128 135.121 C 145.567 135.608 145.516 136.372 145.013 136.827 Z " fill="url(#_lgradient_94)"/></g><g><linearGradient id="_lgradient_95" x1="0" y1="0.5" x2="0.6739914007186215" y2="1.238739190619633" gradientTransform="matrix(34,0,0,34.999,1314,336.997)" gradientUnits="userSpaceOnUse"><stop offset="10.813899044674038%" stop-opacity="1" style="stop-color:rgb(105,187,237)"/><stop offset="62.577899044674034%" stop-opacity="1" style="stop-color:rgb(105,227,255)"/></linearGradient><path d=" M 1347.046 352.595 L 1330.276 370.858 C 1328.848 372.412 1326.339 372.37 1324.666 370.758 L 1315.073 361.501 C 1313.4 359.891 1313.85 357.952 1315.28 356.396 L 1332.047 338.136 C 1333.474 336.581 1335.987 336.623 1337.657 338.233 L 1346.617 346.866 C 1348.275 348.476 1348.473 351.041 1347.046 352.596 L 1347.046 352.595 Z " fill="url(#_lgradient_95)"/><linearGradient id="_lgradient_96" x1="0" y1="0.5" x2="0.06530849481610607" y2="1.4978651213991072" gradientTransform="matrix(34,0,0,35,1314.999,336.996)" gradientUnits="userSpaceOnUse"><stop offset="11.650120856764454%" stop-opacity="1" style="stop-color:rgb(105,227,255)"/><stop offset="38.97612085676446%" stop-opacity="1" style="stop-color:rgb(105,187,237)"/></linearGradient><path d=" M 1348.044 352.595 L 1331.275 370.858 C 1329.848 372.412 1327.335 372.37 1325.665 370.758 L 1316.071 361.504 C 1314.4 359.894 1314.85 357.952 1316.278 356.396 L 1333.047 338.134 C 1334.477 336.58 1336.987 336.622 1338.66 338.234 L 1347.618 346.865 C 1349.277 348.475 1349.471 351.04 1348.044 352.595 L 1348.044 352.595 Z " fill="url(#_lgradient_96)"/><path d=" M 1337.047 338.706 L 1345.909 347.186 C 1347.354 348.568 1347.366 350.95 1345.928 352.504 L 1330.92 368.738 C 1329.487 370.288 1327.15 370.425 1325.702 369.04 L 1316.785 360.506 C 1315.738 359.435 1315.738 357.725 1316.785 356.654 L 1333.17 338.93 C 1333.65 338.379 1334.331 338.044 1335.061 338.002 C 1335.79 337.959 1336.506 338.213 1337.046 338.706 L 1337.047 338.706 Z " fill="rgb(27,118,188)"/><linearGradient id="_lgradient_97" x1="0" y1="0.5" x2="0.9920623465360848" y2="0.6257469704816666" gradientTransform="matrix(0.505,-0.47,0.562,0.482,1339.438,344.518)" gradientUnits="userSpaceOnUse"><stop offset="0%" stop-opacity="1" style="stop-color:rgb(105,212,248)"/><stop offset="36.83915053750609%" stop-opacity="1" style="stop-color:rgb(105,227,255)"/></linearGradient><path d=" M 1339.719 344.759 C 1339.564 344.626 1339.551 344.413 1339.691 344.283 C 1339.83 344.153 1340.069 344.156 1340.224 344.289 C 1340.379 344.422 1340.392 344.635 1340.253 344.765 C 1340.113 344.895 1339.874 344.892 1339.719 344.759 Z " fill="url(#_lgradient_97)"/></g><path d="M 1325.753 365.108 L 1325.553 365.315 C 1325.215 365.666 1324.655 365.676 1324.304 365.338 L 1321.596 362.726 C 1321.245 362.387 1321.235 361.828 1321.574 361.477 L 1321.773 361.27 C 1322.112 360.919 1322.671 360.909 1323.022 361.247 L 1325.73 363.859 C 1326.081 364.198 1326.091 364.757 1325.753 365.108 Z" style="stroke:none;fill:#69C8F4;stroke-miterlimit:10;"/><g><linearGradient id="_lgradient_98" x1="0" y1="0.5" x2="0.6858362800264144" y2="1.2277558635968038" gradientTransform="matrix(-40,0,0,39.955,1157,120.019)" gradientUnits="userSpaceOnUse"><stop offset="10.978572325570719%" stop-opacity="1" style="stop-color:rgb(105,187,237)"/><stop offset="62.625465655570714%" stop-opacity="1" style="stop-color:rgb(105,227,255)"/></linearGradient><path d=" M 1118.123 137.826 L 1137.853 158.674 C 1139.531 160.449 1142.483 160.401 1144.451 158.56 L 1155.738 147.992 C 1157.706 146.155 1157.177 143.941 1155.494 142.166 L 1135.768 121.319 C 1134.089 119.544 1131.134 119.593 1129.169 121.43 L 1118.627 131.285 C 1116.677 133.123 1116.444 136.051 1118.123 137.826 L 1118.123 137.826 Z " fill="url(#_lgradient_98)"/><linearGradient id="_lgradient_99" x1="0" y1="0.5" x2="0.06744930077292269" y2="1.497722702871516" gradientTransform="matrix(-40,0,0,39.956,1157,120.018)" gradientUnits="userSpaceOnUse"><stop offset="11.710223720556243%" stop-opacity="1" style="stop-color:rgb(105,227,255)"/><stop offset="38.97582732055625%" stop-opacity="1" style="stop-color:rgb(105,187,237)"/></linearGradient><path d=" M 1118.124 137.826 L 1137.853 158.674 C 1139.532 160.449 1142.488 160.401 1144.453 158.56 L 1155.74 147.996 C 1157.705 146.158 1157.176 143.941 1155.497 142.166 L 1135.768 121.318 C 1134.086 119.543 1131.133 119.591 1129.165 121.432 L 1118.625 131.284 C 1116.675 133.122 1116.445 136.05 1118.125 137.825 L 1118.124 137.826 Z " fill="url(#_lgradient_99)"/><path d=" M 1129.558 121.816 L 1119.266 131.345 C 1117.588 132.897 1117.574 135.574 1119.246 137.32 L 1136.672 155.563 C 1138.336 157.305 1141.052 157.458 1142.732 155.903 L 1153.09 146.313 C 1153.673 145.743 1154.002 144.963 1154.002 144.149 C 1154.002 143.334 1153.673 142.554 1153.09 141.985 L 1134.06 122.067 C 1133.495 121.442 1132.705 121.067 1131.864 121.022 C 1131.021 120.973 1130.192 121.258 1129.558 121.815 L 1129.558 121.816 Z " fill="rgb(27,118,188)"/><linearGradient id="_lgradient_100" x1="0" y1="0.5" x2="0.9920400186969978" y2="0.6259229975169756" gradientTransform="matrix(-2.844,-3.968,-4.004,2.87,1148.611,149.31)" gradientUnits="userSpaceOnUse"><stop offset="0%" stop-opacity="1" style="stop-color:rgb(105,212,248)"/><stop offset="36.83905570227755%" stop-opacity="1" style="stop-color:rgb(105,227,255)"/></linearGradient><path d=" M 1146.609 150.745 C 1147.714 149.953 1147.974 148.421 1147.189 147.326 C 1146.404 146.231 1144.87 145.985 1143.765 146.777 C 1142.66 147.569 1142.401 149.101 1143.185 150.196 C 1143.97 151.291 1145.504 151.537 1146.609 150.745 Z " fill="url(#_lgradient_100)"/></g><g><linearGradient id="_lgradient_101" x1="0" y1="0.5" x2="0.6858362800264144" y2="1.2277558635968038" gradientTransform="matrix(-34.872,-19.595,-19.573,34.832,324.222,222.856)" gradientUnits="userSpaceOnUse"><stop offset="10.978572325570719%" stop-opacity="1" style="stop-color:rgb(105,187,237)"/><stop offset="62.625465655570714%" stop-opacity="1" style="stop-color:rgb(105,227,255)"/></linearGradient><path d=" M 281.606 219.334 L 288.594 247.175 C 289.187 249.545 291.784 250.949 294.402 250.308 L 309.419 246.624 C 312.034 245.986 312.657 243.797 312.06 241.426 L 305.075 213.587 C 304.481 211.218 301.881 209.813 299.268 210.451 L 285.25 213.879 C 282.649 214.526 281.012 216.964 281.606 219.334 L 281.606 219.334 Z " fill="url(#_lgradient_101)"/><linearGradient id="_lgradient_102" x1="0" y1="0.5" x2="0.06744930077292269" y2="1.497722702871516" gradientTransform="matrix(-34.872,-19.595,-19.573,34.833,324.223,222.855)" gradientUnits="userSpaceOnUse"><stop offset="11.710223720556243%" stop-opacity="1" style="stop-color:rgb(105,227,255)"/><stop offset="38.97582732055625%" stop-opacity="1" style="stop-color:rgb(105,187,237)"/></linearGradient><path d=" M 281.607 219.335 L 288.594 247.175 C 289.188 249.545 291.788 250.951 294.403 250.309 L 309.419 246.628 C 312.032 245.988 312.657 243.797 312.062 241.427 L 305.076 213.587 C 304.479 211.215 301.881 209.81 299.264 210.451 L 285.249 213.877 C 282.648 214.524 281.014 216.964 281.609 219.334 L 281.607 219.335 Z " fill="url(#_lgradient_102)"/><path d=" M 299.418 210.979 L 285.778 214.244 C 283.554 214.776 282.231 217.102 282.833 219.444 L 289.088 243.884 C 289.686 246.218 291.978 247.682 294.205 247.149 L 307.933 243.863 C 308.72 243.652 309.389 243.133 309.788 242.423 C 310.187 241.713 310.282 240.872 310.053 240.09 L 303.22 213.403 C 303.033 212.582 302.529 211.868 301.817 211.416 C 301.106 210.961 300.244 210.803 299.418 210.978 L 299.418 210.979 Z " fill="rgb(27,118,188)"/><linearGradient id="_lgradient_103" x1="0" y1="0.5" x2="0.9920400186969978" y2="0.6259229975169756" gradientTransform="matrix(-0.536,-4.853,-4.896,0.54,302.56,244.282)" gradientUnits="userSpaceOnUse"><stop offset="0%" stop-opacity="1" style="stop-color:rgb(105,212,248)"/><stop offset="36.83905570227755%" stop-opacity="1" style="stop-color:rgb(105,227,255)"/></linearGradient><path d=" M 300.112 244.552 C 301.463 244.403 302.44 243.195 302.292 241.855 C 302.144 240.516 300.927 239.55 299.576 239.699 C 298.225 239.849 297.248 241.057 297.396 242.396 C 297.544 243.735 298.761 244.701 300.112 244.552 Z " fill="url(#_lgradient_103)"/></g><path d="M 1124.396 130.122 L 1128.172 126.846 C 1128.381 126.665 1128.697 126.688 1128.878 126.896 L 1128.878 126.896 C 1129.059 127.104 1129.036 127.421 1128.828 127.601 L 1125.051 130.878 C 1124.842 131.059 1124.526 131.036 1124.345 130.828 L 1124.345 130.828 C 1124.165 130.619 1124.187 130.303 1124.396 130.122 Z" style="stroke:none;fill:#69E2FF;stroke-miterlimit:10;"/><path d="M 1130.155 125.135 L 1130.155 125.135 C 1130.342 124.972 1130.626 124.992 1130.789 125.18 L 1130.855 125.256 C 1131.018 125.444 1130.997 125.728 1130.81 125.89 L 1130.81 125.89 C 1130.623 126.053 1130.339 126.033 1130.176 125.845 L 1130.11 125.769 C 1129.947 125.581 1129.967 125.297 1130.155 125.135 Z" style="stroke:none;fill:#69E2FF;stroke-miterlimit:10;"/><path d=" M 1406.056 110.674 C 1406.056 110.674 1404.945 116.635 1400.862 116.701 C 1400.862 116.701 1405.373 116.75 1406.056 122.807 C 1406.056 122.807 1406.056 116.78 1411 116.78 C 1411 116.731 1405.762 116.225 1406.056 110.674 Z " fill="rgb(252,192,0)"/><path d=" M 1368.545 127.863 C 1368.545 127.863 1367.434 133.824 1363.352 133.89 C 1363.352 133.89 1367.863 133.938 1368.545 139.996 C 1368.545 139.996 1368.545 133.969 1373.49 133.969 C 1373.49 133.92 1368.251 133.414 1368.545 127.863 Z " fill="rgb(252,192,0)"/><path d=" M 55.61 107.216 C 55.61 107.216 54.499 113.178 50.416 113.243 C 50.416 113.243 54.928 113.292 55.61 119.35 C 55.61 119.35 55.61 113.322 60.554 113.322 C 60.554 113.274 55.316 112.767 55.61 107.216 Z " fill="rgb(252,192,0)"/><path d=" M 92.61 169.216 C 92.61 169.216 91.499 175.178 87.416 175.243 C 87.416 175.243 91.928 175.292 92.61 181.35 C 92.61 181.35 92.61 175.322 97.554 175.322 C 97.554 175.274 92.316 174.767 92.61 169.216 Z " fill="rgb(252,192,0)"/><path d=" M 1091.329 122.807 C 1091.329 122.807 1090.218 128.769 1086.135 128.834 C 1086.135 128.834 1090.647 128.883 1091.329 134.94 C 1091.329 134.94 1091.329 131.927 1092.565 130.42 C 1093.389 129.415 1094.625 128.913 1096.273 128.913 C 1096.273 128.865 1091.035 128.358 1091.329 122.807 Z " fill="rgb(252,192,0)"/><path d=" M 1333.118 48.996 C 1333.118 48.996 1332.007 54.958 1327.924 55.023 C 1327.924 55.023 1332.436 55.072 1333.118 61.129 C 1333.118 61.129 1333.118 55.102 1338.062 55.102 C 1338.062 55.054 1332.824 54.547 1333.118 48.996 Z " fill="rgb(252,192,0)"/><g><linearGradient id="_lgradient_104" x1="0" y1="0.5" x2="0.5299643167865074" y2="-0.3480199425326096" gradientTransform="matrix(16.104,-46.768,40.08,13.801,371.699,71.409)" gradientUnits="userSpaceOnUse"><stop offset="28.439635518039687%" stop-opacity="1" style="stop-color:rgb(105,227,255)"/><stop offset="95.8484162480397%" stop-opacity="1" style="stop-color:rgb(105,187,237)"/></linearGradient><path d=" M 422.079 53.634 L 397.396 77.391 C 395.295 79.414 391.821 79.155 389.638 76.807 L 377.065 63.322 C 374.88 60.979 375.649 58.369 377.764 56.308 L 402.454 32.547 C 404.554 30.526 408.025 30.789 410.211 33.132 L 421.938 45.707 C 424.118 48.069 424.186 51.609 422.08 53.634 L 422.079 53.634 Z " fill="url(#_lgradient_104)"/><linearGradient id="_lgradient_105" x1="0" y1="0.5" x2="0.940093579814581" y2="0.1590834982119434" gradientTransform="matrix(16.104,-46.768,40.079,13.8,373.937,71.111)" gradientUnits="userSpaceOnUse"><stop offset="67.17991614135852%" stop-opacity="1" style="stop-color:rgb(105,187,237)"/><stop offset="92.24591614135849%" stop-opacity="1" style="stop-color:rgb(105,227,255)"/></linearGradient><path d=" M 424.321 53.332 L 399.636 77.092 C 397.534 79.119 394.058 78.854 391.872 76.51 L 379.303 63.026 C 377.117 60.682 377.894 58.049 380 56.012 L 404.686 32.252 C 406.791 30.233 410.264 30.49 412.451 32.834 L 424.155 45.463 C 426.344 47.797 426.413 51.335 424.321 53.332 L 424.321 53.332 Z " fill="url(#_lgradient_105)"/><path d=" M 409.828 33.713 L 421.392 46.071 C 423.274 48.211 423.097 51.464 420.995 53.389 L 399.003 74.532 C 398.054 75.511 396.751 76.065 395.388 76.069 C 394.026 76.073 392.719 75.526 391.765 74.553 L 380.135 62.099 C 378.772 60.546 378.899 58.189 380.42 56.791 L 404.433 33.709 C 405.145 32.986 406.117 32.579 407.132 32.58 C 408.146 32.581 409.118 32.989 409.828 33.713 Z " fill="rgb(27,118,188)"/><linearGradient id="_lgradient_106" x1="0" y1="0.5" x2="0.7512010978993424" y2="-0.160073412973756" gradientTransform="matrix(2.859,-8.304,11.252,3.875,407.811,43.846)" gradientUnits="userSpaceOnUse"><stop offset="66.86180231729917%" stop-opacity="1" style="stop-color:rgb(105,187,237)"/><stop offset="87.29915621729917%" stop-opacity="1" style="stop-color:rgb(105,227,255)"/></linearGradient><path d=" M 417 47 C 417.521 47.307 417.824 46.391 420 45 L 412 36 C 411.55 36.299 409.082 37.909 409.828 39 C 412.602 43.056 416.28 46.638 417 47 Z " fill="url(#_lgradient_106)"/></g><path d=" M 337.177 40.996 C 337.177 40.996 336.071 46.971 332 47.037 C 332 47.037 336.496 47.086 337.177 53.157 C 337.177 53.157 337.177 47.116 342.099 47.116 C 342.099 47.067 336.884 46.56 337.177 40.996 Z  M 373.533 261.922 C 373.533 261.922 372.427 267.897 368.356 267.963 C 368.356 267.963 372.853 268.012 373.533 274.083 C 373.533 274.083 373.533 268.042 378.455 268.042 C 378.455 267.994 373.24 267.486 373.533 261.922 Z  M 429.078 330.835 C 429.078 330.835 427.972 336.81 423.901 336.876 C 423.901 336.876 428.397 336.925 429.078 342.996 C 429.078 342.996 429.078 336.955 434 336.955 C 434 336.906 428.785 336.399 429.078 330.835 Z " fill="rgb(252,192,0)"/><g opacity="0.199999988"><linearGradient id="_lgradient_107" x1="0" y1="0.5" x2="0.9304966176690522" y2="0.1336995160985266" gradientTransform="matrix(533.352,84.475,63.2,-399.026,-153.276,378.276)" gradientUnits="userSpaceOnUse"><stop offset="14.148675088051785%" stop-opacity="0.2" style="stop-color:rgb(105,187,237)"/><stop offset="80.28504718805178%" stop-opacity="1" style="stop-color:rgb(105,227,255)"/></linearGradient><path d=" M -66.329 379.715 C -3.975 408.814 60.886 415.836 128.255 400.781 C 229.309 378.2 214.19 329.162 310.45 318.118 C 406.709 307.074 447.735 221.981 389.654 179.283 C 331.573 136.585 176.164 186.601 145.558 85.498 C 125.153 18.096 74.536 -9.285 -6.296 3.354 C -74.892 18.893 -112.972 78.2 -120.536 181.274 C -128.1 284.349 -110.031 350.496 -66.329 379.715 Z " fill-rule="evenodd" fill="url(#_lgradient_107)"/></g><g opacity="0.199999988"><linearGradient id="_lgradient_108" x1="0" y1="0.5" x2="0.8929542367164461" y2="0.04985254512532328" gradientTransform="matrix(-475,0,0,386,1530,30.892)" gradientUnits="userSpaceOnUse"><stop offset="15.959471196960513%" stop-opacity="0.2" style="stop-color:rgb(105,187,237)"/><stop offset="82.0958432969605%" stop-opacity="1" style="stop-color:rgb(105,227,255)"/></linearGradient><path d=" M 1448.003 42.529 C 1390.738 24.389 1334.319 27.456 1278.745 51.732 C 1195.385 88.146 1214.956 132.163 1134.133 156.972 C 1053.31 181.782 1029.751 268.214 1085.204 299.826 C 1140.657 331.438 1266.785 261.012 1306.653 351.846 C 1333.231 412.402 1380.227 430.676 1447.64 406.667 C 1509.032 372.15 1536.102 311.158 1528.851 223.692 C 1521.6 136.225 1494.651 75.837 1448.003 42.529 Z " fill-rule="evenodd" fill="url(#_lgradient_108)"/></g><g><linearGradient id="_lgradient_109" x1="0" y1="0.5" x2="0.1671110992279782" y2="-0.4859380713385688" gradientTransform="matrix(121.563,75.961,-78.094,124.977,1402.397,95.464)" gradientUnits="userSpaceOnUse"><stop offset="31.39426675782888%" stop-opacity="1" style="stop-color:rgb(105,227,255)"/><stop offset="100%" stop-opacity="1" style="stop-color:rgb(105,178,233)"/></linearGradient><path d=" M 1448.63 243.627 L 1336.65 226.782 C 1327.117 225.339 1325.064 217.085 1332.063 208.355 L 1372.316 158.056 C 1379.33 149.303 1390.012 146.764 1399.547 148.209 L 1511.611 165.09 C 1521.153 166.523 1523.194 174.77 1516.199 183.519 L 1478.571 230.431 C 1471.585 239.138 1458.183 245.068 1448.63 243.627 Z " fill="url(#_lgradient_109)"/><linearGradient id="_lgradient_110" x1="0" y1="0.5" x2="0.5676311454003097" y2="-0.32328299069732547" gradientTransform="matrix(121.563,75.961,-78.094,124.977,1406.435,97.482)" gradientUnits="userSpaceOnUse"><stop offset="74.2970796127829%" stop-opacity="1" style="stop-color:rgb(105,187,237)"/><stop offset="100%" stop-opacity="1" style="stop-color:rgb(105,255,255)"/></linearGradient><path d=" M 1452.732 245.68 L 1340.697 228.804 C 1331.156 227.358 1329.094 219.112 1336.102 210.371 L 1376.362 160.071 C 1383.371 151.329 1394.064 148.78 1403.603 150.227 L 1515.639 167.103 C 1525.186 168.538 1527.241 176.795 1520.233 185.536 L 1482.677 232.451 C 1475.668 241.194 1462.267 247.109 1452.732 245.68 Z " fill="url(#_lgradient_110)"/><path d=" M 1515.642 181.822 L 1478.42 228.632 C 1472.355 236.268 1459.598 241.248 1449.88 239.72 L 1348.689 223.879 C 1339.017 222.38 1336.095 214.956 1342.167 207.308 L 1379.624 160.219 C 1384.028 154.681 1393.267 151.086 1400.318 152.198 L 1510.803 169.491 C 1517.979 170.601 1520.166 176.139 1515.642 181.822 L 1515.642 181.822 Z " fill="rgb(27,118,188)"/><path d="M 1363.243 196.864 L 1380.939 174.91 C 1382.444 173.044 1382.15 170.308 1380.284 168.804 L 1374.021 163.756 L 1351.089 192.205 L 1357.618 197.468 C 1359.337 198.853 1361.857 198.583 1363.243 196.864 Z" style="stroke:none;fill:#69BCED;stroke-miterlimit:10;"/></g><g><linearGradient id="_lgradient_111" x1="0" y1="0.5" x2="0.1671110992279782" y2="-0.4859380713385688" gradientTransform="matrix(-121.563,75.961,78.094,124.977,96.995,158.131)" gradientUnits="userSpaceOnUse"><stop offset="31.39426675782888%" stop-opacity="1" style="stop-color:rgb(105,227,255)"/><stop offset="100%" stop-opacity="1" style="stop-color:rgb(105,178,233)"/></linearGradient><path d=" M 50.763 306.295 L 162.742 289.45 C 172.276 288.006 174.328 279.752 167.329 271.022 L 127.077 220.724 C 120.063 211.971 109.381 209.432 99.845 210.876 L -12.219 227.758 C -21.76 229.191 -23.801 237.437 -16.806 246.187 L 20.821 293.098 C 27.807 301.806 41.21 307.735 50.763 306.295 Z " fill="url(#_lgradient_111)"/><linearGradient id="_lgradient_112" x1="0" y1="0.5" x2="0.5676311454003097" y2="-0.32328299069732547" gradientTransform="matrix(-121.563,75.961,78.094,124.977,92.958,160.15)" gradientUnits="userSpaceOnUse"><stop offset="74.2970796127829%" stop-opacity="1" style="stop-color:rgb(105,187,237)"/><stop offset="100%" stop-opacity="1" style="stop-color:rgb(105,255,255)"/></linearGradient><path d=" M 46.661 308.347 L 158.696 291.472 C 168.236 290.025 170.298 281.78 163.29 273.039 L 123.031 222.739 C 116.022 213.996 105.329 211.448 95.79 212.895 L -16.246 229.77 C -25.793 231.205 -27.848 239.462 -20.84 248.204 L 16.716 295.119 C 23.725 303.861 37.125 309.776 46.661 308.347 Z " fill="url(#_lgradient_112)"/><path d=" M -16.249 244.489 L 20.973 291.299 C 27.037 298.935 39.794 303.916 49.512 302.388 L 150.703 286.547 C 160.376 285.047 163.298 277.624 157.226 269.975 L 119.769 222.886 C 115.365 217.349 106.125 213.754 99.075 214.865 L -11.41 232.158 C -18.587 233.268 -20.773 238.806 -16.249 244.489 L -16.249 244.489 Z " fill="rgb(27,118,188)"/><path d="M 136.15 259.531 L 118.453 237.578 C 116.949 235.712 117.243 232.976 119.109 231.471 L 125.371 226.423 L 148.304 254.872 L 141.775 260.135 C 140.056 261.521 137.535 261.25 136.15 259.531 Z" style="stroke:none;fill:#69BCED;stroke-miterlimit:10;"/></g></g></g></g></svg>